<svg xmlns="http://www.w3.org/2000/svg" width="158" height="158" viewBox="0 0 158 158"><g><g><path fill="#78de85" d="M137.285 157.882H19.968C9 157.882.108 148.99.108 138.022V20.705C.107 9.736 8.998.845 19.967.845h117.317c10.968 0 19.86 8.891 19.86 19.86v117.317c0 10.968-8.892 19.86-19.86 19.86z"/></g><g><path fill="#41363c" d="M100.179 99.064l-7.007-13.201a1.774 1.774 0 0 0-1.1-.884l-.01-.001-28.857-7.79a3.076 3.076 0 0 0-1.602-.002l-29 7.788c-.004.003-.005.003-.01.003a1.785 1.785 0 0 0-1.104.885l-7.007 13.203a1.783 1.783 0 0 0 .814 2.445l5.35 2.53a1.3 1.3 0 0 1 .745 1.175v16.396c0 1.185.678 2.265 1.745 2.78l28.492 13.75c.248.119.51.177.776.177.264 0 .523-.06.763-.177h.01l29.23-14.108a1.778 1.778 0 0 0 1.01-1.606v-18.032c0-.023-.004-.047-.006-.07l5.954-2.814a1.778 1.778 0 0 0 .814-2.446z"/></g><g><path fill="#f5b131" d="M34.956 120.493V108.13a1.3 1.3 0 0 1 1.855-1.175l17.506 8.274c.242.116.5.171.762.171a1.777 1.777 0 0 0 1.623-1.047l1.436-3.172c.576-1.275 2.483-.864 2.483.535v19.91a1.3 1.3 0 0 1-1.864 1.17l-23.066-11.132a1.299 1.299 0 0 1-.735-1.17z"/></g><g><path fill="#f5b131" d="M89.85 121.31l-23.8 11.484a1.3 1.3 0 0 1-1.863-1.17V112.04c0-1.399 1.907-1.81 2.483-.535l1.288 2.848a1.784 1.784 0 0 0 1.624 1.047c.262 0 .52-.055.76-.17l17.654-8.343a1.298 1.298 0 0 1 1.854 1.174z"/></g><g><path fill="#f5c388" d="M62.738 80.753l19.082 5.15c1.222.33 1.3 2.034.113 2.473l-17.89 6.632c-1.106.41-2.32.41-3.425 0l-17.87-6.624c-1.188-.44-1.11-2.145.114-2.473l19.2-5.158c.222-.06.454-.06.676 0z"/></g><g><path fill="#f5c388" d="M29.145 97.883l4.23-7.97a1.3 1.3 0 0 1 1.6-.609l23.65 8.767a1.3 1.3 0 0 1 .734 1.754l-4.615 10.202a1.3 1.3 0 0 1-1.74.64l-23.267-11a1.3 1.3 0 0 1-.592-1.784z"/></g><g><path fill="#f5c388" d="M69.916 110.027l-4.613-10.202a1.3 1.3 0 0 1 .732-1.754l23.652-8.767a1.3 1.3 0 0 1 1.599.609l4.231 7.97a1.3 1.3 0 0 1-.593 1.785l-23.268 10.999a1.3 1.3 0 0 1-1.74-.64z"/></g><g><path fill="#41363c" d="M79.752 138.606c-2.482 0-5.137-1.44-5.137-5.48V55.203a.54.54 0 0 0-.54-.54H61.617a.54.54 0 0 1-.54-.54v-14.52c-.007 0-.303-2.232 1.333-4.12 1.429-1.645 3.827-2.48 7.128-2.48h56.52c.104.005 6.769.452 6.769 7.107v97.947a.54.54 0 0 1-.54.54H80.046a3.127 3.127 0 0 1-.294.009z"/></g><g><path fill="#e4e4e4" d="M76.509 34.356a.54.54 0 0 0-.54.54v98.23c0 3.724 2.646 4.126 3.783 4.126.125 0 .202-.005.216-.007l50.966-.002a.54.54 0 0 0 .539-.54V40.109c0-5.389-5.767-5.753-5.988-5.753z"/></g><g><path fill="#e4e4e4" d="M69.284 34.356c-2.89 0-4.818.678-5.979 2.015-1.235 1.425-.947 3.119-.945 3.136l.068 13.265a.54.54 0 0 0 .54.537h11.107a.54.54 0 0 0 .54-.54V34.896a.54.54 0 0 0-.54-.54z"/></g><g><path fill="#3b313b" d="M112.52 47.894H93.569a.677.677 0 1 1 0-1.354h18.952a.677.677 0 1 1 0 1.354z"/></g><g><path fill="#3b313b" d="M119.29 56.016H98.981a.676.676 0 1 1 0-1.354h20.307a.677.677 0 1 1 0 1.354z"/></g><g><path fill="#3b313b" d="M119.29 64.14H98.981a.676.676 0 0 1 0-1.355h20.307a.677.677 0 1 1 0 1.354z"/></g><g><path fill="#3b313b" d="M119.29 72.262H98.981a.676.676 0 0 1 0-1.354h20.307a.677.677 0 1 1 0 1.354z"/></g><g><path fill="#3b313b" d="M119.29 81.738H98.981a.676.676 0 0 1 0-1.354h20.307a.677.677 0 1 1 0 1.354z"/></g><g><path fill="#3b313b" d="M119.29 89.86H98.981a.676.676 0 0 1 0-1.354h20.307a.677.677 0 1 1 0 1.354z"/></g><g><path fill="#3b313b" d="M119.29 97.983H98.981a.676.676 0 1 1 0-1.354h20.307a.677.677 0 1 1 0 1.354z"/></g><g><path fill="#3b313b" d="M119.29 104.752H98.981a.676.676 0 0 1 0-1.354h20.307a.677.677 0 1 1 0 1.354z"/></g><g><path fill="#3b313b" d="M92.214 81.738H84.09a.677.677 0 1 1 0-1.354h8.123a.677.677 0 1 1 0 1.354z"/></g><g><path fill="#3b313b" d="M92.214 72.262H84.09a.677.677 0 1 1 0-1.354h8.123a.677.677 0 1 1 0 1.354z"/></g><g><path fill="#3b313b" d="M92.214 64.14H84.09a.677.677 0 1 1 0-1.355h8.123a.677.677 0 1 1 0 1.354z"/></g><g><path fill="#3b313b" d="M92.214 89.86H84.09a.677.677 0 1 1 0-1.354h8.123a.677.677 0 1 1 0 1.354z"/></g><g><path fill="#3b313b" d="M92.214 97.983H84.09a.676.676 0 1 1 0-1.354h8.123a.677.677 0 1 1 0 1.354z"/></g><g><path fill="#3b313b" d="M92.214 104.752H84.09a.677.677 0 1 1 0-1.354h8.123a.677.677 0 1 1 0 1.354z"/></g><g><path fill="#3b313b" d="M92.214 56.016H84.09a.676.676 0 1 1 0-1.354h8.123a.677.677 0 1 1 0 1.354z"/></g><g><path fill="#3b313b" d="M119.29 122.351H84.09a.677.677 0 1 1 0-1.354h35.198a.677.677 0 1 1 0 1.354z"/></g></g></svg>