<svg xmlns="http://www.w3.org/2000/svg" width="159" height="159" viewBox="0 0 159 159"><g><g><path fill="#78de85" d="M138.856 158.268l-118.279.194C9.608 158.48.702 149.602.684 138.634L.49 20.354C.472 9.386 9.349.48 20.316.462L138.597.268c10.968-.018 19.875 8.859 19.893 19.828l.194 118.279c.018 10.968-8.859 19.875-19.828 19.893z"/></g><g><path fill="#048ac4" d="M65.737 39.468c-6.704 3.353-10.37 6.953-8.191 8.041 2.177 1.088 9.38-.748 16.083-4.1 6.704-3.353 10.374-6.952 8.193-8.04-2.18-1.088-9.38.747-16.085 4.1z"/></g><g><path fill="#151717" d="M58.655 108.365c-.495 1.552-.925 2.798-1.193 4.197-.218 1.137-.302 2.42-.448 3.713-.136.983.516 2.173.07 2.98-.303.545-.97.845-2.102.466-1.202-.4-2.41-1.866-3.084-2.98-1.41-2.343-1.228-4.982-1.202-7.569l-.57.18-.657-2.838 1.762-1.524c1.686-1.109 2.06-.969 4.122-1.36l1.594 2.151z"/></g><g><path fill="#042847" d="M69.9 90.614l-14.837 12.46c-.693.122-.829 1.79-.276 3.997.611 2.445 1.836 4.627 2.734 4.874a.485.485 0 0 0 .517-.14c6.123-4.21 11.618-8.81 17.007-12.935z"/></g><g><path fill="#151717" d="M79.376 127.435c1.032 1.34 1.837 2.44 2.884 3.533.851.888 1.916 1.784 2.95 2.729.77.735 2.24 1.09 2.65 1.91.28.556.1 1.187-.972 1.675-1.143.518-3.218.34-4.635.047-2.973-.62-5.158-2.473-7.403-4.188l-.218.489-2.913-1.437-.171-2.146c.137-1.825.505-1.977 1.52-3.574l2.927.376z"/></g><g><path fill="#eebf7d" d="M105.048 49.258l-.223 1.46s.37 1.134.402 1.187c.03.054 2.404.439 2.404.439s.552-.79.614-.886c1.5-2.378-.628-2.061-3.197-2.2z"/></g><g><path fill="#042847" d="M73.221 71.728c-8.22 6.832-4.63 11.814-6.142 20.782l9.876 4.52c1.815-6.409 3.846-14.2 3.841-26.521z"/></g><g><path fill="#05345e" d="M59.809 78.459c-.684 9.826 7.885 17.417 12.559 25.703.03 6.975.082 14.277-.163 21.81-.361.526.983 1.73 3.253 2.856 2.514 1.246 5.213 1.924 6.027 1.514.19-.095.26-.24.226-.425.706-9.782.912-19.319.786-27.714-.07-4.727-6.501-17.202-11.027-25.18z"/></g><g><path fill="#eebf7d" d="M67.257 33.854c.343 2.338.286 3.553-.027 5.89l4.522 1.609 2.608-.445c.11-1.505.22-2.98.393-4.482z"/></g><g><path fill="#048ac4" d="M74.81 37.076c2.34-1.478 6.416-2.734 7.53-1.192 4.328 5.997-.975 25.102-.984 28.077a191.223 191.223 0 0 1-.166 6.726 1.009 1.009 0 0 1-.09.351c.367 1.28-2.605 3.851-7.445 6.27-5.678 2.841-11.782 4.396-13.626 3.475-.43-.215-.592-.546-.514-.963l-.007-.003c.09-4.285.572-10.27.165-14.549-.396-4.168-3.24-19.428.162-22.054 2.232-1.723 4.437-2.448 7.463-4.089 1.312 1.092 2.824 1.71 5.26 1.904 1.206-.765 1.668-2.72 2.252-3.953z"/></g><g><path fill="#ffd9a5" d="M78.205 30.112c-.056 2.141.202 1.911-1.22 5.335-.426 1.026-1.05 2.298-1.399 2.503-.46.27-1.55.398-2.13.325-1.158-.144-3.59-1.369-4.48-1.756-1.962-.854-1.835-1.335-2.266-3.332l-1.034-2.853.591-5.713c3.923-1.072 7.38-1.794 9.244-1.212 1.873.585 2.804 2.502 2.694 6.703z"/></g><g><path d="M67.194 22.269c-5.677 1.115-2.79 8.443-.387 11.761.203-1.659-.85-3.465.029-3.906.486-.244 1.953-.191 2.625 2.057.806-2.173-.466-1.606.604-4.333 2.626 1.511 8.236.494 9.366-1.743-.923-.461-1.641-2.93-3.802-4.013-2.778-1.392-6.577-1.242-8.435.177z"/></g><g><path fill="#ddc173" d="M88.387 56.699l-.442 2.22.521 13.745 18.972-9.487-.078-15.966z"/></g><g><path fill="#caae66" d="M88.387 56.699l-17.98-8.977.08 15.966 17.98 8.976z"/></g><g><path fill="#bfa763" d="M107.36 47.21l-17.98-8.974-18.973 9.486 17.98 8.977z"/></g><g><path fill="#ead992" d="M87.955 55.1l.452 3.098 19.918-9.96-.014-2.827z"/></g><g><path fill="#e5ecf4" d="M96.709 54.655l.015 2.91-6.463 3.23-.014-2.909z"/></g><g><path fill="#888689" d="M91.416 57.676l.01 2.164-.694.348-.012-2.165zm4.833-.248l-.682.342-.01-2.166.682-.34zm-1.222.612l-.68.341-.012-2.164.68-.342zm-1.266.633l-.682.34-.01-2.164.682-.34zm-1.849.924l-.01-2.165.681-.34.011 2.164z"/></g><g><path fill="#ddc173" d="M88.394 55.37l-18.902-9.436.013 2.826 18.903 9.437z"/></g><g><path fill="#f6e8ad" d="M108.311 45.41l-18.902-9.435-19.918 9.96 18.903 9.435z"/></g><g><path fill="#ffd9a5" d="M83.53 63.958c1.089-.265 1.283-.358 2.143-.867.859-.509 1.736-.358 2.47-.336.455.013 2.358.232 2.474.32-.18 1.237-1.683.918-2.387.789-.49.088-.782.11-1.016.343.462.29 1.517.278 1.996.296 1.58.06 1.727-.52 2.695-1.08.105.386.243 1.418.284 2.306.033.718.078.882-.451 1.447-.746.799-1.505 1.449-2.934 2.227l-5.538-.956z"/></g><g><path fill="#099dde" d="M62.925 67.05l20.08 2.2c1.316-.966 2.352-4.812 1.558-5.88l-20.435-2.613c-2.249-.97-4.746 1.292-4.479 3.443.141 1.142.73 2.177 3.276 2.85z"/></g><g><path fill="#099dde" d="M56.717 47.28c-.862 4.854 1.957 10.532 2.944 16.956.813 3.34 7.437 2.68 6.81-1.661l-.101-7.696c-.041-3.01-1.141-12.282-6.501-11.304-1.325.24-2.748 1.422-3.152 3.706z"/></g><g><path fill="#ffd9a5" d="M108.81 50.893c.933.48 1.065.687.476 1.36-.426.488-.917.765-1.468 1.073-.738.412-.713.24-1.677.168l-.918-.137c.301-1.043.352-.95 1.994-1.086z"/></g><g><path fill="#ffd9a5" d="M109.398 52.087c.204.542.31.762.308.953-.002.17-.374.814-.595 1.041-.275.284-.66.401-1.036.504-.28.077-.47.126-.639.157-.61.115-1.373.062-2.003.04.194-1.45.487-1.144 2.25-1.413z"/></g><g><path fill="#ffd9a5" d="M109.128 53.533c.19.451.48.838.486 1a.784.784 0 0 1-.205.552c-.221.246-.542.355-.854.452a7.03 7.03 0 0 1-.532.15c-.51.113-1.155.09-1.686.088.11-1.227.368-.976 1.842-1.25z"/></g><g><path fill="#ffd9a5" d="M109.132 50.12c.146.198 0 .474-.234.841-.34.532-.556.88-.799 1.065-.58.446-1.848.35-2.583.354-.373-.909.332-1.069 1.615-1.354.215-.425.522-1.15 1.127-1.215.236-.025.63-.027.874.308z"/></g></g></svg>