<svg xmlns="http://www.w3.org/2000/svg" width="160" height="160" viewBox="0 0 160 160"><g><g><path fill="#78de85" d="M139.843 159.864H20.563c-10.968 0-19.86-8.892-19.86-19.86V20.723C.703 9.755 9.595.863 20.563.863h119.28c10.969 0 19.86 8.893 19.86 19.86v119.28c0 10.969-8.891 19.86-19.86 19.86z"/></g><g><path fill="#413841" d="M57.672 99.77c-.925 0-1.676.751-1.676 1.676 0 .924-.749 1.676-1.674 1.676a1.677 1.677 0 0 1 0-3.352 1.674 1.674 0 0 0 0-3.348 5.03 5.03 0 0 0-5.024 5.024 5.03 5.03 0 0 0 5.024 5.024 5.029 5.029 0 0 0 5.025-5.024c0-.925-.75-1.676-1.675-1.676z"/></g><g><path fill="#413841" d="M124.664 99.77c-.925 0-1.673.751-1.673 1.676 0 .924-.75 1.676-1.675 1.676a1.677 1.677 0 0 1 0-3.352 1.673 1.673 0 1 0 0-3.348 5.029 5.029 0 0 0-5.025 5.024 5.029 5.029 0 0 0 5.025 5.024 5.029 5.029 0 0 0 5.024-5.024c0-.925-.748-1.676-1.676-1.676z"/></g><g><path fill="#3b313b" d="M141.413 77.998c0 .181.208.35.157.513.052.38.314.77.314 1.162v15.075c0 1.846-1.973 3.435-3.822 3.435h-5.512c.162 0 .284 1.37.368 1.37h6.821c.925 0 1.674 1.131 1.674 2.056 0 .924-.749 2.056-1.674 2.056h-6.821c-.814 5.483-5.709 10.047-11.602 10.047-5.897 0-10.788-4.564-11.603-10.047H89.494c0 2.742-2.252 4.112-5.025 4.112H74.421c-2.771 0-5.024-1.37-5.024-4.112h-3.472c-.815 5.483-5.707 10.047-11.603 10.047s-10.785-4.564-11.601-10.047h-6.822c-.924 0-1.674-1.132-1.674-2.056 0-.925.75-2.056 1.674-2.056h6.822c.083 0 .206-1.37.368-1.37h-5.514c-1.847 0-3.975-1.589-3.975-3.435V47.853c0-1.851 2.128-3.127 3.975-3.127h66.991c1.849 0 3.051 1.276 3.051 3.127v3.726h12.065c3.728 0 6.949 2.209 8.018 5.78.008.017.013-.152.017-.136l3.373 12.812 5.535 2.078c.055.02.108.045.159.071a8.326 8.326 0 0 1 4.13 4.622c.309.305.499.728.499 1.192zM69.397 99.553s.101-1.37.287-1.37h-4.127c.163 0 .285 1.37.368 1.37zm40.316 0c.082 0 .208-1.37.369-1.37H89.205c.186 0 .289 1.37.289 1.37zm28.349-13.18h-1.673v1.674h1.673z"/></g><g><path fill="#e3e3e3" d="M39.288 47.467H103.3c.871 0 1.576.706 1.576 1.577v32.485c0 .87-.705 1.576-1.576 1.576H90.005c-.163 0-.323.003-.484.006-.009 0-.018-.006-.027-.006H39.288a1.575 1.575 0 0 1-1.576-1.576V49.044c0-.871.705-1.577 1.576-1.577z"/></g><g><path fill="#3b88b0" d="M84.47 94.07H64.371c-.138 0-.273.355-.4.387-2.117-3.063-5.652-4.903-9.65-4.903-3.996 0-7.53 1.756-9.647 4.82-.13-.033-.263-.304-.4-.304h-6.563v-8.224h51.782c.01 0 .017-.005.027-.005.16.002.321.005.484.005h14.87v8.224z"/></g><g><path fill="#3b88b0" d="M107.617 83.105v-4.112h30.155v4.112h-1.383c-1.848 0-2.729 1.42-2.729 3.268v1.674c0 1.847.881 3.282 2.73 3.282h1.382v2.741h-6.407c-.139 0-.274.355-.4.387-2.119-3.062-5.652-4.903-9.649-4.903-3.997 0-7.532 1.756-9.649 4.819-.13-.032-.262-.303-.4-.303h-3.65v-8.224z"/></g><g><path fill="#3b88b0" d="M107.617 73.51h21.77l5.973 1.937c.55.286 1.028.804 1.425.804h-29.168z"/></g><g><path fill="#61cade" d="M107.617 54.32h12.064a4.99 4.99 0 0 1 4.803 3.557l3.033 11.521h-19.9z"/></g><g><path fill="#6b6b6b" d="M54.322 109.82c-4.615 0-8.373-3.757-8.373-8.374 0-4.617 3.758-8.374 8.373-8.374 4.618 0 8.375 3.757 8.375 8.374 0 4.617-3.757 8.374-8.375 8.374z"/></g><g><path fill="#6b6b6b" d="M121.316 109.82c-4.617 0-8.374-3.757-8.374-8.374 0-4.617 3.757-8.374 8.374-8.374 4.618 0 8.374 3.757 8.374 8.374 0 4.617-3.756 8.374-8.374 8.374z"/></g><g><path fill="#3b313b" d="M57.672 99.77c-.925 0-1.676.751-1.676 1.676 0 .924-.749 1.676-1.674 1.676a1.677 1.677 0 0 1 0-3.352 1.674 1.674 0 0 0 0-3.348 5.03 5.03 0 0 0-5.024 5.024 5.03 5.03 0 0 0 5.024 5.024 5.029 5.029 0 0 0 5.025-5.024c0-.925-.75-1.676-1.675-1.676z"/></g><g><path fill="#3b313b" d="M124.664 99.77c-.925 0-1.673.751-1.673 1.676 0 .924-.75 1.676-1.675 1.676a1.677 1.677 0 0 1 0-3.352 1.673 1.673 0 1 0 0-3.348 5.029 5.029 0 0 0-5.025 5.024 5.029 5.029 0 0 0 5.025 5.024 5.029 5.029 0 0 0 5.024-5.024c0-.925-.748-1.676-1.676-1.676z"/></g><g><path fill="#6b6b6b" d="M85.686 103.122c0 .922-.292 1.915-1.217 1.915H74.421c-.924 0-1.071-.993-1.071-1.915V99.77c0-.923.147-1.587 1.071-1.587h10.048c.925 0 1.217.664 1.217 1.587z"/></g><g><path fill="#3b313b" d="M76.097 99.77c-.442 0-.874.18-1.186.49a1.677 1.677 0 0 0 1.186 2.862 1.68 1.68 0 0 0 1.185-2.862 1.7 1.7 0 0 0-1.185-.49z"/></g><g><path fill="#851f78" d="M56.787 62.893l4.812 2.067a.182.182 0 0 0 .126 0l4.592-2.022c.208-.077.348.214.159.33l-4.488 2.54a.184.184 0 0 0-.087.138l-.082 3.696c-.022.215-.335.221-.365.005l-.247-3.708a.18.18 0 0 0-.086-.13l-4.492-2.587c-.19-.115-.05-.404.158-.329z"/></g><g><path fill="#f39124" d="M55.828 61.22l-.819.14a.303.303 0 0 0-.227.292l-.052 5.482a2.72 2.72 0 0 0 1.405 2.406l4.137 2.286c.087.048.191.05.28.008l.354-.16a.305.305 0 0 0 .024-.536l-3.72-2.21a2.718 2.718 0 0 1-1.332-2.334l-.006-4.533c0-.115.065-.221.17-.273.327-.163.14-.66-.214-.567z"/></g><g><path fill="#851f78" d="M55.828 61.22l-.819.14a.303.303 0 0 0-.227.292l-.052 5.482a2.72 2.72 0 0 0 1.405 2.406l4.137 2.286c.087.048.191.05.28.008l.354-.16a.305.305 0 0 0 .024-.536l-3.72-2.21a2.718 2.718 0 0 1-1.332-2.334l-.006-4.533c0-.115.065-.221.17-.273.327-.163.14-.66-.214-.567z"/></g><g><path fill="#f39124" d="M67.619 69.936l.819-.139a.306.306 0 0 0 .228-.291l.05-5.483a2.718 2.718 0 0 0-1.404-2.405l-4.137-2.287a.302.302 0 0 0-.28-.007l-.354.16a.305.305 0 0 0-.023.535l3.72 2.21a2.721 2.721 0 0 1 1.332 2.335l.006 4.533a.307.307 0 0 1-.17.273c-.328.162-.141.66.213.566z"/></g><g><path fill="#851f78" d="M67.619 69.936l.819-.139a.306.306 0 0 0 .228-.291l.05-5.483a2.718 2.718 0 0 0-1.404-2.405l-4.137-2.287a.302.302 0 0 0-.28-.007l-.354.16a.305.305 0 0 0-.023.535l3.72 2.21a2.721 2.721 0 0 1 1.332 2.335l.006 4.533a.307.307 0 0 1-.17.273c-.328.162-.141.66.213.566z"/></g><g><path fill="#3b313b" d="M70.967 60.863a.19.19 0 0 1 .19.19v1.215c0 .105.085.19.19.19h1.557a.19.19 0 0 0 .19-.19v-1.215a.19.19 0 1 1 .38 0v3.424a.19.19 0 1 1-.38 0v-1.456a.19.19 0 0 0-.19-.19h-1.557a.19.19 0 0 0-.19.19v1.456a.19.19 0 1 1-.38 0v-3.424a.19.19 0 0 1 .19-.19z"/></g><g><path fill="#3b313b" d="M74.475 61.853c.1 0 .181.081.181.181v1.133c0 .32.018.541.052.662a.736.736 0 0 0 .297.408.9.9 0 0 0 .522.152.88.88 0 0 0 .514-.148.745.745 0 0 0 .291-.384c.036-.108.054-.338.054-.69v-1.133c0-.1.081-.18.181-.18h.008c.1 0 .181.08.181.18v1.2c0 .388-.045.68-.135.877-.09.196-.228.35-.409.461-.182.112-.41.167-.684.167-.274 0-.503-.055-.687-.167a1.022 1.022 0 0 1-.41-.465c-.092-.199-.137-.499-.137-.899v-1.174c0-.1.081-.18.181-.18z"/></g><g><path fill="#3b313b" d="M78.853 62.288a.166.166 0 0 1-.222.015c-.155-.122-.307-.183-.456-.183a.432.432 0 0 0-.302.116.364.364 0 0 0-.126.272c0 .091.035.178.104.261.068.084.213.184.435.297.27.14.453.275.55.404a.733.733 0 0 1 .142.442.794.794 0 0 1-.243.587.828.828 0 0 1-.61.241 1.062 1.062 0 0 1-.722-.28.166.166 0 0 1-.008-.232l.01-.013a.167.167 0 0 1 .236-.014c.15.13.306.195.47.195a.525.525 0 0 0 .37-.14.43.43 0 0 0 .052-.605c-.067-.079-.22-.179-.456-.3-.254-.13-.427-.26-.518-.388a.729.729 0 0 1-.138-.437c0-.214.074-.39.219-.533a.765.765 0 0 1 .553-.212c.214 0 .428.086.643.257a.17.17 0 0 1 .017.25z"/></g><g><path fill="#3b313b" d="M79.785 60.767h.02a.17.17 0 0 1 .17.17v1.678a.17.17 0 0 0 .284.128l.974-.848a.171.171 0 0 1 .112-.042h.01c.159 0 .232.196.113.3l-1.056.916a.17.17 0 0 0-.002.256l1.163 1.045a.17.17 0 0 1-.228.254l-1.084-.97a.171.171 0 0 0-.285.127v.716a.17.17 0 0 1-.17.17h-.021a.17.17 0 0 1-.17-.17v-3.56a.17.17 0 0 1 .17-.17z"/></g><g><path fill="#3b313b" d="M82.401 60.694a.285.285 0 0 0-.209.088.29.29 0 0 0-.088.214c0 .08.03.15.088.208a.281.281 0 0 0 .21.089.283.283 0 0 0 .21-.088.284.284 0 0 0 .087-.21.29.29 0 0 0-.088-.212.287.287 0 0 0-.21-.089zm.001 1.16c-.1 0-.18.08-.18.18v2.452c0 .1.08.18.18.18.1 0 .181-.08.181-.18v-2.452c0-.1-.08-.18-.18-.18z"/></g><g><path fill="#3b313b" d="M85.705 63.734l.304.16h.001c-.1.197-.216.355-.347.476a1.372 1.372 0 0 1-.443.275 1.541 1.541 0 0 1-.557.095c-.459 0-.817-.15-1.076-.452a1.52 1.52 0 0 1-.388-1.02c0-.356.11-.675.328-.954.278-.356.65-.533 1.116-.533.48 0 .863.182 1.15.546.203.256.306.577.31.961v.001H83.57c.007.327.112.595.313.804a1 1 0 0 0 .75.313 1.201 1.201 0 0 0 .762-.273c.096-.082.198-.215.308-.399zm0-.758a1.198 1.198 0 0 0-.21-.463 1.117 1.117 0 0 0-.832-.385 1.032 1.032 0 0 0-.727.266c-.145.13-.254.323-.329.582z"/></g><g><path fill="#3b313b" d="M88.07 62.288a.167.167 0 0 1-.223.015c-.154-.122-.306-.183-.455-.183a.432.432 0 0 0-.302.116.361.361 0 0 0-.126.272c0 .091.035.178.104.261.069.084.214.184.435.297.27.14.453.275.55.404a.733.733 0 0 1 .142.442.794.794 0 0 1-.243.587.828.828 0 0 1-.61.241 1.062 1.062 0 0 1-.722-.28.167.167 0 0 1-.008-.232l.01-.013a.167.167 0 0 1 .236-.014c.15.13.306.195.47.195a.525.525 0 0 0 .37-.14.43.43 0 0 0 .052-.605c-.067-.079-.22-.179-.456-.3-.254-.13-.427-.26-.518-.388a.729.729 0 0 1-.138-.437c0-.214.074-.39.219-.533a.765.765 0 0 1 .553-.212c.214 0 .428.086.643.257a.17.17 0 0 1 .017.25z"/></g><g><path fill="#3b313b" d="M70.818 71.023a.182.182 0 0 1-.18-.207l.516-3.597h.06L72.6 70.01a.181.181 0 0 0 .325 0l1.37-2.792h.06l.518 3.597a.181.181 0 0 1-.18.207h-.005a.182.182 0 0 1-.18-.156l-.273-1.98c-.024-.177-.263-.216-.342-.056l-1.084 2.192h-.097l-1.1-2.213c-.078-.16-.316-.121-.341.056l-.272 2a.181.181 0 0 1-.18.157z"/></g><g><path fill="#3b313b" d="M78 68.608c.258.286.388.625.388 1.016 0 .393-.137.737-.41 1.031-.274.294-.626.44-1.057.44-.432 0-.784-.146-1.058-.44a1.465 1.465 0 0 1-.41-1.03c0-.39.13-.729.388-1.015a1.394 1.394 0 0 1 1.08-.473c.434 0 .793.157 1.078.471zm-1.856.216a1.12 1.12 0 0 0-.325.808c0 .203.05.393.148.568a1.06 1.06 0 0 0 .953.551c.201 0 .385-.048.553-.143.168-.096.301-.232.4-.408.098-.175.148-.365.148-.568 0-.316-.109-.585-.326-.808a1.048 1.048 0 0 0-.775-.333c-.3 0-.56.111-.776.333z"/></g><g><path fill="#3b313b" d="M79.065 68.21c.068 0 .13.04.159.102l.737 1.602a.176.176 0 0 0 .319-.001l.728-1.6a.174.174 0 0 1 .159-.103h.003c.127 0 .212.132.159.248l-1.175 2.565h-.067l-1.181-2.565a.175.175 0 0 1 .159-.248z"/></g><g><path fill="#3b313b" d="M84.667 70.25c-.1.196-.216.354-.347.475a1.37 1.37 0 0 1-.442.277c-.164.062-.35.093-.557.093-.459 0-.818-.15-1.077-.45a1.527 1.527 0 0 1-.388-1.022c0-.356.11-.674.33-.954.277-.354.648-.532 1.114-.532.48 0 .863.181 1.15.545.204.258.307.579.31.963h-2.532c.008.327.112.595.314.804a.999.999 0 0 0 .748.314 1.201 1.201 0 0 0 .764-.273c.095-.083.198-.216.308-.4zm-.305-.918a1.194 1.194 0 0 0-.21-.462 1.016 1.016 0 0 0-.388-.29 1.133 1.133 0 0 0-.444-.096 1.041 1.041 0 0 0-.727.266c-.145.13-.254.324-.328.582z"/></g><g><path fill="#3b313b" d="M85.478 68.21h.01a.18.18 0 0 1 .18.18v.23c.11-.161.228-.282.35-.362a.693.693 0 0 1 .383-.121c.03 0 .06.004.093.009.12.023.178.167.113.272a.178.178 0 0 1-.19.08.32.32 0 0 0-.076-.01c-.12 0-.237.05-.35.15-.111.099-.196.253-.255.462-.045.16-.067.484-.067.972v.77c0 .1-.081.18-.18.18h-.01a.18.18 0 0 1-.18-.18V68.39a.18.18 0 0 1 .18-.18z"/></g><g><path fill="#3b313b" d="M88.32 68.644a.168.168 0 0 1-.222.015c-.154-.122-.306-.183-.455-.183a.432.432 0 0 0-.302.116.358.358 0 0 0-.126.272c0 .091.035.178.104.261.069.084.214.184.435.297.27.14.453.274.549.404a.728.728 0 0 1 .143.442.791.791 0 0 1-.244.587.832.832 0 0 1-.608.241 1.062 1.062 0 0 1-.723-.28.166.166 0 0 1-.008-.232l.01-.013a.167.167 0 0 1 .236-.014c.15.129.306.194.47.194a.529.529 0 0 0 .37-.139.43.43 0 0 0 .052-.605c-.067-.08-.22-.179-.456-.301-.254-.13-.427-.26-.518-.387a.729.729 0 0 1-.138-.437.71.71 0 0 1 .219-.533.764.764 0 0 1 .553-.212c.213 0 .428.086.643.257a.17.17 0 0 1 .017.25z"/></g></g></svg>