<svg xmlns="http://www.w3.org/2000/svg" width="157" height="158" viewBox="0 0 157 158"><defs><clipPath id="z5ina"><path d="M92.552 69.036l-15.963.717c-.564.025-2.031 2.493-2.317 2.875-1.677 2.234-3.312 4.559-4.492 7.1-3.237 6.976-1.759 16.196 3.573 21.802 3.176 3.339 8.171 2.129 12.718 2.006 5.155-.138 11.194-.209 13.329-5.058 2.45-5.565 3.19-12.129 1.594-18.029-.794-2.931-4.23-11.416-8.311-11.416-.044 0-.087.001-.131.003z"/></clipPath><clipPath id="z5inb"><path d="M92.552 69.036l-15.963.717c-.564.025-2.031 2.493-2.317 2.875-1.677 2.234-3.312 4.559-4.492 7.1-3.237 6.976-1.759 16.196 3.573 21.802 3.176 3.339 8.171 2.129 12.718 2.006 5.155-.138 11.194-.209 13.329-5.058 2.45-5.565 3.19-12.129 1.594-18.029-.794-2.931-4.23-11.416-8.311-11.416-.044 0-.087.001-.131.003z"/></clipPath><clipPath id="z5inc"><path d="M42.613 103.303s3.918 1.55 13.434 2.323c9.661.786 14.313-1.333 14.313-1.333.643-9.459-.499-36.07-12.723-36.099h-.027c-16.196.005-14.997 35.109-14.997 35.109z"/></clipPath><clipPath id="z5ind"><path d="M42.613 103.303s3.918 1.55 13.434 2.323c9.661.786 14.313-1.333 14.313-1.333.643-9.459-.499-36.07-12.723-36.099h-.027c-16.196.005-14.997 35.109-14.997 35.109z"/></clipPath><clipPath id="z5ine"><path d="M42.613 103.303s3.918 1.55 13.434 2.323c9.661.786 14.313-1.333 14.313-1.333.643-9.459-.499-36.07-12.723-36.099h-.027c-16.196.005-14.997 35.109-14.997 35.109z"/></clipPath><clipPath id="z5inf"><path d="M42.613 103.303s3.918 1.55 13.434 2.323c9.661.786 14.313-1.333 14.313-1.333.643-9.459-.499-36.07-12.723-36.099h-.027c-16.196.005-14.997 35.109-14.997 35.109z"/></clipPath><clipPath id="z5ing"><path d="M42.613 103.303s3.918 1.55 13.434 2.323c9.661.786 14.313-1.333 14.313-1.333.643-9.459-.499-36.07-12.723-36.099h-.027c-16.196.005-14.997 35.109-14.997 35.109z"/></clipPath><clipPath id="z5inh"><path d="M42.613 103.303s3.918 1.55 13.434 2.323c9.661.786 14.313-1.333 14.313-1.333.643-9.459-.499-36.07-12.723-36.099h-.027c-16.196.005-14.997 35.109-14.997 35.109z"/></clipPath><clipPath id="z5ini"><path d="M42.613 103.303s3.918 1.55 13.434 2.323c9.661.786 14.313-1.333 14.313-1.333.643-9.459-.499-36.07-12.723-36.099h-.027c-16.196.005-14.997 35.109-14.997 35.109z"/></clipPath><clipPath id="z5inj"><path d="M42.613 103.303s3.918 1.55 13.434 2.323c9.661.786 14.313-1.333 14.313-1.333.643-9.459-.499-36.07-12.723-36.099h-.027c-16.196.005-14.997 35.109-14.997 35.109z"/></clipPath><clipPath id="z5ink"><path d="M42.613 103.303s3.918 1.55 13.434 2.323c9.661.786 14.313-1.333 14.313-1.333.643-9.459-.499-36.07-12.723-36.099h-.027c-16.196.005-14.997 35.109-14.997 35.109z"/></clipPath><clipPath id="z5inl"><path d="M42.613 103.303s3.918 1.55 13.434 2.323c9.661.786 14.313-1.333 14.313-1.333.643-9.459-.499-36.07-12.723-36.099h-.027c-16.196.005-14.997 35.109-14.997 35.109z"/></clipPath><clipPath id="z5inm"><path d="M42.613 103.303s3.918 1.55 13.434 2.323c9.661.786 14.313-1.333 14.313-1.333.643-9.459-.499-36.07-12.723-36.099h-.027c-16.196.005-14.997 35.109-14.997 35.109z"/></clipPath><clipPath id="z5inn"><path d="M42.613 103.303s3.918 1.55 13.434 2.323c9.661.786 14.313-1.333 14.313-1.333.643-9.459-.499-36.07-12.723-36.099h-.027c-16.196.005-14.997 35.109-14.997 35.109z"/></clipPath><clipPath id="z5ino"><path d="M42.613 103.303s3.918 1.55 13.434 2.323c9.661.786 14.313-1.333 14.313-1.333.643-9.459-.499-36.07-12.723-36.099h-.027c-16.196.005-14.997 35.109-14.997 35.109z"/></clipPath><clipPath id="z5inp"><path d="M42.613 103.303s3.918 1.55 13.434 2.323c9.661.786 14.313-1.333 14.313-1.333.643-9.459-.499-36.07-12.723-36.099h-.027c-16.196.005-14.997 35.109-14.997 35.109z"/></clipPath><clipPath id="z5inq"><path d="M42.613 103.303s3.918 1.55 13.434 2.323c9.661.786 14.313-1.333 14.313-1.333.643-9.459-.499-36.07-12.723-36.099h-.027c-16.196.005-14.997 35.109-14.997 35.109z"/></clipPath><clipPath id="z5inr"><path d="M42.613 103.303s3.918 1.55 13.434 2.323c9.661.786 14.313-1.333 14.313-1.333.643-9.459-.499-36.07-12.723-36.099h-.027c-16.196.005-14.997 35.109-14.997 35.109z"/></clipPath><clipPath id="z5ins"><path d="M42.613 103.303s3.918 1.55 13.434 2.323c9.661.786 14.313-1.333 14.313-1.333.643-9.459-.499-36.07-12.723-36.099h-.027c-16.196.005-14.997 35.109-14.997 35.109z"/></clipPath><clipPath id="z5int"><path d="M42.613 103.303s3.918 1.55 13.434 2.323c9.661.786 14.313-1.333 14.313-1.333.643-9.459-.499-36.07-12.723-36.099h-.027c-16.196.005-14.997 35.109-14.997 35.109z"/></clipPath><clipPath id="z5inu"><path d="M42.613 103.303s3.918 1.55 13.434 2.323c9.661.786 14.313-1.333 14.313-1.333.643-9.459-.499-36.07-12.723-36.099h-.027c-16.196.005-14.997 35.109-14.997 35.109z"/></clipPath><clipPath id="z5inv"><path d="M42.613 103.303s3.918 1.55 13.434 2.323c9.661.786 14.313-1.333 14.313-1.333.643-9.459-.499-36.07-12.723-36.099h-.027c-16.196.005-14.997 35.109-14.997 35.109z"/></clipPath><clipPath id="z5inw"><path d="M42.613 103.303s3.918 1.55 13.434 2.323c9.661.786 14.313-1.333 14.313-1.333.643-9.459-.499-36.07-12.723-36.099h-.027c-16.196.005-14.997 35.109-14.997 35.109z"/></clipPath><clipPath id="z5inx"><path d="M42.613 103.303s3.918 1.55 13.434 2.323c9.661.786 14.313-1.333 14.313-1.333.643-9.459-.499-36.07-12.723-36.099h-.027c-16.196.005-14.997 35.109-14.997 35.109z"/></clipPath><clipPath id="z5iny"><path d="M42.613 103.303s3.918 1.55 13.434 2.323c9.661.786 14.313-1.333 14.313-1.333.643-9.459-.499-36.07-12.723-36.099h-.027c-16.196.005-14.997 35.109-14.997 35.109z"/></clipPath><clipPath id="z5inz"><path d="M42.613 103.303s3.918 1.55 13.434 2.323c9.661.786 14.313-1.333 14.313-1.333.643-9.459-.499-36.07-12.723-36.099h-.027c-16.196.005-14.997 35.109-14.997 35.109z"/></clipPath><clipPath id="z5inA"><path d="M42.613 103.303s3.918 1.55 13.434 2.323c9.661.786 14.313-1.333 14.313-1.333.643-9.459-.499-36.07-12.723-36.099h-.027c-16.196.005-14.997 35.109-14.997 35.109z"/></clipPath><clipPath id="z5inB"><path d="M42.613 103.303s3.918 1.55 13.434 2.323c9.661.786 14.313-1.333 14.313-1.333.643-9.459-.499-36.07-12.723-36.099h-.027c-16.196.005-14.997 35.109-14.997 35.109z"/></clipPath><clipPath id="z5inC"><path d="M42.613 103.303s3.918 1.55 13.434 2.323c9.661.786 14.313-1.333 14.313-1.333.643-9.459-.499-36.07-12.723-36.099h-.027c-16.196.005-14.997 35.109-14.997 35.109z"/></clipPath><clipPath id="z5inD"><path d="M42.613 103.303s3.918 1.55 13.434 2.323c9.661.786 14.313-1.333 14.313-1.333.643-9.459-.499-36.07-12.723-36.099h-.027c-16.196.005-14.997 35.109-14.997 35.109z"/></clipPath><clipPath id="z5inE"><path d="M42.613 103.303s3.918 1.55 13.434 2.323c9.661.786 14.313-1.333 14.313-1.333.643-9.459-.499-36.07-12.723-36.099h-.027c-16.196.005-14.997 35.109-14.997 35.109z"/></clipPath><clipPath id="z5inF"><path d="M42.613 103.303s3.918 1.55 13.434 2.323c9.661.786 14.313-1.333 14.313-1.333.643-9.459-.499-36.07-12.723-36.099h-.027c-16.196.005-14.997 35.109-14.997 35.109z"/></clipPath><clipPath id="z5inG"><path d="M42.613 103.303s3.918 1.55 13.434 2.323c9.661.786 14.313-1.333 14.313-1.333.643-9.459-.499-36.07-12.723-36.099h-.027c-16.196.005-14.997 35.109-14.997 35.109z"/></clipPath><clipPath id="z5inH"><path d="M42.613 103.303s3.918 1.55 13.434 2.323c9.661.786 14.313-1.333 14.313-1.333.643-9.459-.499-36.07-12.723-36.099h-.027c-16.196.005-14.997 35.109-14.997 35.109z"/></clipPath><clipPath id="z5inI"><path d="M42.613 103.303s3.918 1.55 13.434 2.323c9.661.786 14.313-1.333 14.313-1.333.643-9.459-.499-36.07-12.723-36.099h-.027c-16.196.005-14.997 35.109-14.997 35.109z"/></clipPath><clipPath id="z5inJ"><path d="M42.613 103.303s3.918 1.55 13.434 2.323c9.661.786 14.313-1.333 14.313-1.333.643-9.459-.499-36.07-12.723-36.099h-.027c-16.196.005-14.997 35.109-14.997 35.109z"/></clipPath><clipPath id="z5inK"><path d="M42.613 103.303s3.918 1.55 13.434 2.323c9.661.786 14.313-1.333 14.313-1.333.643-9.459-.499-36.07-12.723-36.099h-.027c-16.196.005-14.997 35.109-14.997 35.109z"/></clipPath><clipPath id="z5inL"><path d="M42.613 103.303s3.918 1.55 13.434 2.323c9.661.786 14.313-1.333 14.313-1.333.643-9.459-.499-36.07-12.723-36.099h-.027c-16.196.005-14.997 35.109-14.997 35.109z"/></clipPath><clipPath id="z5inM"><path d="M42.613 103.303s3.918 1.55 13.434 2.323c9.661.786 14.313-1.333 14.313-1.333.643-9.459-.499-36.07-12.723-36.099h-.027c-16.196.005-14.997 35.109-14.997 35.109z"/></clipPath><clipPath id="z5inN"><path d="M42.613 103.303s3.918 1.55 13.434 2.323c9.661.786 14.313-1.333 14.313-1.333.643-9.459-.499-36.07-12.723-36.099h-.027c-16.196.005-14.997 35.109-14.997 35.109z"/></clipPath><clipPath id="z5inO"><path d="M42.613 103.303s3.918 1.55 13.434 2.323c9.661.786 14.313-1.333 14.313-1.333.643-9.459-.499-36.07-12.723-36.099h-.027c-16.196.005-14.997 35.109-14.997 35.109z"/></clipPath><clipPath id="z5inP"><path d="M42.613 103.303s3.918 1.55 13.434 2.323c9.661.786 14.313-1.333 14.313-1.333.643-9.459-.499-36.07-12.723-36.099h-.027c-16.196.005-14.997 35.109-14.997 35.109z"/></clipPath><clipPath id="z5inQ"><path d="M42.613 103.303s3.918 1.55 13.434 2.323c9.661.786 14.313-1.333 14.313-1.333.643-9.459-.499-36.07-12.723-36.099h-.027c-16.196.005-14.997 35.109-14.997 35.109z"/></clipPath><clipPath id="z5inR"><path d="M42.613 103.303s3.918 1.55 13.434 2.323c9.661.786 14.313-1.333 14.313-1.333.643-9.459-.499-36.07-12.723-36.099h-.027c-16.196.005-14.997 35.109-14.997 35.109z"/></clipPath><clipPath id="z5inS"><path d="M42.613 103.303s3.918 1.55 13.434 2.323c9.661.786 14.313-1.333 14.313-1.333.643-9.459-.499-36.07-12.723-36.099h-.027c-16.196.005-14.997 35.109-14.997 35.109z"/></clipPath><clipPath id="z5inT"><path d="M42.613 103.303s3.918 1.55 13.434 2.323c9.661.786 14.313-1.333 14.313-1.333.643-9.459-.499-36.07-12.723-36.099h-.027c-16.196.005-14.997 35.109-14.997 35.109z"/></clipPath><clipPath id="z5inU"><path d="M42.613 103.303s3.918 1.55 13.434 2.323c9.661.786 14.313-1.333 14.313-1.333.643-9.459-.499-36.07-12.723-36.099h-.027c-16.196.005-14.997 35.109-14.997 35.109z"/></clipPath><clipPath id="z5inV"><path d="M42.613 103.303s3.918 1.55 13.434 2.323c9.661.786 14.313-1.333 14.313-1.333.643-9.459-.499-36.07-12.723-36.099h-.027c-16.196.005-14.997 35.109-14.997 35.109z"/></clipPath><clipPath id="z5inW"><path d="M42.613 103.303s3.918 1.55 13.434 2.323c9.661.786 14.313-1.333 14.313-1.333.643-9.459-.499-36.07-12.723-36.099h-.027c-16.196.005-14.997 35.109-14.997 35.109z"/></clipPath><clipPath id="z5inX"><path d="M42.613 103.303s3.918 1.55 13.434 2.323c9.661.786 14.313-1.333 14.313-1.333.643-9.459-.499-36.07-12.723-36.099h-.027c-16.196.005-14.997 35.109-14.997 35.109z"/></clipPath><clipPath id="z5inY"><path d="M42.613 103.303s3.918 1.55 13.434 2.323c9.661.786 14.313-1.333 14.313-1.333.643-9.459-.499-36.07-12.723-36.099h-.027c-16.196.005-14.997 35.109-14.997 35.109z"/></clipPath><clipPath id="z5inZ"><path d="M42.613 103.303s3.918 1.55 13.434 2.323c9.661.786 14.313-1.333 14.313-1.333.643-9.459-.499-36.07-12.723-36.099h-.027c-16.196.005-14.997 35.109-14.997 35.109z"/></clipPath><clipPath id="z5inaa"><path d="M42.613 103.303s3.918 1.55 13.434 2.323c9.661.786 14.313-1.333 14.313-1.333.643-9.459-.499-36.07-12.723-36.099h-.027c-16.196.005-14.997 35.109-14.997 35.109z"/></clipPath><clipPath id="z5inab"><path d="M42.613 103.303s3.918 1.55 13.434 2.323c9.661.786 14.313-1.333 14.313-1.333.643-9.459-.499-36.07-12.723-36.099h-.027c-16.196.005-14.997 35.109-14.997 35.109z"/></clipPath><clipPath id="z5inac"><path d="M42.613 103.303s3.918 1.55 13.434 2.323c9.661.786 14.313-1.333 14.313-1.333.643-9.459-.499-36.07-12.723-36.099h-.027c-16.196.005-14.997 35.109-14.997 35.109z"/></clipPath><clipPath id="z5inad"><path d="M42.613 103.303s3.918 1.55 13.434 2.323c9.661.786 14.313-1.333 14.313-1.333.643-9.459-.499-36.07-12.723-36.099h-.027c-16.196.005-14.997 35.109-14.997 35.109z"/></clipPath><clipPath id="z5inae"><path d="M42.613 103.303s3.918 1.55 13.434 2.323c9.661.786 14.313-1.333 14.313-1.333.643-9.459-.499-36.07-12.723-36.099h-.027c-16.196.005-14.997 35.109-14.997 35.109z"/></clipPath><clipPath id="z5inaf"><path d="M42.613 103.303s3.918 1.55 13.434 2.323c9.661.786 14.313-1.333 14.313-1.333.643-9.459-.499-36.07-12.723-36.099h-.027c-16.196.005-14.997 35.109-14.997 35.109z"/></clipPath><clipPath id="z5inag"><path d="M42.613 103.303s3.918 1.55 13.434 2.323c9.661.786 14.313-1.333 14.313-1.333.643-9.459-.499-36.07-12.723-36.099h-.027c-16.196.005-14.997 35.109-14.997 35.109z"/></clipPath><clipPath id="z5inah"><path d="M42.613 103.303s3.918 1.55 13.434 2.323c9.661.786 14.313-1.333 14.313-1.333.643-9.459-.499-36.07-12.723-36.099h-.027c-16.196.005-14.997 35.109-14.997 35.109z"/></clipPath><clipPath id="z5inai"><path d="M42.613 103.303s3.918 1.55 13.434 2.323c9.661.786 14.313-1.333 14.313-1.333.643-9.459-.499-36.07-12.723-36.099h-.027c-16.196.005-14.997 35.109-14.997 35.109z"/></clipPath><clipPath id="z5inaj"><path d="M42.613 103.303s3.918 1.55 13.434 2.323c9.661.786 14.313-1.333 14.313-1.333.643-9.459-.499-36.07-12.723-36.099h-.027c-16.196.005-14.997 35.109-14.997 35.109z"/></clipPath><clipPath id="z5inak"><path d="M42.613 103.303s3.918 1.55 13.434 2.323c9.661.786 14.313-1.333 14.313-1.333.643-9.459-.499-36.07-12.723-36.099h-.027c-16.196.005-14.997 35.109-14.997 35.109z"/></clipPath><clipPath id="z5inal"><path d="M42.613 103.303s3.918 1.55 13.434 2.323c9.661.786 14.313-1.333 14.313-1.333.643-9.459-.499-36.07-12.723-36.099h-.027c-16.196.005-14.997 35.109-14.997 35.109z"/></clipPath><clipPath id="z5inam"><path d="M42.613 103.303s3.918 1.55 13.434 2.323c9.661.786 14.313-1.333 14.313-1.333.643-9.459-.499-36.07-12.723-36.099h-.027c-16.196.005-14.997 35.109-14.997 35.109z"/></clipPath><clipPath id="z5inan"><path d="M42.613 103.303s3.918 1.55 13.434 2.323c9.661.786 14.313-1.333 14.313-1.333.643-9.459-.499-36.07-12.723-36.099h-.027c-16.196.005-14.997 35.109-14.997 35.109z"/></clipPath><clipPath id="z5inao"><path d="M42.613 103.303s3.918 1.55 13.434 2.323c9.661.786 14.313-1.333 14.313-1.333.643-9.459-.499-36.07-12.723-36.099h-.027c-16.196.005-14.997 35.109-14.997 35.109z"/></clipPath><clipPath id="z5inap"><path d="M42.613 103.303s3.918 1.55 13.434 2.323c9.661.786 14.313-1.333 14.313-1.333.643-9.459-.499-36.07-12.723-36.099h-.027c-16.196.005-14.997 35.109-14.997 35.109z"/></clipPath><clipPath id="z5inaq"><path d="M42.613 103.303s3.918 1.55 13.434 2.323c9.661.786 14.313-1.333 14.313-1.333.643-9.459-.499-36.07-12.723-36.099h-.027c-16.196.005-14.997 35.109-14.997 35.109z"/></clipPath><clipPath id="z5inar"><path d="M42.613 103.303s3.918 1.55 13.434 2.323c9.661.786 14.313-1.333 14.313-1.333.643-9.459-.499-36.07-12.723-36.099h-.027c-16.196.005-14.997 35.109-14.997 35.109z"/></clipPath><clipPath id="z5inas"><path d="M42.613 103.303s3.918 1.55 13.434 2.323c9.661.786 14.313-1.333 14.313-1.333.643-9.459-.499-36.07-12.723-36.099h-.027c-16.196.005-14.997 35.109-14.997 35.109z"/></clipPath><clipPath id="z5inat"><path d="M42.613 103.303s3.918 1.55 13.434 2.323c9.661.786 14.313-1.333 14.313-1.333.643-9.459-.499-36.07-12.723-36.099h-.027c-16.196.005-14.997 35.109-14.997 35.109z"/></clipPath><clipPath id="z5inau"><path d="M42.613 103.303s3.918 1.55 13.434 2.323c9.661.786 14.313-1.333 14.313-1.333.643-9.459-.499-36.07-12.723-36.099h-.027c-16.196.005-14.997 35.109-14.997 35.109z"/></clipPath><clipPath id="z5inav"><path d="M42.613 103.303s3.918 1.55 13.434 2.323c9.661.786 14.313-1.333 14.313-1.333.643-9.459-.499-36.07-12.723-36.099h-.027c-16.196.005-14.997 35.109-14.997 35.109z"/></clipPath><clipPath id="z5inaw"><path d="M42.613 103.303s3.918 1.55 13.434 2.323c9.661.786 14.313-1.333 14.313-1.333.643-9.459-.499-36.07-12.723-36.099h-.027c-16.196.005-14.997 35.109-14.997 35.109z"/></clipPath><clipPath id="z5inax"><path d="M42.613 103.303s3.918 1.55 13.434 2.323c9.661.786 14.313-1.333 14.313-1.333.643-9.459-.499-36.07-12.723-36.099h-.027c-16.196.005-14.997 35.109-14.997 35.109z"/></clipPath><clipPath id="z5inay"><path d="M42.613 103.303s3.918 1.55 13.434 2.323c9.661.786 14.313-1.333 14.313-1.333.643-9.459-.499-36.07-12.723-36.099h-.027c-16.196.005-14.997 35.109-14.997 35.109z"/></clipPath><clipPath id="z5inaz"><path d="M42.613 103.303s3.918 1.55 13.434 2.323c9.661.786 14.313-1.333 14.313-1.333.643-9.459-.499-36.07-12.723-36.099h-.027c-16.196.005-14.997 35.109-14.997 35.109z"/></clipPath><clipPath id="z5inaA"><path d="M42.613 103.303s3.918 1.55 13.434 2.323c9.661.786 14.313-1.333 14.313-1.333.643-9.459-.499-36.07-12.723-36.099h-.027c-16.196.005-14.997 35.109-14.997 35.109z"/></clipPath><clipPath id="z5inaB"><path d="M42.613 103.303s3.918 1.55 13.434 2.323c9.661.786 14.313-1.333 14.313-1.333.643-9.459-.499-36.07-12.723-36.099h-.027c-16.196.005-14.997 35.109-14.997 35.109z"/></clipPath></defs><g><g><path fill="#78de85" d="M137.185 157.882H19.868c-10.969 0-19.86-8.892-19.86-19.86V20.705C.007 9.736 8.898.845 19.867.845h117.317c10.968 0 19.86 8.891 19.86 19.86v117.317c0 10.968-8.891 19.86-19.86 19.86z"/></g><g><path fill="#f4bfa8" d="M109.086 105.185c-.442.775-.192 1.673 1.432 2.706 1.957 1.244 9.142-.42 7.114-3.656-.788-1.257-2.265-1.74-3.503-2.046-1.383.664-4.27 1.642-5.043 2.996z"/></g><g><path fill="#726754" d="M107.457 80.393C101.895 69.05 93.638 66.75 93.638 66.75l10.038 26.988 4.448 9.12c3.113-.89 5.561-2.225 5.561-2.225 0-7.784-5.784-19.572-6.228-20.239z"/></g><g><path fill="#726754" d="M69.445 72.76c-4.042 3.037-7.408 7.378-9.006 12.183-.912 2.743-.777 6.5 1.38 8.657 2 2 4.672 1.212 7.032.35 1.585-.576 2.888-1.548 3.938-2.863 2.164-2.714 3.207-6.372 4.36-9.594.98-2.74 2.617-6.445 1.668-9.401-1.448-4.508-6.667-1.287-8.964.369-.137.098-.272.198-.408.3z"/></g><g/><g clip-path="url(#z5ina)"><path fill="#bc5e4b" d="M92.552 69.036l-15.963.717c-.563.026-2.03 2.493-2.316 2.875-1.677 2.234-3.313 4.56-4.492 7.1-3.238 6.975-1.76 16.196 3.573 21.803 3.176 3.338 8.17 2.462 12.718 2.34 5.155-.14 11.194-.544 13.329-5.393 2.449-5.565 3.189-12.129 1.593-18.029-.801-2.962-4.303-11.599-8.442-11.413z"/></g><g/><g clip-path="url(#z5inb)"><path fill="#a54f41" d="M106.033 87.967c.42-.085.598.559.178.644a66.588 66.588 0 0 1-7.02 1.012c.272 1.918.485 3.844.66 5.769 1.734-.321 3.46-.684 5.181-1.087.42-.097.597.546.178.644-1.757.41-3.526.786-5.302 1.117.07.806.131 1.61.187 2.414 1.385-.283 2.755-.568 4.103-.838.42-.085.6.559.178.643-1.394.28-2.808.573-4.236.863.127 1.897.23 3.785.31 5.655.02.43-.649.428-.667 0-.08-1.825-.179-3.67-.302-5.522-.974.195-1.953.388-2.937.574.325 3.313.568 6.634.737 9.952.021.43-.646.428-.667 0a208.8 208.8 0 0 0-.727-9.83c-2.303.425-4.63.802-6.96 1.064.34 2.899.732 5.79 1.17 8.678.063.42-.58.6-.644.177a273.19 273.19 0 0 1-1.192-8.784c-1.32.136-2.64.233-3.958.28a91.25 91.25 0 0 0 2.29 11.162c.113.416-.53.592-.643.177a91.906 91.906 0 0 1-2.318-11.32 42.709 42.709 0 0 1-5.065-.174c.111 3.283.367 6.559.854 9.816.062.42-.58.602-.644.177-.498-3.337-.765-6.696-.88-10.061a32.959 32.959 0 0 1-4.333-.79 70.93 70.93 0 0 0 1.186 9.506c.082.42-.562.6-.644.177a73.08 73.08 0 0 1-1.233-9.872 28.472 28.472 0 0 1-3.617-1.271c-.395-.17-.055-.744.336-.576 1.07.46 2.153.843 3.25 1.16a75.401 75.401 0 0 1-.083-2.561c-1.819-.24-3.598-.688-5.172-1.693-.36-.231-.027-.808.336-.576 1.47.938 3.13 1.379 4.834 1.61a74.58 74.58 0 0 1 .342-7.471c-2.64-.553-5.084-1.58-6.747-3.624-.269-.33.2-.805.472-.471 1.581 1.942 3.95 2.852 6.351 3.34.041-.382.083-.767.13-1.15l.226-1.835c-2.724-.858-5.31-2.09-7.612-3.835-.338-.256-.006-.836.337-.576 2.217 1.682 4.721 2.888 7.358 3.74.322-2.533.712-5.182 1.36-7.731a32.144 32.144 0 0 1-4.47-1.404c-.396-.158-.224-.803.175-.644a31.747 31.747 0 0 0 4.466 1.4c.184-.67.384-1.33.61-1.98a32.248 32.248 0 0 1-4.332-1.48c-.394-.167-.053-.741.337-.575a31.245 31.245 0 0 0 4.217 1.439c.675-1.798 1.533-3.493 2.667-4.99.256-.338.836-.006.575.338-1.112 1.469-1.923 3.11-2.54 4.829.951.229 1.911.417 2.877.565.398-1.511.911-2.984 1.59-4.397.186-.387.761-.05.576.337a23.786 23.786 0 0 0-1.512 4.153c1.295.174 2.6.278 3.91.318a69.615 69.615 0 0 1 1.163-5.062c.111-.415.755-.238.642.178a70.225 70.225 0 0 0-1.128 4.899c.71.01 1.422.002 2.134-.024.072-1.587.256-3.163.687-4.72.114-.413.758-.237.643.178-.414 1.494-.586 2.999-.653 4.513a46.975 46.975 0 0 0 3.74-.343 126.154 126.154 0 0 0-1.562-5.337c-.13-.412.514-.586.643-.178a125.834 125.834 0 0 1 1.585 5.424 53.43 53.43 0 0 0 2.39-.405 44.652 44.652 0 0 0-2.415-4.928c-.215-.375.362-.711.575-.337a45.299 45.299 0 0 1 2.507 5.132 58.409 58.409 0 0 0 6.125-1.616c.41-.132.585.513.177.644a58.725 58.725 0 0 1-6.048 1.6c.242.608.473 1.22.691 1.837 1.748-.274 3.48-.586 5.18-.911.42-.081.6.562.177.643-1.69.324-3.408.633-5.142.908.936 2.742 1.653 5.565 2.213 8.429a56.64 56.64 0 0 0 5.921-1.473c.412-.127.587.517.177.643a58.833 58.833 0 0 1-5.972 1.496c.197 1.06.368 2.128.526 3.198a65.06 65.06 0 0 0 6.937-1zm-7.598 1.054a86.471 86.471 0 0 0-.516-3.13c-1.06.196-2.125.365-3.196.503.166.942.324 1.885.473 2.829a79.612 79.612 0 0 0 3.24-.202zm-3.807.893a105.13 105.13 0 0 1-6.715.02c.143 2.292.333 4.578.556 6.862a87.089 87.089 0 0 0 6.998-.692 176.218 176.218 0 0 0-.839-6.19zm-6.757-.653c2.22.06 4.44.064 6.655-.012-.147-.926-.302-1.851-.466-2.775a59.793 59.793 0 0 1-6.307.41c.032.793.072 1.585.118 2.377zm9.923-4.04c-.562-2.87-1.285-5.697-2.229-8.443-.92.14-1.845.269-2.772.384.69 2.83 1.29 5.683 1.81 8.55a60.418 60.418 0 0 0 3.191-.49zm-3.132-10.89c-.822.16-1.649.302-2.479.423.155.585.302 1.17.45 1.758a96.901 96.901 0 0 0 2.715-.374 50.427 50.427 0 0 0-.686-1.807zm-2.536 2.91c-1.512.175-3.029.31-4.546.39.008.696.02 1.393.023 2.092.011 2.16.048 4.319.126 6.476a62.925 62.925 0 0 0 6.21-.405 145.671 145.671 0 0 0-1.813-8.553zm-4.54-2.038a54.297 54.297 0 0 0-.01 1.76 71.73 71.73 0 0 0 4.388-.373c-.146-.582-.293-1.164-.447-1.746a47.55 47.55 0 0 1-3.93.359zm.211 21.63c-.226-2.303-.416-4.61-.553-6.92-1.269-.042-2.537-.1-3.804-.174.014 2.394.132 4.79.345 7.174.51.008 1.017.012 1.527.003.83-.014 1.658-.042 2.485-.083zm-.62-8.022c-.034-.64-.057-1.28-.08-1.92a56.988 56.988 0 0 1-3.624-.111 83.3 83.3 0 0 0-.033 2.292l.167.008c1.197.067 2.397.12 3.596.159-.008-.143-.019-.285-.026-.428zM84.673 75.25a71.197 71.197 0 0 0-.299 1.792c.84.003 1.68-.012 2.521-.047a51.831 51.831 0 0 1 .013-1.764 43.84 43.84 0 0 1-2.235.019zm-.406 2.46a77.185 77.185 0 0 0-.77 8.413 54.25 54.25 0 0 0 3.572.082c-.08-2.538-.102-5.075-.15-7.616-.006-.31-.009-.617-.014-.926-.88.036-1.76.052-2.638.047zm-4.227-2.812a32.877 32.877 0 0 0-.402 1.886c1.346.146 2.702.227 4.062.25.095-.601.19-1.204.3-1.803a39.061 39.061 0 0 1-3.96-.333zm3.554 2.804a45.224 45.224 0 0 1-4.07-.255c-.445 2.69-.61 5.46-.719 8.186 1.337.213 2.685.362 4.026.453.107-2.811.355-5.613.763-8.384zm-1.853 11.93c-.966-.065-2.003-.111-3.072-.174l-.016.433a187.307 187.307 0 0 0-.155 6.787c1.54.089 3.076.184 4.617.224a87.076 87.076 0 0 1-.343-7.204c-.344-.021-.687-.042-1.03-.065zm-3.047-.868c1.36.112 2.722.194 4.08.27.001-.767.01-1.534.032-2.3a49.02 49.02 0 0 1-4.025-.456l-.087 2.486zm-2.229-14.541a30.244 30.244 0 0 0-.567 1.966 36.92 36.92 0 0 0 3.103.522c.115-.64.246-1.277.396-1.907a34.923 34.923 0 0 1-2.932-.581zm-.8 2.939a100.006 100.006 0 0 0-1.393 7.45c1.276.38 2.578.68 3.894.912.118-2.714.285-5.466.72-8.151a37.611 37.611 0 0 1-3.146-.531c-.025.106-.052.213-.075.32zM73.9 87.544c-.022.213-.042.426-.062.639.15.027.3.052.45.076 1.241.193 2.493.335 3.748.449.035-.84.068-1.683.102-2.534a36.185 36.185 0 0 1-3.957-.911c-.104.76-.2 1.52-.28 2.28zm-.138 1.396a79.855 79.855 0 0 0-.32 7.426c.972.103 1.95.152 2.91.196.493.023.985.05 1.476.077.007-2.408.074-4.817.18-7.222-1.403-.093-2.844-.226-4.246-.477zm-.23 10.754a31.72 31.72 0 0 0 4.346.819 119.31 119.31 0 0 1-.05-3.166c-.989-.061-1.979-.128-2.966-.2a42.182 42.182 0 0 1-1.415-.122c.012.89.042 1.78.085 2.669zm5.016.89c1.654.166 3.324.22 5.002.185a92.382 92.382 0 0 1-.37-3.195c-1.56-.028-3.122-.096-4.68-.186.002 1.066.017 2.132.048 3.196zm5.672.164a58.125 58.125 0 0 0 3.965-.28c-.113-.985-.22-1.97-.322-2.957a68.491 68.491 0 0 1-3.173.077c-.279 0-.559-.003-.839-.006a92.91 92.91 0 0 0 .37 3.166zm4.632-.353c2.333-.265 4.663-.645 6.967-1.074-.087-.847-.173-1.694-.27-2.54-2.328.33-4.667.57-7.012.699.098.972.204 1.944.315 2.915zm10.586-1.782c-.056-.808-.117-1.617-.186-2.427-1.012.182-2.027.35-3.044.502.095.836.181 1.673.266 2.51.994-.19 1.983-.386 2.964-.585zm-.243-3.102c-.175-1.944-.39-3.89-.663-5.826a81.21 81.21 0 0 1-3.234.204c.314 2.035.586 4.076.83 6.12a97.366 97.366 0 0 0 3.067-.498z"/></g><g><path fill="#535656" d="M97.248 99.205s-14.924 2.317-22.709.76l.668 4.226s13.789 1.335 22.464-1.556z"/></g><g><path fill="#897e68" d="M79.767 70.273c0 .5-6.173 17.849-3.504 35.197 0 .5-8.173-1.335-8.173-1.335s-5.172-23.687 8.173-35.196z"/></g><g><path fill="#897e68" d="M91.2 69.241c.021.5 6.97 17.552 5.085 35.003.023.5 8.105-1.702 8.105-1.702s3.098-24.896-10.753-35.793z"/></g><g><path fill="#e5a189" d="M97.3 53.51c-.371-1.108-.775-2.25-2.238-1.857-.844.227-1.957 1.205-1.865 2.177l.023 6.476c1.318-.054 2.565-2.05 3.223-2.997.783-1.128 1.274-2.55.857-3.8z"/></g><g><path fill="#e5a189" d="M72.098 55.343c-2-.724-4.98.397-4.463 2.912.446 2.181 2.708 4.011 4.54 5.106a12.471 12.471 0 0 0-.14-.168z"/></g><g><path fill="#f4bfa8" d="M82.267 43.501c-12.256.07-14.942 17.262-6.832 24.935 4.81 4.55 15.435 3.024 18.138-2.968 3.515-7.794-1.15-22.025-11.306-21.967z"/></g><g><path fill="#3c3f3f" d="M86.078 55.822c.102 1.222.778 2.164 1.512 2.102.735-.06 1.247-1.1 1.145-2.323-.1-1.223-.779-2.165-1.512-2.104-.734.062-1.247 1.101-1.145 2.325z"/></g><g><path fill="#3c3f3f" d="M76.156 57.633c.308 1.188 1.134 2.001 1.846 1.817.713-.183 1.043-1.296.736-2.483-.308-1.188-1.133-2.002-1.847-1.818-.712.184-1.042 1.296-.735 2.484z"/></g><g><path fill="#d7e2e2" d="M93.972 53.027c-.307 7.61-5.364 7.904-6.198 7.904-.835 0-2.67.334-4.671.334-2.002 0-2.002-.167-4.838 1.001-2.836 1.167-7.173-2.169-7.173-2.169s-2.296 13.411 14.513 11.01c17.514-2.502 8.367-18.08 8.367-18.08z"/></g><g><path fill="#e5a189" d="M81.88 60.647c.04-1.171 1.102-2.385.519-3.548-.184-.37.414-.592.595-.23.42.839.114 1.775-.164 2.607-.138.416-.336.865-.312 1.313.033.625 1.526.258 1.85.199.406-.072.465.563.062.636-.892.16-2.596.4-2.55-.977z"/></g><g><path fill="#db6852" d="M81.673 64.131c1.41.967 3.6 1.031 4.482-.663.157-.298.63-.078.474.221-1.045 2.011-3.594 2.005-5.291.841-.277-.189.06-.588.335-.399z"/></g><g><path fill="#cfd1d1" d="M70.536 55.038s4.448-5.338 4.448-8.452c0 0-5.338-1.78-4.448 8.452z"/></g><g><path fill="#cfd1d1" d="M93.972 53.027s-5.144-4.67-5.575-7.754c0 0 5.04-2.5 5.575 7.754z"/></g><g><path fill="#cfd1d1" d="M89.333 51.904c-1.087-.502-2.246-.557-3.405-.29-.839.194-.484 1.48.354 1.287.784-.181 1.634-.188 2.377.155.777.359 1.454-.791.674-1.152z"/></g><g><path fill="#cfd1d1" d="M74.27 54.273c.816-.878 1.867-1.369 3.042-1.562.848-.138 1.007 1.187.16 1.327-.795.13-1.585.445-2.14 1.046-.583.625-1.647-.182-1.062-.812z"/></g><g><path fill="#726754" d="M67.518 100.488c.27 2.26.572 3.647.572 3.647s8.173 1.835 8.173 1.335a56.113 56.113 0 0 1-.46-3.941c-2.794-.153-5.571-.445-8.285-1.041z"/></g><g><path fill="#726754" d="M96.581 99.872a56.336 56.336 0 0 1-.296 4.372c.024.5 8.106-1.702 8.106-1.702s.276-1.616.443-4.198c-2.7.75-5.457 1.26-8.253 1.528z"/></g><g><path fill="#4f463a" d="M95.446 73.943a1 1 0 1 1-2.001 0 1 1 0 0 1 2.001 0z"/></g><g><path fill="#4f463a" d="M97.448 79.948a1 1 0 1 1-2.001 0 1 1 0 0 1 2.001 0z"/></g><g><path fill="#4f463a" d="M98.782 85.286a1 1 0 1 1-2.001-.001 1 1 0 0 1 2.001.001z"/></g><g><path fill="#4f463a" d="M99.45 90.29a1 1 0 1 1-2.002 0 1 1 0 1 1 2.001 0z"/></g><g><path fill="#4f463a" d="M99.783 95.628a1 1 0 1 1-2.001 0 1 1 0 0 1 2.001 0z"/></g><g><path fill="#845f4f" d="M100.18 45.399a.582.582 0 0 1-.497.653l-34.51 4.66a.58.58 0 1 1-.154-1.148L99.528 44.9c.317-.043.61.18.653.498z"/></g><g><path fill="#664330" d="M71.009 48.838l21.102-2.836s-.334-12.01-12.344-10.342c-11.862 1.648-8.758 13.178-8.758 13.178z"/></g><g><path fill="#3c3f3f" d="M70.65 46.09c.052 1.61.358 2.748.358 2.748l21.102-2.836s-.039-1.407-.572-3.19c-2.652.45-19.836 3.207-20.889 3.277z"/></g><g><path fill="#513427" d="M44.202 70.318s-11.065 19.85-.723 24.187l7.173-22.019z"/></g><g><path fill="#cfd1d1" d="M60.34 42.214c-1.851-1.337-2.392-3.572-.374-5.182 1.948-1.555 4.565-1.49 6.832-.71 1.688.58 3.305 2.554 3.359 4.345.08 2.596-3.021 3.126-5.07 3.014-1.462-.08-2.855-.388-4.151-1.092a5.47 5.47 0 0 1-.596-.375z"/></g><g><path fill="#e5a189" d="M46.537 54.082c-.11 1.891 2.447 3.892 2.447 3.892l.445-5.783s-2.78 0-2.892 1.891z"/></g><g><path fill="#e5a189" d="M72.694 60.619c-.518 1.82-3.592 2.87-3.592 2.87l1.484-5.607s2.626.915 2.108 2.737z"/></g><g><path fill="#965e38" d="M57.63 68.194c12.224.038 13.39 26.658 12.755 36.12 0 0-4.65 2.115-14.312 1.323-9.515-.78-13.436-2.334-13.436-2.334S41.4 68.144 57.63 68.194z"/></g><g><path fill="#f4bfa8" d="M58.809 43.038c11.32-1.002 15.836 15.192 9.016 22.982-4.048 4.62-14.53 3.582-17.546-1.715-3.924-6.891-.854-20.436 8.53-21.267z"/></g><g><path fill="#d7e2e2" d="M49.17 52.503s14.213 2.374 19.08-3.528c0 0 .337 6.923 2.753 9.888 0 0 9.842-14.9-6.971-18.556C46.12 36.413 49.17 52.503 49.17 52.503z"/></g><g><path fill="#3c3f3f" d="M56.078 55.824c.012 1.137-.53 2.065-1.215 2.073-.68.008-1.246-.908-1.259-2.047-.01-1.137.532-2.066 1.215-2.073.681-.008 1.245.91 1.26 2.047z"/></g><g><path fill="#3c3f3f" d="M65.91 58.084c-.46 1.04-1.34 1.66-1.964 1.383-.625-.275-.758-1.343-.298-2.383.462-1.042 1.341-1.66 1.965-1.385.623.277.757 1.345.296 2.386z"/></g><g><path fill="#cbd1d1" d="M67.993 54.058c-.703-1.109-1.816-1.508-3.092-1.329-.376.054-.218.958.156.905 1-.14 1.875.188 2.424 1.055.203.321.717-.307.512-.63z"/></g><g><path fill="#e5a189" d="M60.84 60.742c-.14-1.08-1.225-2.107-.787-3.232.139-.356-.435-.511-.57-.16-.316.81.05 1.649.379 2.393.164.372.385.77.402 1.185.024.58-1.387.37-1.692.345-.38-.033-.378.56-.003.592.839.07 2.433.145 2.27-1.123z"/></g><g opacity=".5"><g opacity=".5"><path fill="#db6852" d="M53.999 59.745c.795.819 1.04 2.417.062 3.186-2.238 1.76-5.149-2.165-2.968-3.78.842-.622 2.256-.077 2.906.594z"/></g></g><g opacity=".5"><g opacity=".5"><path fill="#db6852" d="M64.167 61.803c-.927.532-1.561 1.908-.879 2.854 1.562 2.165 5.197-.62 3.65-2.637-.597-.778-2.011-.654-2.771-.217z"/></g></g><g><path fill="#513427" d="M70.76 74.229s5.247 15.272-1.258 22.612l-5.338-22.853z"/></g><g><path fill="#664330" d="M72.233 91.25c.604-2.608.622-5.429.383-8.01-1.289 1.055-4.093 4.066-.383 8.01z"/></g><g><path fill="#f4562c" d="M64.664 54.194A3.34 3.34 0 0 1 68 57.53a3.34 3.34 0 0 1-3.336 3.336 3.34 3.34 0 0 1-3.32-3.647.346.346 0 0 1-.08-.077c-.724-.942-2.057-.984-3.043-.467a3.34 3.34 0 0 1-3.232 2.523 3.34 3.34 0 0 1-3.336-3.336 3.34 3.34 0 0 1 3.336-3.336 3.34 3.34 0 0 1 3.336 3.336l-.002.038c1.098-.406 2.33-.25 3.188.549a3.34 3.34 0 0 1 3.153-2.255zm-9.675 4.424a2.759 2.759 0 0 0 2.684-2.14.29.29 0 0 1 .047-.26 2.759 2.759 0 0 0-2.731-3.113 2.76 2.76 0 0 0-2.756 2.757 2.76 2.76 0 0 0 2.756 2.756zm9.675 1.668a2.759 2.759 0 0 0 2.756-2.756 2.759 2.759 0 0 0-2.756-2.756 2.759 2.759 0 0 0-2.756 2.756 2.759 2.759 0 0 0 2.756 2.756z"/></g><g/><g/><g clip-path="url(#z5inc)"><path fill="#825333" d="M45.815 73.959c0 .284-.3.515-.667.515-.369 0-.668-.231-.668-.515 0-.285.3-.516.668-.516.367 0 .666.231.666.516z"/></g><g/><g clip-path="url(#z5ind)"><path fill="#825333" d="M50.485 73.959c0 .284-.299.515-.667.515-.368 0-.667-.231-.667-.515 0-.285.3-.516.667-.516.368 0 .667.231.667.516z"/></g><g/><g clip-path="url(#z5ine)"><path fill="#825333" d="M55.156 73.959c0 .284-.299.515-.667.515-.369 0-.668-.231-.668-.515 0-.285.3-.516.668-.516.368 0 .667.231.667.516z"/></g><g/><g clip-path="url(#z5inf)"><path fill="#825333" d="M59.827 73.959c0 .284-.299.515-.668.515-.368 0-.667-.231-.667-.515 0-.285.3-.516.667-.516.37 0 .668.231.668.516z"/></g><g/><g clip-path="url(#z5ing)"><path fill="#825333" d="M64.497 73.959c0 .284-.299.515-.667.515-.368 0-.667-.231-.667-.515 0-.285.3-.516.667-.516.368 0 .667.231.667.516z"/></g><g/><g clip-path="url(#z5inh)"><path fill="#825333" d="M69.168 73.959c0 .284-.299.515-.667.515-.368 0-.667-.231-.667-.515 0-.285.299-.516.667-.516.368 0 .667.231.667.516z"/></g><g/><g/><g clip-path="url(#z5ini)"><path fill="#825333" d="M43.48 76.536c0 .285-.3.516-.667.516-.37 0-.669-.23-.669-.516 0-.285.3-.516.669-.516.367 0 .666.231.666.516z"/></g><g/><g clip-path="url(#z5inj)"><path fill="#825333" d="M48.15 76.536c0 .285-.299.516-.668.516-.368 0-.667-.23-.667-.516 0-.285.3-.516.667-.516.37 0 .668.231.668.516z"/></g><g/><g clip-path="url(#z5ink)"><path fill="#825333" d="M52.82 76.536c0 .285-.298.516-.667.516-.368 0-.667-.23-.667-.516 0-.285.3-.516.667-.516.37 0 .667.231.667.516z"/></g><g/><g clip-path="url(#z5inl)"><path fill="#825333" d="M57.491 76.536c0 .285-.299.516-.667.516-.368 0-.667-.23-.667-.516 0-.285.3-.516.667-.516.368 0 .667.231.667.516z"/></g><g/><g clip-path="url(#z5inm)"><path fill="#825333" d="M62.162 76.536c0 .285-.299.516-.667.516-.369 0-.668-.23-.668-.516 0-.285.3-.516.668-.516.368 0 .667.231.667.516z"/></g><g/><g clip-path="url(#z5inn)"><path fill="#825333" d="M66.833 76.536c0 .285-.299.516-.668.516-.368 0-.667-.23-.667-.516 0-.285.299-.516.667-.516.369 0 .668.231.668.516z"/></g><g/><g clip-path="url(#z5ino)"><path fill="#825333" d="M71.504 76.536c0 .285-.3.516-.668.516-.368 0-.667-.23-.667-.516 0-.285.299-.516.667-.516.369 0 .668.231.668.516z"/></g><g/><g/><g clip-path="url(#z5inp)"><path fill="#825333" d="M45.815 79.629c0 .285-.3.516-.667.516-.369 0-.668-.231-.668-.516 0-.285.3-.516.668-.516.367 0 .666.23.666.516z"/></g><g/><g clip-path="url(#z5inq)"><path fill="#825333" d="M50.485 79.629c0 .285-.299.516-.667.516-.368 0-.667-.231-.667-.516 0-.285.3-.516.667-.516.368 0 .667.23.667.516z"/></g><g/><g clip-path="url(#z5inr)"><path fill="#825333" d="M55.156 79.629c0 .285-.299.516-.667.516-.369 0-.668-.231-.668-.516 0-.285.3-.516.668-.516.368 0 .667.23.667.516z"/></g><g/><g clip-path="url(#z5ins)"><path fill="#825333" d="M59.827 79.629c0 .285-.299.516-.668.516-.368 0-.667-.231-.667-.516 0-.285.3-.516.667-.516.37 0 .668.23.668.516z"/></g><g/><g clip-path="url(#z5int)"><path fill="#825333" d="M64.497 79.629c0 .285-.299.516-.667.516-.368 0-.667-.231-.667-.516 0-.285.3-.516.667-.516.368 0 .667.23.667.516z"/></g><g/><g clip-path="url(#z5inu)"><path fill="#825333" d="M69.168 79.629c0 .285-.299.516-.667.516-.368 0-.667-.231-.667-.516 0-.285.299-.516.667-.516.368 0 .667.23.667.516z"/></g><g/><g/><g clip-path="url(#z5inv)"><path fill="#825333" d="M43.48 82.206c0 .285-.3.516-.667.516-.37 0-.669-.23-.669-.516 0-.285.3-.515.669-.515.367 0 .666.23.666.515z"/></g><g/><g clip-path="url(#z5inw)"><path fill="#825333" d="M48.15 82.206c0 .285-.299.516-.668.516-.368 0-.667-.23-.667-.516 0-.285.3-.515.667-.515.37 0 .668.23.668.515z"/></g><g/><g clip-path="url(#z5inx)"><path fill="#825333" d="M52.82 82.206c0 .285-.298.516-.667.516-.368 0-.667-.23-.667-.516 0-.285.3-.515.667-.515.37 0 .667.23.667.515z"/></g><g/><g clip-path="url(#z5iny)"><path fill="#825333" d="M57.491 82.206c0 .285-.299.516-.667.516-.368 0-.667-.23-.667-.516 0-.285.3-.515.667-.515.368 0 .667.23.667.515z"/></g><g/><g clip-path="url(#z5inz)"><path fill="#825333" d="M62.162 82.206c0 .285-.299.516-.667.516-.369 0-.668-.23-.668-.516 0-.285.3-.515.668-.515.368 0 .667.23.667.515z"/></g><g/><g clip-path="url(#z5inA)"><path fill="#825333" d="M66.833 82.206c0 .285-.299.516-.668.516-.368 0-.667-.23-.667-.516 0-.285.299-.515.667-.515.369 0 .668.23.668.515z"/></g><g/><g clip-path="url(#z5inB)"><path fill="#825333" d="M71.504 82.206c0 .285-.3.516-.668.516-.368 0-.667-.23-.667-.516 0-.285.299-.515.667-.515.369 0 .668.23.668.515z"/></g><g/><g/><g clip-path="url(#z5inC)"><path fill="#825333" d="M45.815 85.299c0 .285-.3.516-.667.516-.369 0-.668-.231-.668-.516 0-.285.3-.516.668-.516.367 0 .666.23.666.516z"/></g><g/><g clip-path="url(#z5inD)"><path fill="#825333" d="M50.485 85.299c0 .285-.299.516-.667.516-.368 0-.667-.231-.667-.516 0-.285.3-.516.667-.516.368 0 .667.23.667.516z"/></g><g/><g clip-path="url(#z5inE)"><path fill="#825333" d="M55.156 85.299c0 .285-.299.516-.667.516-.369 0-.668-.231-.668-.516 0-.285.3-.516.668-.516.368 0 .667.23.667.516z"/></g><g/><g clip-path="url(#z5inF)"><path fill="#825333" d="M59.827 85.299c0 .285-.299.516-.668.516-.368 0-.667-.231-.667-.516 0-.285.3-.516.667-.516.37 0 .668.23.668.516z"/></g><g/><g clip-path="url(#z5inG)"><path fill="#825333" d="M64.497 85.299c0 .285-.299.516-.667.516-.368 0-.667-.231-.667-.516 0-.285.3-.516.667-.516.368 0 .667.23.667.516z"/></g><g/><g clip-path="url(#z5inH)"><path fill="#825333" d="M69.168 85.299c0 .285-.299.516-.667.516-.368 0-.667-.231-.667-.516 0-.285.299-.516.667-.516.368 0 .667.23.667.516z"/></g><g/><g/><g clip-path="url(#z5inI)"><path fill="#825333" d="M43.48 87.876c0 .285-.3.516-.667.516-.37 0-.669-.231-.669-.516 0-.285.3-.515.669-.515.367 0 .666.23.666.515z"/></g><g/><g clip-path="url(#z5inJ)"><path fill="#825333" d="M48.15 87.876c0 .285-.299.516-.668.516-.368 0-.667-.231-.667-.516 0-.285.3-.515.667-.515.37 0 .668.23.668.515z"/></g><g/><g clip-path="url(#z5inK)"><path fill="#825333" d="M52.82 87.876c0 .285-.298.516-.667.516-.368 0-.667-.231-.667-.516 0-.285.3-.515.667-.515.37 0 .667.23.667.515z"/></g><g/><g clip-path="url(#z5inL)"><path fill="#825333" d="M57.491 87.876c0 .285-.299.516-.667.516-.368 0-.667-.231-.667-.516 0-.285.3-.515.667-.515.368 0 .667.23.667.515z"/></g><g/><g clip-path="url(#z5inM)"><path fill="#825333" d="M62.162 87.876c0 .285-.299.516-.667.516-.369 0-.668-.231-.668-.516 0-.285.3-.515.668-.515.368 0 .667.23.667.515z"/></g><g/><g clip-path="url(#z5inN)"><path fill="#825333" d="M66.833 87.876c0 .285-.299.516-.668.516-.368 0-.667-.231-.667-.516 0-.285.299-.515.667-.515.369 0 .668.23.668.515z"/></g><g/><g clip-path="url(#z5inO)"><path fill="#825333" d="M71.504 87.876c0 .285-.3.516-.668.516-.368 0-.667-.231-.667-.516 0-.285.299-.515.667-.515.369 0 .668.23.668.515z"/></g><g/><g/><g clip-path="url(#z5inP)"><path fill="#825333" d="M45.815 90.969c0 .285-.3.516-.667.516-.369 0-.668-.231-.668-.516 0-.285.3-.515.668-.515.367 0 .666.23.666.515z"/></g><g/><g clip-path="url(#z5inQ)"><path fill="#825333" d="M50.485 90.969c0 .285-.299.516-.667.516-.368 0-.667-.231-.667-.516 0-.285.3-.515.667-.515.368 0 .667.23.667.515z"/></g><g/><g clip-path="url(#z5inR)"><path fill="#825333" d="M55.156 90.969c0 .285-.299.516-.667.516-.369 0-.668-.231-.668-.516 0-.285.3-.515.668-.515.368 0 .667.23.667.515z"/></g><g/><g clip-path="url(#z5inS)"><path fill="#825333" d="M59.827 90.969c0 .285-.299.516-.668.516-.368 0-.667-.231-.667-.516 0-.285.3-.515.667-.515.37 0 .668.23.668.515z"/></g><g/><g clip-path="url(#z5inT)"><path fill="#825333" d="M64.497 90.969c0 .285-.299.516-.667.516-.368 0-.667-.231-.667-.516 0-.285.3-.515.667-.515.368 0 .667.23.667.515z"/></g><g/><g clip-path="url(#z5inU)"><path fill="#825333" d="M69.168 90.969c0 .285-.299.516-.667.516-.368 0-.667-.231-.667-.516 0-.285.299-.515.667-.515.368 0 .667.23.667.515z"/></g><g/><g/><g clip-path="url(#z5inV)"><path fill="#825333" d="M43.48 93.546c0 .284-.3.515-.667.515-.37 0-.669-.23-.669-.515 0-.285.3-.516.669-.516.367 0 .666.231.666.516z"/></g><g/><g clip-path="url(#z5inW)"><path fill="#825333" d="M48.15 93.546c0 .284-.299.515-.668.515-.368 0-.667-.23-.667-.515 0-.285.3-.516.667-.516.37 0 .668.231.668.516z"/></g><g/><g clip-path="url(#z5inX)"><path fill="#825333" d="M52.82 93.546c0 .284-.298.515-.667.515-.368 0-.667-.23-.667-.515 0-.285.3-.516.667-.516.37 0 .667.231.667.516z"/></g><g/><g clip-path="url(#z5inY)"><path fill="#825333" d="M57.491 93.546c0 .284-.299.515-.667.515-.368 0-.667-.23-.667-.515 0-.285.3-.516.667-.516.368 0 .667.231.667.516z"/></g><g/><g clip-path="url(#z5inZ)"><path fill="#825333" d="M62.162 93.546c0 .284-.299.515-.667.515-.369 0-.668-.23-.668-.515 0-.285.3-.516.668-.516.368 0 .667.231.667.516z"/></g><g/><g clip-path="url(#z5inaa)"><path fill="#825333" d="M66.833 93.546c0 .284-.299.515-.668.515-.368 0-.667-.23-.667-.515 0-.285.299-.516.667-.516.369 0 .668.231.668.516z"/></g><g/><g clip-path="url(#z5inab)"><path fill="#825333" d="M71.504 93.546c0 .284-.3.515-.668.515-.368 0-.667-.23-.667-.515 0-.285.299-.516.667-.516.369 0 .668.231.668.516z"/></g><g/><g/><g clip-path="url(#z5inac)"><path fill="#825333" d="M45.815 96.64c0 .283-.3.514-.667.514-.369 0-.668-.23-.668-.515 0-.285.3-.516.668-.516.367 0 .666.231.666.516z"/></g><g/><g clip-path="url(#z5inad)"><path fill="#825333" d="M50.485 96.64c0 .283-.299.514-.667.514-.368 0-.667-.23-.667-.515 0-.285.3-.516.667-.516.368 0 .667.231.667.516z"/></g><g/><g clip-path="url(#z5inae)"><path fill="#825333" d="M55.156 96.64c0 .283-.299.514-.667.514-.369 0-.668-.23-.668-.515 0-.285.3-.516.668-.516.368 0 .667.231.667.516z"/></g><g/><g clip-path="url(#z5inaf)"><path fill="#825333" d="M59.827 96.64c0 .283-.299.514-.668.514-.368 0-.667-.23-.667-.515 0-.285.3-.516.667-.516.37 0 .668.231.668.516z"/></g><g/><g clip-path="url(#z5inag)"><path fill="#825333" d="M64.497 96.64c0 .283-.299.514-.667.514-.368 0-.667-.23-.667-.515 0-.285.3-.516.667-.516.368 0 .667.231.667.516z"/></g><g/><g clip-path="url(#z5inah)"><path fill="#825333" d="M69.168 96.64c0 .283-.299.514-.667.514-.368 0-.667-.23-.667-.515 0-.285.299-.516.667-.516.368 0 .667.231.667.516z"/></g><g/><g/><g clip-path="url(#z5inai)"><path fill="#825333" d="M43.48 99.216c0 .285-.3.515-.667.515-.37 0-.669-.23-.669-.515 0-.285.3-.516.669-.516.367 0 .666.231.666.516z"/></g><g/><g clip-path="url(#z5inaj)"><path fill="#825333" d="M48.15 99.216c0 .285-.299.515-.668.515-.368 0-.667-.23-.667-.515 0-.285.3-.516.667-.516.37 0 .668.231.668.516z"/></g><g/><g clip-path="url(#z5inak)"><path fill="#825333" d="M52.82 99.216c0 .285-.298.515-.667.515-.368 0-.667-.23-.667-.515 0-.285.3-.516.667-.516.37 0 .667.231.667.516z"/></g><g/><g clip-path="url(#z5inal)"><path fill="#825333" d="M57.491 99.216c0 .285-.299.515-.667.515-.368 0-.667-.23-.667-.515 0-.285.3-.516.667-.516.368 0 .667.231.667.516z"/></g><g/><g clip-path="url(#z5inam)"><path fill="#825333" d="M62.162 99.216c0 .285-.299.515-.667.515-.369 0-.668-.23-.668-.515 0-.285.3-.516.668-.516.368 0 .667.231.667.516z"/></g><g/><g clip-path="url(#z5inan)"><path fill="#825333" d="M66.833 99.216c0 .285-.299.515-.668.515-.368 0-.667-.23-.667-.515 0-.285.299-.516.667-.516.369 0 .668.231.668.516z"/></g><g/><g clip-path="url(#z5inao)"><path fill="#825333" d="M71.504 99.216c0 .285-.3.515-.668.515-.368 0-.667-.23-.667-.515 0-.285.299-.516.667-.516.369 0 .668.231.668.516z"/></g><g/><g/><g clip-path="url(#z5inap)"><path fill="#825333" d="M45.815 102.31c0 .283-.3.514-.667.514-.369 0-.668-.23-.668-.515 0-.285.3-.516.668-.516.367 0 .666.231.666.516z"/></g><g/><g clip-path="url(#z5inaq)"><path fill="#825333" d="M50.485 102.31c0 .283-.299.514-.667.514-.368 0-.667-.23-.667-.515 0-.285.3-.516.667-.516.368 0 .667.231.667.516z"/></g><g/><g clip-path="url(#z5inar)"><path fill="#825333" d="M55.156 102.31c0 .283-.299.514-.667.514-.369 0-.668-.23-.668-.515 0-.285.3-.516.668-.516.368 0 .667.231.667.516z"/></g><g/><g clip-path="url(#z5inas)"><path fill="#825333" d="M59.827 102.31c0 .283-.299.514-.668.514-.368 0-.667-.23-.667-.515 0-.285.3-.516.667-.516.37 0 .668.231.668.516z"/></g><g/><g clip-path="url(#z5inat)"><path fill="#825333" d="M64.497 102.31c0 .283-.299.514-.667.514-.368 0-.667-.23-.667-.515 0-.285.3-.516.667-.516.368 0 .667.231.667.516z"/></g><g/><g clip-path="url(#z5inau)"><path fill="#825333" d="M69.168 102.31c0 .283-.299.514-.667.514-.368 0-.667-.23-.667-.515 0-.285.299-.516.667-.516.368 0 .667.231.667.516z"/></g><g/><g/><g clip-path="url(#z5inav)"><path fill="#825333" d="M43.48 104.886c0 .285-.3.516-.667.516-.37 0-.669-.23-.669-.516 0-.285.3-.516.669-.516.367 0 .666.231.666.516z"/></g><g/><g clip-path="url(#z5inaw)"><path fill="#825333" d="M48.15 104.886c0 .285-.299.516-.668.516-.368 0-.667-.23-.667-.516 0-.285.3-.516.667-.516.37 0 .668.231.668.516z"/></g><g/><g clip-path="url(#z5inax)"><path fill="#825333" d="M52.82 104.886c0 .285-.298.516-.667.516-.368 0-.667-.23-.667-.516 0-.285.3-.516.667-.516.37 0 .667.231.667.516z"/></g><g/><g clip-path="url(#z5inay)"><path fill="#825333" d="M57.491 104.886c0 .285-.299.516-.667.516-.368 0-.667-.23-.667-.516 0-.285.3-.516.667-.516.368 0 .667.231.667.516z"/></g><g/><g clip-path="url(#z5inaz)"><path fill="#825333" d="M62.162 104.886c0 .285-.299.516-.667.516-.369 0-.668-.23-.668-.516 0-.285.3-.516.668-.516.368 0 .667.231.667.516z"/></g><g/><g clip-path="url(#z5inaA)"><path fill="#825333" d="M66.833 104.886c0 .285-.299.516-.668.516-.368 0-.667-.23-.667-.516 0-.285.299-.516.667-.516.369 0 .668.231.668.516z"/></g><g/><g clip-path="url(#z5inaB)"><path fill="#825333" d="M71.504 104.886c0 .285-.3.516-.668.516-.368 0-.667-.23-.667-.516 0-.285.299-.516.667-.516.369 0 .668.231.668.516z"/></g><g><path fill="#664330" d="M65.59 74.823l-3.595-1.002s1.668 21.185 1.5 28.858l7.008-.334s.186-20.18-4.912-27.522z"/></g><g><path fill="#664330" d="M49.317 71.986c-5.838 4.837-7.173 28.691-7.173 28.691l8.508 1.334c.334-10.508 3.17-28.524 3.503-29.024z"/></g><g><path fill="#db6852" d="M61.2 63.081c-1.464.67-3.752.618-4.732-.835-.228-.336-.776-.02-.547.32 1.193 1.765 3.8 1.884 5.597 1.061.37-.17.048-.715-.319-.546z"/></g><g><path fill="#f2b52f" d="M51.653 66.092s7.117 3.781 14.234 1.446c0 0 4.742 2.706 4.873 6.691 0 0-14.448 3.044-26.558-3.91 0 0 3.336-5.117 7.451-4.227z"/></g><g><path fill="#eaa428" d="M70.596 73.093a5.874 5.874 0 0 0-.091-.32c-1.846.382-3.702.717-5.591.798-.1.004-.151.08-.158.157a17.279 17.279 0 0 0-1.596-1.684c2.11-.296 4.159-.876 6.219-1.4a8.967 8.967 0 0 0-.22-.286c-2.041.526-4.072 1.1-6.163 1.378a.17.17 0 0 0-.113.063 18.305 18.305 0 0 0-1.101-.908 30.243 30.243 0 0 1 5.513-2.367 14.31 14.31 0 0 0-.317-.247 30.673 30.673 0 0 0-5.491 2.395c-.411-.297-.83-.585-1.272-.855-1.328-.81-2.737-1.578-4.19-2.146-2.626-.653-4.371-1.579-4.371-1.579a4.723 4.723 0 0 0-.398-.067c1 .7 2.198 1.097 3.345 1.49 1.633.56 3.15 1.29 4.657 2.131.7.391 1.36.816 1.99 1.271.016.09.102.168.202.143a17.37 17.37 0 0 1 3.747 3.783l.394-.02a18.132 18.132 0 0 0-.692-.92l.015.002c1.919-.083 3.806-.422 5.682-.812z"/></g><g><path fill="#513427" d="M42.406 97.288c-.187 2.075-.262 3.39-.262 3.39l8.508 1.334c.032-1.027.09-2.126.165-3.274-2.789-.523-5.634-.848-8.41-1.45z"/></g><g><path fill="#664330" d="M39.938 91.194c1.151-1.298 3.772-5.084-.289-9.133-.737 3.276-.916 6.619.29 9.133z"/></g><g><path fill="#513427" d="M63.498 100.175c.014.936.015 1.78-.002 2.504l7.007-.333s.008-.9-.027-2.385c-2.325.162-4.651.265-6.978.214z"/></g><g><path fill="#bc5e4b" d="M106.733 101.077l1.696 3.781 6.7-2.669-.667-4.226z"/></g><g><path fill="#41363c" d="M104.715 101.129l-5.868-11.055a1.49 1.49 0 0 0-.923-.74l-.007-.001-24.446-6.6a1.523 1.523 0 0 0-.776 0l-24.568 6.599-.01.002a1.5 1.5 0 0 0-.923.74l-5.868 11.055a1.488 1.488 0 0 0 .682 2.049l4.695 2.22c.25.118.409.37.409.647v14.2c0 .849.486 1.62 1.249 1.99l24.072 11.617a1.498 1.498 0 0 0 1.289.002l.009-.002 24.073-11.62a2.208 2.208 0 0 0 1.248-1.987v-14.652c0-.02-.002-.038-.004-.058l4.986-2.357a1.493 1.493 0 0 0 .68-2.05z"/></g><g><path fill="#f5b131" d="M50.098 119.309v-11.176a.716.716 0 0 1 1.022-.647l15.19 7.18a1.48 1.48 0 0 0 1.153.053c.376-.14.68-.421.845-.786l1.913-4.231c.317-.702 1.368-.476 1.368.295v18.992a.716.716 0 0 1-1.026.645l-20.06-9.68a.716.716 0 0 1-.405-.645z"/></g><g><path fill="#f5b131" d="M96.065 119.758l-20.464 9.875a.716.716 0 0 1-1.027-.645v-18.72c0-.77 1.051-.998 1.368-.296l1.791 3.96a1.49 1.49 0 0 0 1.998.734l15.313-7.238a.715.715 0 0 1 1.021.647z"/></g><g><path fill="#f5c388" d="M73.267 85.77l17.199 4.643c.673.181.716 1.12.063 1.361l-17.26 6.398a.723.723 0 0 1-.497 0l-17.244-6.39c-.655-.243-.612-1.183.062-1.364l17.305-4.648a.711.711 0 0 1 .372 0z"/></g><g><path fill="#f5c388" d="M45.049 100.485l3.877-7.305a.715.715 0 0 1 .88-.335l20.488 7.593a.715.715 0 0 1 .403.965l-4.183 9.253a.716.716 0 0 1-.96.352l-20.18-9.54a.717.717 0 0 1-.325-.983z"/></g><g><path fill="#f5c388" d="M79.528 110.656l-4.185-9.252a.716.716 0 0 1 .405-.966l20.486-7.593a.716.716 0 0 1 .881.335l3.877 7.305a.717.717 0 0 1-.326.983l-20.18 9.54a.715.715 0 0 1-.958-.352z"/></g></g></svg>