<svg xmlns="http://www.w3.org/2000/svg" width="157" height="157" viewBox="0 0 157 157"><g><g><path fill="#78de85" d="M136.69 156.364H20.411c-10.969 0-19.86-8.892-19.86-19.861V20.223C.55 9.255 9.44.363 20.41.363h116.28c10.968 0 19.86 8.893 19.86 19.86v116.28c0 10.969-8.892 19.86-19.86 19.86z"/></g><g><path fill="#41363c" d="M124.1 67.999l-8.433-15.89a2.143 2.143 0 0 0-1.336-1.063l-35.133-9.484a2.155 2.155 0 0 0-1.116-.002l-35.308 9.484-.012.003a2.15 2.15 0 0 0-1.328 1.063L33 67.999a2.146 2.146 0 0 0 .978 2.945l6.748 3.19c.36.17.59.532.59.93v20.409c0 1.218.697 2.329 1.794 2.859l34.595 16.695a2.138 2.138 0 0 0 1.853.003l.012-.003 34.597-16.698a3.174 3.174 0 0 0 1.794-2.857V74.414c0-.027-.004-.055-.006-.082l7.166-3.388a2.148 2.148 0 0 0 .979-2.945z"/></g><g><path fill="#f5b131" d="M45.606 94.126V78.064a1.03 1.03 0 0 1 1.47-.93l21.83 10.32a2.139 2.139 0 0 0 1.656.075 2.142 2.142 0 0 0 1.215-1.13l2.75-6.08c.455-1.009 1.966-.684 1.966.424v27.295a1.03 1.03 0 0 1-1.477.926L46.188 95.052a1.027 1.027 0 0 1-.582-.926z"/></g><g><path fill="#f5b131" d="M111.669 94.772l-29.41 14.191a1.029 1.029 0 0 1-1.476-.925V81.133c0-1.108 1.51-1.433 1.966-.424l2.574 5.69a2.15 2.15 0 0 0 1.954 1.261c.315 0 .628-.068.917-.206L110.2 77.052a1.029 1.029 0 0 1 1.468.93z"/></g><g><path fill="#f5c388" d="M78.903 45.925l24.72 6.672c.967.261 1.028 1.61.09 1.958L78.907 63.75a1.026 1.026 0 0 1-.716 0L53.41 54.564c-.94-.348-.878-1.698.09-1.958l24.87-6.68c.175-.048.36-.048.534 0z"/></g><g><path fill="#f5c388" d="M38.35 67.073l5.572-10.498a1.027 1.027 0 0 1 1.266-.482l29.443 10.912c.56.207.825.845.58 1.388L69.198 81.69a1.03 1.03 0 0 1-1.377.507L38.82 68.486a1.03 1.03 0 0 1-.469-1.413z"/></g><g><path fill="#f5c388" d="M87.902 81.69L81.89 68.393a1.03 1.03 0 0 1 .58-1.39l29.443-10.911a1.03 1.03 0 0 1 1.266.483l5.573 10.498a1.03 1.03 0 0 1-.47 1.412L89.28 82.195c-.52.247-1.14.019-1.377-.505z"/></g></g></svg>