<svg id="Calque_1" data-name="Calque 1" xmlns="http://www.w3.org/2000/svg" viewBox="0 0 68.03 68.03"><defs><style>.cls-1{fill:#ebbb00;}.cls-2{fill:#f7f7f7;}</style></defs><title>Plan de travail 1</title><path class="cls-1" d="M48.58,38.12a17.29,17.29,0,1,0-27.77,0L32.74,56.45a2.33,2.33,0,0,0,3.91,0Z"/><path class="cls-2" d="M43.7,27.91l-8.18-7.44a1.22,1.22,0,0,0-1.64,0L25.7,27.91a1.21,1.21,0,0,0-.08,1.71h0a1.23,1.23,0,0,0,.9.39,1.2,1.2,0,0,0,.82-.32L34.7,23l7.36,6.7a1.21,1.21,0,0,0,1.64-1.78ZM28.22,30v7.57a.65.65,0,0,0,.34.55,1,1,0,0,0,.52.13H40.32a1,1,0,0,0,.52-.13.66.66,0,0,0,.34-.55V30L34.7,24.1ZM32,29.4h5.32v3.71H32Zm-5-8.27,5,.15-4.67,4.5Z"/></svg>