<svg id="Calque_1" data-name="Calque 1" xmlns="http://www.w3.org/2000/svg" viewBox="0 0 68.03 68.03"><defs><style>.cls-1{fill:#ebbb00;}.cls-2{fill:#f7f7f7;}</style></defs><title>Plan de travail 2</title><path class="cls-1" d="M16.64,38.27a7.56,7.56,0,1,0,7.56,7.56A7.56,7.56,0,0,0,16.64,38.27Zm1.25,9.09L16.45,49.9l-1.15-2.68-2.86-.58,2.2-1.92-.34-2.9,2.51,1.5,2.65-1.22-.65,2.85,2,2.15Z"/><polygon class="cls-2" points="19.47 42.1 16.81 43.32 14.31 41.82 14.64 44.72 12.45 46.64 15.31 47.22 16.45 49.9 17.89 47.36 20.79 47.09 18.82 44.95 19.47 42.1"/><path class="cls-1" d="M27.26,51.53a23.49,23.49,0,0,0,7.82.65c3.57-.48,3.76,4.17.34,4.1A23.37,23.37,0,0,1,25,54.93a20.9,20.9,0,0,0,2.21-3.4"/><path class="cls-1" d="M53.76,34.09,47,30.61a1.59,1.59,0,0,1-.59-1.94,1.15,1.15,0,0,1,1.7-.52l3.24,2c-2.72-7.9-7.29-14-14.77-15-5.37-.73-10.81.29-15,3.74s-7.43,8.1-8,14c-.07.77-.36,1.12-1.39,1.16-.71,0-2.19-.21-2.19-1.57,0-6.68,4-13.28,8.67-17.17s12.53-5.75,18.53-4.59c9.18,1.53,15.39,8.76,18.47,17.63l1.46-3.25a1.15,1.15,0,0,1,1.7-.52,1.59,1.59,0,0,1,.59,1.94l-2.84,6.34s-.51,1.15-1,1.32A2.93,2.93,0,0,1,53.76,34.09Z"/><path class="cls-1" d="M52,37s-1.08,3-1.2,3.47a2,2,0,0,0,1,2.15,1.84,1.84,0,0,0,2.64-.78,22.23,22.23,0,0,0,1.18-3.57A2,2,0,0,0,52,37Z"/><path class="cls-1" d="M49,44.05s-2.12,2.34-2.42,2.77a2,2,0,0,0,.11,2.37,1.84,1.84,0,0,0,2.74.26,22.23,22.23,0,0,0,2.43-2.87A2,2,0,0,0,49,44.05Z"/><path class="cls-1" d="M43.53,49.34s-2.88,1.28-3.33,1.55a2,2,0,0,0-.86,2.21c.36.95,1.19,1.83,2.4,1.35a22.23,22.23,0,0,0,3.39-1.64,2,2,0,0,0-1.59-3.48Z"/><path class="cls-1" d="M33.55,34.36h6.51a1.81,1.81,0,0,1,1.81,1.81v.28a1.81,1.81,0,0,1-1.81,1.81H30.6a1.81,1.81,0,0,1-1.81-1.81v-13a1.81,1.81,0,0,1,1.81-1.81h.45a1.81,1.81,0,0,1,1.81,1.81V34.36Z"/></svg>