<svg id="Calque_1" data-name="Calque 1" xmlns="http://www.w3.org/2000/svg" viewBox="0 0 68.03 68.03"><defs><style>.cls-1{fill:#851f78;}.cls-2{fill:#f39124;}</style></defs><title>Plan de travail 1</title><path class="cls-1" d="M12.29,22.15,34,31.49a.82.82,0,0,0,.57,0l20.74-9.13A.83.83,0,0,1,56,23.84L35.78,35.31a.83.83,0,0,0-.39.62L35,52.63a.83.83,0,0,1-1.65,0L32.25,35.91a.83.83,0,0,0-.39-.59L11.58,23.64A.83.83,0,0,1,12.29,22.15Z"/><path class="cls-2" d="M8,14.6l-3.7.63a1.38,1.38,0,0,0-1,1.32L3,41.3A12.29,12.29,0,0,0,9.35,52.17L28,62.49a1.38,1.38,0,0,0,1.26,0l1.6-.72a1.38,1.38,0,0,0,.1-2.42l-16.8-10a12.28,12.28,0,0,1-6-10.55l0-20.47a1.37,1.37,0,0,1,.76-1.23h0A1.38,1.38,0,0,0,8,14.6Z"/><path class="cls-1" d="M8,14.6l-3.7.63a1.38,1.38,0,0,0-1,1.32L3,41.3A12.29,12.29,0,0,0,9.35,52.17L28,62.49a1.38,1.38,0,0,0,1.26,0l1.6-.72a1.38,1.38,0,0,0,.1-2.42l-16.8-10a12.28,12.28,0,0,1-6-10.55l0-20.47a1.37,1.37,0,0,1,.76-1.23h0A1.38,1.38,0,0,0,8,14.6Z"/><path class="cls-2" d="M61.21,54l3.7-.63a1.38,1.38,0,0,0,1-1.32l.23-24.75a12.28,12.28,0,0,0-6.34-10.87L41.14,6.07a1.37,1.37,0,0,0-1.26,0l-1.6.72a1.38,1.38,0,0,0-.1,2.42l16.8,10a12.29,12.29,0,0,1,6,10.55l0,20.47a1.38,1.38,0,0,1-.76,1.23h0A1.38,1.38,0,0,0,61.21,54Z"/><path class="cls-1" d="M61.21,54l3.7-.63a1.38,1.38,0,0,0,1-1.32l.23-24.75a12.28,12.28,0,0,0-6.34-10.87L41.14,6.07a1.37,1.37,0,0,0-1.26,0l-1.6.72a1.38,1.38,0,0,0-.1,2.42l16.8,10a12.29,12.29,0,0,1,6,10.55l0,20.47a1.38,1.38,0,0,1-.76,1.23h0A1.38,1.38,0,0,0,61.21,54Z"/></svg>