<svg id="Calque_1" data-name="Calque 1" xmlns="http://www.w3.org/2000/svg" viewBox="0 0 68.03 68.03"><defs><style>.cls-1{fill:#ebbb00;}</style></defs><title>Plan de travail 3</title><path class="cls-1" d="M15.56,41.49a20.36,20.36,0,0,1,7.28-24.56.9.9,0,0,1,1.41.74V22a.9.9,0,0,0,.9.9H26.7a.9.9,0,0,0,.9-.9V12.58a.9.9,0,0,0-.9-.9H17.33a.9.9,0,0,0-.9.9v1.55a.9.9,0,0,0,.9.9h0A.9.9,0,0,1,18,16.59,23.7,23.7,0,0,0,29.81,57a.9.9,0,0,0,1.07-.75l.24-1.54a.9.9,0,0,0-.71-1A20.2,20.2,0,0,1,15.56,41.49Z"/><path class="cls-1" d="M56.24,42.77a23.71,23.71,0,0,0-7.41-27.83,23.85,23.85,0,0,0-9.95-4.5.9.9,0,0,0-1.06.74l-.24,1.55a.89.89,0,0,0,.71,1,20.35,20.35,0,0,1,7.56,36.74.9.9,0,0,1-1.4-.74v-4.3a.9.9,0,0,0-.9-.9H42a.9.9,0,0,0-.9.9v9.38a.9.9,0,0,0,.9.9h9.38a.9.9,0,0,0,.9-.9V53.26a.9.9,0,0,0-.9-.9h0a.9.9,0,0,1-.62-1.54A23.64,23.64,0,0,0,56.24,42.77Z"/><path class="cls-1" d="M37.87,28.65h2.57a.4.4,0,0,0,.4-.42,6.51,6.51,0,0,0-4.53-5.77.4.4,0,0,1-.28-.38v-.71a.4.4,0,0,0-.4-.4H33.07a.4.4,0,0,0-.4.4v.71a.4.4,0,0,1-.28.38,6.51,6.51,0,0,0-4.54,6.19,6.1,6.1,0,0,0,4.54,6.19h0a.4.4,0,0,1,.28.38v5.31a.4.4,0,0,1-.7.27,3.12,3.12,0,0,1-.74-1.69.4.4,0,0,0-.4-.36H28.27a.4.4,0,0,0-.4.42,6.51,6.51,0,0,0,4.53,5.77.4.4,0,0,1,.28.38V46a.4.4,0,0,0,.4.4h2.56A.4.4,0,0,0,36,46v-.71a.4.4,0,0,1,.28-.38,6.51,6.51,0,0,0,4.54-6.19,6.1,6.1,0,0,0-4.54-6.19h0a.4.4,0,0,1-.28-.38V26.87a.4.4,0,0,1,.7-.27,3.12,3.12,0,0,1,.74,1.69A.4.4,0,0,0,37.87,28.65Zm-5.19,1.93a.4.4,0,0,1-.68.28,2.9,2.9,0,0,1-.78-2.21,3.12,3.12,0,0,1,.76-2,.4.4,0,0,1,.7.27Zm4.82,8.18a3.12,3.12,0,0,1-.76,2,.4.4,0,0,1-.7-.27V36.82a.4.4,0,0,1,.68-.28A2.9,2.9,0,0,1,37.49,38.75Z"/></svg>