<svg xmlns="http://www.w3.org/2000/svg" viewBox="0 0 22.38 43.27"><defs><style>.cls-1{fill:#048ac4;}.cls-1,.cls-10,.cls-11,.cls-12,.cls-13,.cls-14,.cls-15,.cls-2,.cls-3,.cls-4,.cls-5,.cls-6,.cls-7,.cls-8,.cls-9{fill-rule:evenodd;}.cls-2{fill:#151717;}.cls-3{fill:#042847;}.cls-4{fill:#eebf7d;}.cls-5{fill:#05345e;}.cls-6{fill:#ffd9a5;}.cls-8{fill:#ddc173;}.cls-9{fill:#caae66;}.cls-10{fill:#bfa763;}.cls-11{fill:#ead992;}.cls-12{fill:#e5ecf4;}.cls-13{fill:#888689;}.cls-14{fill:#f6e8ad;}.cls-15{fill:#099dde;}</style></defs><title>ser1</title><g id="Calque_2" data-name="Calque 2"><g id="Calque_1-2" data-name="Calque 1"><path class="cls-1" d="M6,6.81C3.55,8.06,2.19,9.4,3,9.8s3.48-.28,6-1.52,3.85-2.58,3-3S8.53,5.57,6,6.81Z"/><path class="cls-2" d="M3.41,32.41A13.35,13.35,0,0,0,3,34c-.08.42-.11.9-.17,1.38s.19.81,0,1.11-.36.31-.78.17A2.65,2.65,0,0,1,.9,35.52a5.09,5.09,0,0,1-.45-2.81l-.21.07L0,31.72l.65-.57a3,3,0,0,1,1.53-.51l.59.8Z"/><path class="cls-3" d="M7.59,25.81,2.08,30.44c-.26,0-.31.66-.1,1.48s.68,1.72,1,1.81a.18.18,0,0,0,.19-.05c2.27-1.56,4.32-3.27,6.32-4.8Z"/><path class="cls-2" d="M11.11,39.49a15.28,15.28,0,0,0,1.07,1.31c.32.33.71.66,1.1,1s.83.41,1,.71,0,.44-.36.62a3.31,3.31,0,0,1-1.72,0,6.91,6.91,0,0,1-2.75-1.56l-.08.18-1.08-.53-.06-.8c.05-.68.19-.73.56-1.33l1.09.14Z"/><path class="cls-4" d="M20.65,10.45l-.08.54s.14.42.15.44.89.16.89.16l.23-.33C22.39,10.39,21.6,10.5,20.65,10.45Z"/><path class="cls-3" d="M8.82,18.8c-3.05,2.54-1.72,4.39-2.28,7.72l3.67,1.68a33,33,0,0,0,1.43-9.85Z"/><path class="cls-5" d="M3.84,21.3c-.25,3.65,2.93,6.47,4.67,9.55,0,2.59,0,5.3-.06,8.1-.13.2.37.64,1.21,1.06a3.86,3.86,0,0,0,2.24.56.14.14,0,0,0,.08-.16c.26-3.63.34-7.18.29-10.3,0-1.76-2.42-6.39-4.1-9.35Z"/><path class="cls-4" d="M6.61,4.73a6.59,6.59,0,0,1,0,2.19l1.68.6,1-.17c0-.56.08-1.11.15-1.66Z"/><path class="cls-1" d="M9.41,5.93c.87-.55,2.38-1,2.8-.44,1.61,2.23-.36,9.33-.37,10.43,0,.7,0,1.6-.06,2.5a.38.38,0,0,1,0,.13c.14.47-1,1.43-2.77,2.33-2.11,1.06-4.38,1.63-5.06,1.29a.31.31,0,0,1-.19-.36h0a53,53,0,0,0,.06-5.4c-.15-1.55-1.2-7.22.06-8.19A19.74,19.74,0,0,1,6.62,6.69a3.21,3.21,0,0,0,2,.71C9,7.11,9.2,6.38,9.41,5.93Z"/><path class="cls-6" d="M10.67,3.34a3.46,3.46,0,0,1-.45,2,3,3,0,0,1-.52.93,1.64,1.64,0,0,1-.79.12,8.89,8.89,0,0,1-1.66-.65c-.73-.32-.68-.5-.84-1.24L6,3.42,6.24,1.3A7.68,7.68,0,0,1,9.67.85C10.37,1.07,10.72,1.78,10.67,3.34Z"/><path class="cls-7" d="M6.58.43c-2.11.41-1,3.14-.14,4.37.08-.62-.32-1.29,0-1.45s.73-.07,1,.76c.3-.81-.17-.6.22-1.61,1,.56,3.06.18,3.48-.65C10.79,1.68,10.52.76,9.72.36A3.3,3.3,0,0,0,6.58.43Z"/><polygon class="cls-8" points="14.46 13.22 14.29 14.04 14.49 19.15 21.53 15.62 21.5 9.69 14.46 13.22"/><polygon class="cls-9" points="14.46 13.22 7.78 9.88 7.81 15.81 14.49 19.15 14.46 13.22"/><polygon class="cls-10" points="21.5 9.69 14.83 6.36 7.78 9.88 14.46 13.22 21.5 9.69"/><polygon class="cls-11" points="14.3 12.62 14.46 13.77 21.86 10.07 21.86 9.02 14.3 12.62"/><polygon class="cls-12" points="17.55 12.46 17.55 13.54 15.15 14.74 15.15 13.66 17.55 12.46"/><path class="cls-13" d="M15.58,13.58v.8l-.26.13v-.8l.26-.13Zm1.8-.09-.25.13v-.8l.25-.13v.8Zm-.45.23-.25.13V13l.25-.13v.8Zm-.47.24-.25.13v-.8l.25-.13v.8Zm-.69.34v-.8l.25-.13v.8Z"/><polygon class="cls-8" points="14.46 12.72 7.44 9.22 7.44 10.27 14.46 13.77 14.46 12.72"/><polygon class="cls-14" points="21.86 9.02 14.84 5.52 7.44 9.22 14.46 12.72 21.86 9.02"/><path class="cls-6" d="M12.65,15.91a2.14,2.14,0,0,0,.8-.32,1.54,1.54,0,0,1,.92-.12,6.52,6.52,0,0,1,.92.12c-.07.46-.63.34-.89.29s-.29,0-.38.13a1.88,1.88,0,0,0,.74.11c.59,0,.64-.19,1-.4a5.22,5.22,0,0,1,.11.86c0,.27,0,.33-.17.54a3.91,3.91,0,0,1-1.09.83l-2.06-.36Z"/><path class="cls-15" d="M5,17.06l7.46.82A2.36,2.36,0,0,0,13,15.69l-7.59-1A1.27,1.27,0,0,0,3.78,16C3.83,16.43,4.05,16.81,5,17.06Z"/><path class="cls-15" d="M2.69,9.72c-.32,1.8.73,3.91,1.09,6.3.3,1.24,2.76,1,2.53-.62l0-2.86c0-1.12-.42-4.56-2.41-4.2A1.56,1.56,0,0,0,2.69,9.72Z"/><path class="cls-6" d="M22,11.06c.35.18.4.26.18.51a1.88,1.88,0,0,1-.55.4c-.27.15-.26.09-.62.06L20.71,12c.11-.39.13-.35.74-.4Z"/><path class="cls-6" d="M22.26,11.5a1.3,1.3,0,0,1,.11.35,1.11,1.11,0,0,1-.22.39.81.81,0,0,1-.39.19l-.24.06a3.65,3.65,0,0,1-.74,0c.07-.54.18-.42.84-.53Z"/><path class="cls-6" d="M22.16,12a3.58,3.58,0,0,1,.18.37.29.29,0,0,1-.08.21.68.68,0,0,1-.32.17l-.2.06a3.09,3.09,0,0,1-.63,0c0-.46.14-.36.68-.46Z"/><path class="cls-6" d="M22.16,10.77c.05.07,0,.18-.09.31a1.63,1.63,0,0,1-.3.4,1.87,1.87,0,0,1-1,.13c-.14-.34.12-.4.6-.5.08-.16.19-.43.42-.45A.34.34,0,0,1,22.16,10.77Z"/></g></g></svg>