<svg id="Calque_1" data-name="Calque 1" xmlns="http://www.w3.org/2000/svg" viewBox="0 0 68.03 68.03"><defs><style>.cls-1{fill:#78de85;}.cls-2{fill:#413841;}.cls-3{fill:#3b313b;}.cls-4{fill:#e3e3e3;}.cls-5{fill:#3b88b0;}.cls-6{fill:#61cade;}.cls-7{fill:#6b6b6b;}.cls-8{fill:#851f78;}.cls-9{fill:#f39124;}</style></defs><title>service2</title><rect class="cls-1" x="4.95" y="6.5" width="59.07" height="59.07" rx="19.86" ry="19.86"/><path class="cls-2" d="M26.11,43.24a.62.62,0,0,0-.62.62.62.62,0,1,1-.62-.62.62.62,0,1,0,0-1.24,1.87,1.87,0,1,0,1.87,1.87A.62.62,0,0,0,26.11,43.24Z"/><path class="cls-2" d="M51,43.24a.62.62,0,0,0-.62.62.62.62,0,1,1-.62-.62.62.62,0,1,0,0-1.24,1.87,1.87,0,1,0,1.87,1.87A.62.62,0,0,0,51,43.24Z"/><path class="cls-3" d="M57.22,35.15a.62.62,0,0,0-.19-.44A3.09,3.09,0,0,0,55.5,33l-.06,0-2.06-.77-1.25-4.76s0,.06,0,.05a3,3,0,0,0-3-2.15H44.66V24a1.09,1.09,0,0,0-1.13-1.16H18.64c-.69,0-1.48.47-1.48,1.16V41.37a1.49,1.49,0,0,0,1.48,1.28h2c-.06,0-.11.51-.14.51H18c-.34,0-.62.42-.62.76s.28.76.62.76h2.53a4.35,4.35,0,0,0,8.62,0h1.29c0,1,.84,1.53,1.87,1.53h3.73c1,0,1.87-.51,1.87-1.53h7.51a4.35,4.35,0,0,0,8.62,0h2.53c.34,0,.62-.42.62-.76s-.28-.76-.62-.76H54.06s-.08-.51-.14-.51h2a1.43,1.43,0,0,0,1.42-1.28v-5.6a3.36,3.36,0,0,0-.12-.43C57.29,35.28,57.22,35.22,57.22,35.15Zm-26.75,8H29.17s-.08-.51-.14-.51h1.53C30.5,42.65,30.46,43.16,30.46,43.16Zm15,0H37.93s0-.51-.11-.51h7.76C45.52,42.65,45.47,43.16,45.44,43.16ZM56,38.26v.62h-.62v-.62Z"/><path class="cls-4" d="M19.28,23.81H43.06a.59.59,0,0,1,.59.59V36.46a.59.59,0,0,1-.59.59H19.28a.59.59,0,0,1-.59-.59V24.39A.59.59,0,0,1,19.28,23.81Z"/><path class="cls-5" d="M36.06,41.12H28.6c-.05,0-.1.13-.15.14a4.46,4.46,0,0,0-7.17,0s-.1-.11-.15-.11H18.69V38.07h25v3.06Z"/><path class="cls-5" d="M44.66,37V35.52h11.2V37h-.51c-.69,0-1,.53-1,1.21v.62c0,.69.33,1.22,1,1.22h.51v1H53.48c-.05,0-.1.13-.15.14a4.46,4.46,0,0,0-7.17,0s-.1-.11-.15-.11H44.66V37Z"/><path class="cls-5" d="M44.66,33.48h8.09L55,34.2c.2.11.38.3.53.3H44.66Z"/><path class="cls-6" d="M44.66,26.35h4.48a1.85,1.85,0,0,1,1.78,1.32L52.06,32H44.66Z"/><circle class="cls-7" cx="24.86" cy="43.86" r="3.11"/><circle class="cls-7" cx="49.75" cy="43.86" r="3.11"/><path class="cls-3" d="M26.11,43.24a.62.62,0,0,0-.62.62.62.62,0,1,1-.62-.62.62.62,0,1,0,0-1.24,1.87,1.87,0,1,0,1.87,1.87A.62.62,0,0,0,26.11,43.24Z"/><path class="cls-3" d="M51,43.24a.62.62,0,0,0-.62.62.62.62,0,1,1-.62-.62.62.62,0,1,0,0-1.24,1.87,1.87,0,1,0,1.87,1.87A.62.62,0,0,0,51,43.24Z"/><path class="cls-7" d="M36.52,44.48c0,.34-.11.71-.45.71H32.33c-.34,0-.4-.37-.4-.71v-.62h0v-.62c0-.34.05-.59.4-.59h3.73c.34,0,.45.25.45.59Z"/><path class="cls-3" d="M33,43.24a.62.62,0,1,0,.44.18A.63.63,0,0,0,33,43.24Z"/><path class="cls-8" d="M25.78,29.54l1.79.77h0l1.71-.75a.07.07,0,0,1,.06.12l-1.67.94a.07.07,0,0,0,0,.05l0,1.37a.07.07,0,0,1-.14,0l-.09-1.38a.07.07,0,0,0,0,0l-1.67-1A.07.07,0,0,1,25.78,29.54Z"/><path class="cls-9" d="M25.42,28.92l-.3.05a.11.11,0,0,0-.08.11l0,2a1,1,0,0,0,.52.89l1.54.85a.11.11,0,0,0,.1,0l.13-.06a.11.11,0,0,0,0-.2l-1.38-.82a1,1,0,0,1-.49-.87V29.23a.11.11,0,0,1,.06-.1h0A.11.11,0,0,0,25.42,28.92Z"/><path class="cls-8" d="M25.42,28.92l-.3.05a.11.11,0,0,0-.08.11l0,2a1,1,0,0,0,.52.89l1.54.85a.11.11,0,0,0,.1,0l.13-.06a.11.11,0,0,0,0-.2l-1.38-.82a1,1,0,0,1-.49-.87V29.23a.11.11,0,0,1,.06-.1h0A.11.11,0,0,0,25.42,28.92Z"/><path class="cls-9" d="M29.8,32.16l.3-.05a.11.11,0,0,0,.08-.11l0-2a1,1,0,0,0-.52-.89l-1.54-.85a.11.11,0,0,0-.1,0l-.13.06a.11.11,0,0,0,0,.2l1.38.82a1,1,0,0,1,.49.87v1.68a.11.11,0,0,1-.06.1h0A.11.11,0,0,0,29.8,32.16Z"/><path class="cls-8" d="M29.8,32.16l.3-.05a.11.11,0,0,0,.08-.11l0-2a1,1,0,0,0-.52-.89l-1.54-.85a.11.11,0,0,0-.1,0l-.13.06a.11.11,0,0,0,0,.2l1.38.82a1,1,0,0,1,.49.87v1.68a.11.11,0,0,1-.06.1h0A.11.11,0,0,0,29.8,32.16Z"/><path class="cls-3" d="M31,28.79h0a.07.07,0,0,1,.07.07v.45a.07.07,0,0,0,.07.07h.58a.07.07,0,0,0,.07-.07v-.45a.07.07,0,0,1,.07-.07h0a.07.07,0,0,1,.07.07v1.27a.07.07,0,0,1-.07.07h0a.07.07,0,0,1-.07-.07v-.54a.07.07,0,0,0-.07-.07h-.58a.07.07,0,0,0-.07.07v.54a.07.07,0,0,1-.07.07h0a.07.07,0,0,1-.07-.07V28.86A.07.07,0,0,1,31,28.79Z"/><path class="cls-3" d="M32.35,29.15h0a.07.07,0,0,1,.07.07v.42a1,1,0,0,0,0,.25.27.27,0,0,0,.11.15.33.33,0,0,0,.19.06.33.33,0,0,0,.19-.05A.28.28,0,0,0,33,29.9a1,1,0,0,0,0-.26v-.42a.07.07,0,0,1,.07-.07h0a.07.07,0,0,1,.07.07v.45a.81.81,0,0,1-.05.33.39.39,0,0,1-.15.17.55.55,0,0,1-.51,0,.38.38,0,0,1-.15-.17.85.85,0,0,1-.05-.33v-.44A.07.07,0,0,1,32.35,29.15Z"/><path class="cls-3" d="M34,29.31h0a.06.06,0,0,1-.08,0,.28.28,0,0,0-.17-.07.16.16,0,0,0-.11,0,.13.13,0,0,0,0,.1.15.15,0,0,0,0,.1.54.54,0,0,0,.16.11.6.6,0,0,1,.2.15.27.27,0,0,1,.05.16.29.29,0,0,1-.09.22.31.31,0,0,1-.23.09.39.39,0,0,1-.17,0l-.1-.06a.06.06,0,0,1,0-.09h0a.06.06,0,0,1,.09,0,.26.26,0,0,0,.17.07.2.2,0,0,0,.14-.05.16.16,0,0,0,.06-.12.16.16,0,0,0,0-.1.61.61,0,0,0-.17-.11.54.54,0,0,1-.19-.14.27.27,0,0,1-.05-.16.26.26,0,0,1,.08-.2.28.28,0,0,1,.21-.08.38.38,0,0,1,.24.1A.06.06,0,0,1,34,29.31Z"/><path class="cls-3" d="M34.32,28.75h0a.06.06,0,0,1,.06.06v.62a.06.06,0,0,0,.1,0l.36-.32,0,0h0a.06.06,0,0,1,0,.11l-.39.34a.06.06,0,0,0,0,.09l.43.39a.06.06,0,0,1,0,.11h0l0,0-.4-.36a.06.06,0,0,0-.11,0v.27a.06.06,0,0,1-.06.06h0a.06.06,0,0,1-.06-.06V28.81A.06.06,0,0,1,34.32,28.75Z"/><path class="cls-3" d="M35.3,28.72a.11.11,0,0,1,.08,0,.11.11,0,0,1,0,.16.11.11,0,0,1-.08,0,.11.11,0,0,1-.11-.11.11.11,0,0,1,0-.08A.11.11,0,0,1,35.3,28.72Zm0,.43h0a.07.07,0,0,1,.07.07v.91a.07.07,0,0,1-.07.07h0a.07.07,0,0,1-.07-.07v-.91A.07.07,0,0,1,35.3,29.15Z"/><path class="cls-3" d="M36.52,29.85l.11.06h0a.62.62,0,0,1-.13.18.51.51,0,0,1-.16.1.57.57,0,0,1-.21,0,.5.5,0,0,1-.4-.17.57.57,0,0,1-.14-.38.56.56,0,0,1,.12-.35.5.5,0,0,1,.41-.2.52.52,0,0,1,.43.2.57.57,0,0,1,.12.36h-.94a.43.43,0,0,0,.12.3.37.37,0,0,0,.28.12l.16,0a.41.41,0,0,0,.13-.07.62.62,0,0,0,.11-.15Zm0-.28h0a.44.44,0,0,0-.08-.17.38.38,0,0,0-.14-.11.42.42,0,0,0-.17,0,.38.38,0,0,0-.27.1.45.45,0,0,0-.12.22h.78Z"/><path class="cls-3" d="M37.4,29.31h0a.06.06,0,0,1-.08,0,.27.27,0,0,0-.17-.07.16.16,0,0,0-.11,0,.13.13,0,0,0,0,.1.15.15,0,0,0,0,.1.54.54,0,0,0,.16.11.6.6,0,0,1,.2.15.27.27,0,0,1,.05.16.29.29,0,0,1-.09.22.31.31,0,0,1-.23.09.4.4,0,0,1-.17,0l-.1-.06a.06.06,0,0,1,0-.09h0A.06.06,0,0,1,37,30a.26.26,0,0,0,.17.07.2.2,0,0,0,.14-.05.16.16,0,0,0,.06-.12.16.16,0,0,0,0-.1.61.61,0,0,0-.17-.11.54.54,0,0,1-.19-.14.27.27,0,0,1-.05-.16.26.26,0,0,1,.08-.2.28.28,0,0,1,.21-.08.38.38,0,0,1,.24.1A.06.06,0,0,1,37.4,29.31Z"/><path class="cls-3" d="M31,32.56a.07.07,0,0,1-.07-.08l.19-1.34h0l.51,1a.07.07,0,0,0,.12,0l.51-1h0l.19,1.34a.07.07,0,0,1-.07.08h0a.07.07,0,0,1-.07-.06l-.1-.74a.07.07,0,0,0-.13,0l-.4.81h0l-.41-.82a.07.07,0,0,0-.13,0l-.1.74A.07.07,0,0,1,31,32.56Z"/><path class="cls-3" d="M33.26,31.49a.52.52,0,0,1,.4.17.56.56,0,0,1,0,.76.55.55,0,0,1-.79,0,.56.56,0,0,1,0-.76A.52.52,0,0,1,33.26,31.49Zm0,.13a.39.39,0,0,0-.29.12.41.41,0,0,0-.12.3.43.43,0,0,0,.06.21.39.39,0,0,0,.15.15.42.42,0,0,0,.41,0,.39.39,0,0,0,.15-.15.43.43,0,0,0,.05-.21.41.41,0,0,0-.12-.3A.39.39,0,0,0,33.26,31.62Z"/><path class="cls-3" d="M34.06,31.51h0a.06.06,0,0,1,.06,0l.27.6a.07.07,0,0,0,.12,0l.27-.59a.06.06,0,0,1,.06,0h0a.07.07,0,0,1,.06.09l-.44,1h0l-.44-1A.07.07,0,0,1,34.06,31.51Z"/><path class="cls-3" d="M36,32.21l.11.06a.62.62,0,0,1-.13.18.51.51,0,0,1-.16.1.57.57,0,0,1-.21,0,.5.5,0,0,1-.4-.17.57.57,0,0,1-.14-.38.56.56,0,0,1,.12-.35.5.5,0,0,1,.41-.2.52.52,0,0,1,.43.2.57.57,0,0,1,.12.36h-.94a.43.43,0,0,0,.12.3.37.37,0,0,0,.28.12l.16,0a.41.41,0,0,0,.13-.07A.63.63,0,0,0,36,32.21Zm0-.28a.44.44,0,0,0-.08-.17.37.37,0,0,0-.14-.11.42.42,0,0,0-.17,0,.38.38,0,0,0-.27.1.45.45,0,0,0-.12.22Z"/><path class="cls-3" d="M36.44,31.51h0a.07.07,0,0,1,.07.07v.09a.48.48,0,0,1,.13-.13.26.26,0,0,1,.14,0h0a.07.07,0,0,1,0,.1h0a.07.07,0,0,1-.07,0h0a.19.19,0,0,0-.13.06.35.35,0,0,0-.1.17,1.64,1.64,0,0,0,0,.36v.29a.07.07,0,0,1-.07.07h0a.07.07,0,0,1-.07-.07v-.91A.07.07,0,0,1,36.44,31.51Z"/><path class="cls-3" d="M37.49,31.68h0a.06.06,0,0,1-.08,0,.27.27,0,0,0-.17-.07.16.16,0,0,0-.11,0,.13.13,0,0,0,0,.1.15.15,0,0,0,0,.1.54.54,0,0,0,.16.11.6.6,0,0,1,.2.15.27.27,0,0,1,.05.16.29.29,0,0,1-.09.22.31.31,0,0,1-.23.09.4.4,0,0,1-.17,0l-.1-.06a.06.06,0,0,1,0-.09h0a.06.06,0,0,1,.09,0,.26.26,0,0,0,.17.07.2.2,0,0,0,.14-.05.16.16,0,0,0,.06-.12.16.16,0,0,0,0-.1.6.6,0,0,0-.17-.11.54.54,0,0,1-.19-.14.27.27,0,0,1-.05-.16.26.26,0,0,1,.08-.2.28.28,0,0,1,.21-.08.38.38,0,0,1,.24.1A.06.06,0,0,1,37.49,31.68Z"/></svg>