<svg xmlns="http://www.w3.org/2000/svg" xmlns:xlink="http://www.w3.org/1999/xlink" viewBox="0 0 62.27 62.27"><defs><style>.cls-1{fill:none;}.cls-2{fill:#78de85;}.cls-3{fill:#f4bfa8;}.cls-4{fill:#726754;}.cls-5{clip-path:url(#clip-path);}.cls-6{fill:#bc5e4b;}.cls-7{fill:#a54f41;}.cls-8{fill:#535656;}.cls-9{fill:#897e68;}.cls-10{fill:#e5a189;}.cls-11{fill:#3c3f3f;}.cls-12{fill:#d7e2e2;}.cls-13,.cls-21{fill:#db6852;}.cls-14{fill:#cfd1d1;}.cls-15{fill:#4f463a;}.cls-16{fill:#845f4f;}.cls-17{fill:#664330;}.cls-18{fill:#513427;}.cls-19{fill:#965e38;}.cls-20{fill:#cbd1d1;}.cls-21{opacity:0.5;}.cls-22{fill:#f4562c;}.cls-23{clip-path:url(#clip-path-2);}.cls-24{fill:#825333;}.cls-25{fill:#f2b52f;}.cls-26{fill:#eaa428;}.cls-27{fill:#41363c;}.cls-28{fill:#f5b131;}.cls-29{fill:#f5c388;}</style><clipPath id="clip-path"><path class="cls-1" d="M36.69,27l-6.33.28c-.22,0-.81,1-.92,1.14a16,16,0,0,0-1.78,2.82,8.08,8.08,0,0,0,1.42,8.64c1.26,1.32,3.24.84,5,.8,2-.05,4.44-.08,5.28-2A11,11,0,0,0,40,31.56C39.72,30.39,38.34,27,36.69,27Z"/></clipPath><clipPath id="clip-path-2"><path class="cls-1" d="M22.85,26.7c4.85,0,5.3,10.56,5,14.31a12.44,12.44,0,0,1-5.68.53,20.86,20.86,0,0,1-5.33-.92S16.42,26.69,22.85,26.7Z"/></clipPath></defs><title>service5</title><g id="Calque_2" data-name="Calque 2"><g id="Calque_1-2" data-name="Calque 1"><rect class="cls-2" width="62.27" height="62.27" rx="19.86" ry="19.86"/><path class="cls-3" d="M43.25,41.37c-.18.31-.08.66.57,1.07s3.63-.17,2.82-1.45a2.15,2.15,0,0,0-1.39-.81C44.7,40.45,43.56,40.83,43.25,41.37Z"/><path class="cls-4" d="M42.6,31.54c-2.2-4.5-5.48-5.41-5.48-5.41l4,10.7,1.76,3.62a12,12,0,0,0,2.2-.88C45.07,36.48,42.78,31.81,42.6,31.54Z"/><path class="cls-4" d="M27.53,28.51A10.28,10.28,0,0,0,24,33.35a3.49,3.49,0,0,0,.55,3.43c.79.79,1.85.48,2.79.14a3.5,3.5,0,0,0,1.56-1.14A13.06,13.06,0,0,0,30.59,32c.39-1.09,1-2.56.66-3.73-.57-1.79-2.64-.51-3.55.15Z"/><g class="cls-5"><path class="cls-6" d="M36.69,27l-6.33.28c-.22,0-.81,1-.92,1.14a16,16,0,0,0-1.78,2.82,8.08,8.08,0,0,0,1.42,8.64c1.26,1.32,3.24,1,5,.93,2-.05,4.44-.22,5.28-2.14A11,11,0,0,0,40,31.56C39.72,30.39,38.34,27,36.69,27Z"/><path class="cls-7" d="M42,34.54a25.8,25.8,0,0,1-2.75.4c-.06-.42-.13-.85-.21-1.27a23.25,23.25,0,0,0,2.37-.59c.16-.05.09-.31-.07-.26a22.42,22.42,0,0,1-2.35.58,25.47,25.47,0,0,0-.88-3.34c.69-.11,1.37-.23,2-.36.17,0,.1-.29-.07-.26-.67.13-1.36.25-2.05.36q-.13-.37-.27-.73a23.27,23.27,0,0,0,2.4-.63c.16-.05.09-.31-.07-.26a23.14,23.14,0,0,1-2.43.64,18,18,0,0,0-1-2,.13.13,0,0,0-.23.13,17.72,17.72,0,0,1,1,2l-.95.16q-.29-1.08-.63-2.15c-.05-.16-.31-.09-.26.07q.33,1.05.62,2.12-.74.1-1.48.14A8,8,0,0,1,35,27.43a.13.13,0,0,0-.26-.07,8.36,8.36,0,0,0-.27,1.87h-.85q.19-1,.45-1.94a.13.13,0,0,0-.26-.07q-.27,1-.46,2a15.16,15.16,0,0,1-1.55-.13,9.47,9.47,0,0,1,.6-1.65c.07-.15-.15-.29-.23-.13a9.73,9.73,0,0,0-.63,1.74Q31,29,30.4,28.85a7.14,7.14,0,0,1,1-1.91c.1-.14-.13-.27-.23-.13a7.78,7.78,0,0,0-1.06,2,12.39,12.39,0,0,1-1.67-.57c-.16-.07-.29.16-.13.23A12.81,12.81,0,0,0,30,29c-.09.26-.17.52-.24.78A12.57,12.57,0,0,1,28,29.25c-.16-.06-.23.19-.07.26a12.7,12.7,0,0,0,1.77.56,25.66,25.66,0,0,0-.54,3.07,9.77,9.77,0,0,1-2.92-1.48c-.14-.1-.27.13-.13.23a9.85,9.85,0,0,0,3,1.52l-.09.73c0,.15,0,.3-.05.46a4.21,4.21,0,0,1-2.52-1.33c-.11-.13-.29.06-.19.19A4.5,4.5,0,0,0,29,34.88a29.58,29.58,0,0,0-.14,3,4.66,4.66,0,0,1-1.92-.64c-.14-.09-.28.14-.13.23a4.93,4.93,0,0,0,2.05.67c0,.34,0,.68,0,1a10.94,10.94,0,0,1-1.29-.46c-.15-.07-.29.16-.13.23a11.31,11.31,0,0,0,1.43.5,29,29,0,0,0,.49,3.91c0,.17.29.1.26-.07a28.11,28.11,0,0,1-.47-3.77,13,13,0,0,0,1.72.31,35.16,35.16,0,0,0,.35,4c0,.17.28.1.26-.07a34.16,34.16,0,0,1-.34-3.89,16.85,16.85,0,0,0,2,.07,36.45,36.45,0,0,0,.92,4.49.13.13,0,0,0,.26-.07,36.15,36.15,0,0,1-.91-4.43c.52,0,1-.06,1.57-.11q.21,1.75.47,3.48c0,.17.28.1.26-.07q-.26-1.72-.46-3.44c.92-.1,1.85-.25,2.76-.42q.19,1.95.29,3.9c0,.17.27.17.26,0q-.1-2-.29-3.95L39.44,39c0,.73.09,1.47.12,2.19,0,.17.27.17.26,0,0-.74-.07-1.49-.12-2.24l1.68-.34c.17,0,.1-.29-.07-.26l-1.63.33q0-.48-.07-1,1.06-.2,2.1-.44c.17,0,.1-.29-.07-.26q-1,.24-2.05.43c-.07-.76-.15-1.53-.26-2.29a26.38,26.38,0,0,0,2.78-.4C42.28,34.77,42.21,34.51,42,34.54ZM39,35,37.74,35q-.09-.56-.19-1.12.64-.08,1.27-.2C38.9,34.13,39,34.55,39,35Zm-1.51.35c.13.82.24,1.63.33,2.45q-1.38.19-2.77.27-.13-1.36-.22-2.72C35.74,35.35,36.63,35.35,37.52,35.32Zm-2.68-.26q0-.47,0-.94a23.7,23.7,0,0,0,2.5-.16q.1.55.18,1.1C36.6,35.08,35.72,35.08,34.84,35.06Zm3.93-1.6q-.63.11-1.27.19-.31-1.71-.72-3.39l1.1-.15A25.1,25.1,0,0,1,38.77,33.46Zm-1.24-4.32q.14.36.27.72L36.73,30l-.18-.7Zm-1,1.15q.41,1.68.72,3.39c-.82.09-1.64.15-2.46.16,0-.86,0-1.71-.05-2.57,0-.28,0-.55,0-.83C35.32,30.41,35.93,30.36,36.53,30.29Zm-1.8-.81q.78,0,1.56-.14l.18.69c-.58.07-1.16.12-1.74.15C34.72,29.95,34.72,29.72,34.73,29.48Zm.08,8.58-1,0h-.61c-.08-.95-.13-1.9-.14-2.84l1.51.07C34.64,36.23,34.72,37.15,34.81,38.06Zm-.25-3.18V35L33.15,35h-.07c0-.3,0-.61,0-.91l.37,0,1.06,0C34.54,34.37,34.55,34.63,34.56,34.88Zm-1-5.38h.89c0,.23,0,.47,0,.7l-1,0C33.49,30,33.53,29.74,33.57,29.5Zm-.16,1,1,0c0,.12,0,.24,0,.37,0,1,0,2,.06,3h-.67l-.75,0A30.67,30.67,0,0,1,33.41,30.48Zm-1.68-1.12a15.47,15.47,0,0,0,1.57.13c0,.24-.08.48-.12.72-.54,0-1.08,0-1.61-.1C31.62,29.86,31.67,29.61,31.73,29.36Zm1.41,1.11a30.94,30.94,0,0,0-.3,3.32c-.53,0-1.07-.1-1.6-.18a26.3,26.3,0,0,1,.29-3.25C32.06,30.43,32.6,30.46,33.14,30.47Zm-.73,4.73.41,0c0,1,.05,1.91.14,2.86-.61,0-1.22-.05-1.83-.09,0-.9,0-1.79.06-2.69v-.17Zm-1.21-.34q0-.49,0-1c.53.08,1.06.14,1.6.18,0,.3,0,.61,0,.91Zm-.88-5.77q.58.14,1.16.23c-.06.25-.11.5-.16.76q-.62-.08-1.23-.21C30.16,29.61,30.23,29.35,30.32,29.09ZM30,30.26l0-.13q.62.13,1.25.21A27.74,27.74,0,0,0,31,33.58a13.77,13.77,0,0,1-1.54-.36C29.59,32.22,29.78,31.24,30,30.26Zm-.7,4.12c0-.3.07-.6.11-.9a14.34,14.34,0,0,0,1.57.36c0,.34,0,.67,0,1-.5,0-1-.1-1.49-.18l-.18,0Zm-.05.55a15.32,15.32,0,0,0,1.68.19c0,1-.07,1.91-.07,2.86l-.59,0c-.38,0-.77,0-1.15-.08Q29.11,36.4,29.24,34.93Zm-.09,4.26c0-.35,0-.71,0-1.06l.56,0,1.18.08q0,.63,0,1.26A12.61,12.61,0,0,1,29.15,39.19Zm2,.35q0-.63,0-1.27c.62,0,1.24.06,1.86.07,0,.42.09.85.15,1.27A16.44,16.44,0,0,1,31.14,39.55Zm2.25.06c-.06-.42-.11-.84-.15-1.26h.33c.42,0,.84,0,1.26,0q.06.59.13,1.17C34.44,39.56,33.91,39.59,33.39,39.61Zm1.84-.14q-.07-.58-.13-1.16c.93-.05,1.86-.15,2.78-.28,0,.34.07.67.11,1C37.08,39.22,36.15,39.37,35.23,39.47Zm4.2-.71L38.25,39c0-.33-.07-.66-.11-1l1.21-.2Q39.39,38.28,39.42,38.77Zm-.1-1.23-1.22.2q-.14-1.22-.33-2.43l1.28-.08C39.17,36,39.26,36.76,39.33,37.54Z"/></g><path class="cls-8" d="M38.56,39s-5.92.92-9,.3L29.82,41s5.47.53,8.91-.62Z"/><path class="cls-9" d="M31.62,27.53c0,.2-2.45,7.08-1.39,14A18.4,18.4,0,0,1,27,41s-2.05-9.39,3.24-14Z"/><path class="cls-9" d="M36.16,27.12c0,.2,2.76,7,2,13.88a18.38,18.38,0,0,0,3.21-.67s1.23-9.87-4.26-14.19Z"/><path class="cls-10" d="M38.58,20.88c-.15-.44-.31-.89-.89-.74-.33.09-.78.48-.74.86v2.57c.52,0,1-.81,1.28-1.19A1.76,1.76,0,0,0,38.58,20.88Z"/><path class="cls-10" d="M28.58,21.61c-.79-.29-2,.16-1.77,1.15a3.64,3.64,0,0,0,1.8,2l-.06-.07Z"/><path class="cls-3" d="M32.62,16.91c-4.86,0-5.92,6.84-2.71,9.89C31.81,28.6,36,28,37.1,25.62,38.49,22.53,36.64,16.89,32.62,16.91Z"/><ellipse class="cls-11" cx="34.65" cy="21.75" rx="0.53" ry="0.88" transform="translate(-1.68 2.95) rotate(-4.75)"/><ellipse class="cls-11" cx="30.71" cy="22.38" rx="0.53" ry="0.88" transform="translate(-4.62 8.38) rotate(-14.47)"/><path class="cls-12" d="M37.26,20.69c-.12,3-2.13,3.13-2.46,3.13s-1.06.13-1.85.13a3.3,3.3,0,0,0-1.92.4c-1.12.46-2.84-.86-2.84-.86s-.91,5.32,5.75,4.37C40.88,26.87,37.26,20.69,37.26,20.69Z"/><path class="cls-10" d="M32.46,23.71c0-.46.44-.95.21-1.41-.07-.15.16-.23.24-.09a1.35,1.35,0,0,1-.07,1,1.47,1.47,0,0,0-.12.52c0,.25.61.1.73.08s.18.22,0,.25C33.12,24.16,32.44,24.26,32.46,23.71Z"/><path class="cls-13" d="M32.38,25.09a1.2,1.2,0,0,0,1.78-.26c.06-.12.25,0,.19.09a1.41,1.41,0,0,1-2.1.33C32.14,25.18,32.27,25,32.38,25.09Z"/><path class="cls-14" d="M28,21.49s1.76-2.12,1.76-3.35C29.73,18.14,27.61,17.43,28,21.49Z"/><path class="cls-14" d="M37.26,20.69s-2-1.85-2.21-3.07C35,17.62,37,16.62,37.26,20.69Z"/><path class="cls-14" d="M35.42,20.25a2.05,2.05,0,0,0-1.35-.11c-.33.08-.19.59.14.51a1.47,1.47,0,0,1,.94.06C35.46,20.84,35.73,20.39,35.42,20.25Z"/><path class="cls-14" d="M29.45,21.18a2.05,2.05,0,0,1,1.21-.62c.34-.06.4.47.06.53a1.47,1.47,0,0,0-.85.41C29.64,21.75,29.21,21.43,29.45,21.18Z"/><path class="cls-4" d="M26.77,39.51c.11.9.23,1.45.23,1.45a18.4,18.4,0,0,0,3.24.53c-.08-.52-.14-1-.18-1.56A20.54,20.54,0,0,1,26.77,39.51Z"/><path class="cls-4" d="M38.29,39.26c0,.57-.05,1.15-.12,1.73a18.38,18.38,0,0,0,3.21-.67s.11-.64.18-1.66A19,19,0,0,1,38.29,39.26Z"/><circle class="cls-15" cx="37.45" cy="28.98" r="0.4"/><circle class="cls-15" cx="38.24" cy="31.36" r="0.4"/><circle class="cls-15" cx="38.77" cy="33.48" r="0.4"/><circle class="cls-15" cx="39.03" cy="35.47" r="0.4"/><circle class="cls-15" cx="39.16" cy="37.58" r="0.4"/><path class="cls-16" d="M39.72,17.67a.23.23,0,0,1-.2.26L25.84,19.77a.23.23,0,0,1-.26-.2h0a.23.23,0,0,1,.2-.26l13.68-1.85a.23.23,0,0,1,.26.2Z"/><path class="cls-17" d="M28.15,19l8.37-1.12s-.13-4.76-4.89-4.1S28.15,19,28.15,19Z"/><path class="cls-11" d="M28,17.94A5.29,5.29,0,0,0,28.15,19l8.37-1.12a5.43,5.43,0,0,0-.23-1.26C35.24,16.82,28.43,17.91,28,17.94Z"/><path class="cls-18" d="M17.52,27.55s-4.39,7.87-.29,9.59l2.84-8.73Z"/><path class="cls-14" d="M23.92,16.4a1.21,1.21,0,0,1-.15-2.05,2.82,2.82,0,0,1,2.71-.28,2.11,2.11,0,0,1,1.33,1.72c0,1-1.2,1.24-2,1.2a3.82,3.82,0,0,1-1.65-.43Z"/><path class="cls-10" d="M18.45,21.11c0,.75,1,1.54,1,1.54l.18-2.29S18.49,20.36,18.45,21.11Z"/><path class="cls-10" d="M28.82,23.7c-.21.72-1.42,1.14-1.42,1.14L28,22.62S29,23,28.82,23.7Z"/><path class="cls-19" d="M22.85,26.7c4.85,0,5.31,10.57,5.06,14.32a12.43,12.43,0,0,1-5.67.52,20.88,20.88,0,0,1-5.33-.93S16.41,26.68,22.85,26.7Z"/><path class="cls-3" d="M23.31,16.73c4.49-.4,6.28,6,3.57,9.11-1.6,1.83-5.76,1.42-7-.68C18.38,22.43,19.59,17.06,23.31,16.73Z"/><path class="cls-12" d="M19.49,20.48s5.64.94,7.57-1.4c0,0,.13,2.74,1.09,3.92,0,0,3.9-5.91-2.76-7.36C18.28,14.1,19.49,20.48,19.49,20.48Z"/><ellipse class="cls-11" cx="21.74" cy="21.8" rx="0.49" ry="0.82" transform="translate(-0.23 0.23) rotate(-0.61)"/><ellipse class="cls-11" cx="25.68" cy="22.5" rx="0.82" ry="0.49" transform="translate(-5.29 36.87) rotate(-66.11)"/><path class="cls-20" d="M27,21.1a1.17,1.17,0,0,0-1.23-.53c-.15,0-.09.38.06.36a.92.92,0,0,1,1,.42C26.83,21.48,27,21.23,27,21.1Z"/><path class="cls-10" d="M24.12,23.75c-.06-.43-.49-.84-.31-1.28.05-.14-.17-.2-.23-.06a1.25,1.25,0,0,0,.15.95,1.36,1.36,0,0,1,.16.47c0,.23-.55.15-.67.14s-.15.22,0,.23C23.55,24.22,24.18,24.25,24.12,23.75Z"/><path class="cls-21" d="M21.41,23.35a.89.89,0,0,1,0,1.26c-.89.7-2-.86-1.18-1.5A1,1,0,0,1,21.41,23.35Z"/><path class="cls-21" d="M25.44,24.17a.83.83,0,0,0-.35,1.13c.62.86,2.06-.25,1.45-1A.92.92,0,0,0,25.44,24.17Z"/><path class="cls-18" d="M28.05,29.1s2.08,6.06-.5,9L25.44,29Z"/><path class="cls-17" d="M28.64,35.85a10.16,10.16,0,0,0,.15-3.18A2,2,0,0,0,28.64,35.85Z"/><path class="cls-22" d="M25.64,21.15a1.32,1.32,0,0,0-1.25.89,1.22,1.22,0,0,0-1.26-.22v0a1.33,1.33,0,1,0,0,.32,1,1,0,0,1,1.21.19l0,0s0,.08,0,.12a1.32,1.32,0,1,0,1.32-1.32ZM21.8,22.91a1.1,1.1,0,1,1,1.08-1,.12.12,0,0,0,0,.1A1.09,1.09,0,0,1,21.8,22.91Zm3.84.66a1.09,1.09,0,1,1,1.09-1.09A1.09,1.09,0,0,1,25.64,23.57Z"/><g class="cls-23"><ellipse class="cls-24" cx="16.05" cy="28.99" rx="0.26" ry="0.2"/><ellipse class="cls-24" cx="17.9" cy="28.99" rx="0.26" ry="0.2"/><ellipse class="cls-24" cx="19.75" cy="28.99" rx="0.26" ry="0.2"/><ellipse class="cls-24" cx="21.6" cy="28.99" rx="0.26" ry="0.2"/><ellipse class="cls-24" cx="23.45" cy="28.99" rx="0.26" ry="0.2"/><ellipse class="cls-24" cx="25.31" cy="28.99" rx="0.26" ry="0.2"/><ellipse class="cls-24" cx="27.16" cy="28.99" rx="0.26" ry="0.2"/><ellipse class="cls-24" cx="29.01" cy="28.99" rx="0.26" ry="0.2"/><ellipse class="cls-24" cx="16.97" cy="30.01" rx="0.26" ry="0.2"/><ellipse class="cls-24" cx="18.82" cy="30.01" rx="0.26" ry="0.2"/><ellipse class="cls-24" cx="20.68" cy="30.01" rx="0.26" ry="0.2"/><ellipse class="cls-24" cx="22.53" cy="30.01" rx="0.26" ry="0.2"/><ellipse class="cls-24" cx="24.38" cy="30.01" rx="0.26" ry="0.2"/><ellipse class="cls-24" cx="26.23" cy="30.01" rx="0.26" ry="0.2"/><ellipse class="cls-24" cx="28.08" cy="30.01" rx="0.26" ry="0.2"/><ellipse class="cls-24" cx="16.05" cy="31.24" rx="0.26" ry="0.2"/><ellipse class="cls-24" cx="17.9" cy="31.24" rx="0.26" ry="0.2"/><ellipse class="cls-24" cx="19.75" cy="31.24" rx="0.26" ry="0.2"/><ellipse class="cls-24" cx="21.6" cy="31.24" rx="0.26" ry="0.2"/><ellipse class="cls-24" cx="23.45" cy="31.24" rx="0.26" ry="0.2"/><ellipse class="cls-24" cx="25.31" cy="31.24" rx="0.26" ry="0.2"/><ellipse class="cls-24" cx="27.16" cy="31.24" rx="0.26" ry="0.2"/><ellipse class="cls-24" cx="29.01" cy="31.24" rx="0.26" ry="0.2"/><ellipse class="cls-24" cx="16.97" cy="32.26" rx="0.26" ry="0.2"/><ellipse class="cls-24" cx="18.82" cy="32.26" rx="0.26" ry="0.2"/><ellipse class="cls-24" cx="20.68" cy="32.26" rx="0.26" ry="0.2"/><ellipse class="cls-24" cx="22.53" cy="32.26" rx="0.26" ry="0.2"/><ellipse class="cls-24" cx="24.38" cy="32.26" rx="0.26" ry="0.2"/><ellipse class="cls-24" cx="26.23" cy="32.26" rx="0.26" ry="0.2"/><ellipse class="cls-24" cx="28.08" cy="32.26" rx="0.26" ry="0.2"/><ellipse class="cls-24" cx="16.05" cy="33.49" rx="0.26" ry="0.2"/><ellipse class="cls-24" cx="17.9" cy="33.49" rx="0.26" ry="0.2"/><ellipse class="cls-24" cx="19.75" cy="33.49" rx="0.26" ry="0.2"/><ellipse class="cls-24" cx="21.6" cy="33.49" rx="0.26" ry="0.2"/><ellipse class="cls-24" cx="23.45" cy="33.49" rx="0.26" ry="0.2"/><ellipse class="cls-24" cx="25.31" cy="33.49" rx="0.26" ry="0.2"/><ellipse class="cls-24" cx="27.16" cy="33.49" rx="0.26" ry="0.2"/><ellipse class="cls-24" cx="29.01" cy="33.49" rx="0.26" ry="0.2"/><ellipse class="cls-24" cx="16.97" cy="34.51" rx="0.26" ry="0.2"/><ellipse class="cls-24" cx="18.82" cy="34.51" rx="0.26" ry="0.2"/><ellipse class="cls-24" cx="20.68" cy="34.51" rx="0.26" ry="0.2"/><ellipse class="cls-24" cx="22.53" cy="34.51" rx="0.26" ry="0.2"/><ellipse class="cls-24" cx="24.38" cy="34.51" rx="0.26" ry="0.2"/><ellipse class="cls-24" cx="26.23" cy="34.51" rx="0.26" ry="0.2"/><ellipse class="cls-24" cx="28.08" cy="34.51" rx="0.26" ry="0.2"/><ellipse class="cls-24" cx="16.05" cy="35.73" rx="0.26" ry="0.2"/><ellipse class="cls-24" cx="17.9" cy="35.73" rx="0.26" ry="0.2"/><ellipse class="cls-24" cx="19.75" cy="35.73" rx="0.26" ry="0.2"/><ellipse class="cls-24" cx="21.6" cy="35.73" rx="0.26" ry="0.2"/><ellipse class="cls-24" cx="23.45" cy="35.73" rx="0.26" ry="0.2"/><ellipse class="cls-24" cx="25.31" cy="35.73" rx="0.26" ry="0.2"/><ellipse class="cls-24" cx="27.16" cy="35.73" rx="0.26" ry="0.2"/><ellipse class="cls-24" cx="29.01" cy="35.73" rx="0.26" ry="0.2"/><ellipse class="cls-24" cx="16.97" cy="36.76" rx="0.26" ry="0.2"/><ellipse class="cls-24" cx="18.82" cy="36.76" rx="0.26" ry="0.2"/><ellipse class="cls-24" cx="20.68" cy="36.76" rx="0.26" ry="0.2"/><ellipse class="cls-24" cx="22.53" cy="36.76" rx="0.26" ry="0.2"/><ellipse class="cls-24" cx="24.38" cy="36.76" rx="0.26" ry="0.2"/><ellipse class="cls-24" cx="26.23" cy="36.76" rx="0.26" ry="0.2"/><ellipse class="cls-24" cx="28.08" cy="36.76" rx="0.26" ry="0.2"/><ellipse class="cls-24" cx="16.05" cy="37.98" rx="0.26" ry="0.2"/><ellipse class="cls-24" cx="17.9" cy="37.98" rx="0.26" ry="0.2"/><ellipse class="cls-24" cx="19.75" cy="37.98" rx="0.26" ry="0.2"/><ellipse class="cls-24" cx="21.6" cy="37.98" rx="0.26" ry="0.2"/><ellipse class="cls-24" cx="23.45" cy="37.98" rx="0.26" ry="0.2"/><ellipse class="cls-24" cx="25.31" cy="37.98" rx="0.26" ry="0.2"/><ellipse class="cls-24" cx="27.16" cy="37.98" rx="0.26" ry="0.2"/><ellipse class="cls-24" cx="29.01" cy="37.98" rx="0.26" ry="0.2"/><ellipse class="cls-24" cx="16.97" cy="39" rx="0.26" ry="0.2"/><ellipse class="cls-24" cx="18.82" cy="39" rx="0.26" ry="0.2"/><ellipse class="cls-24" cx="20.68" cy="39" rx="0.26" ry="0.2"/><ellipse class="cls-24" cx="22.53" cy="39" rx="0.26" ry="0.2"/><ellipse class="cls-24" cx="24.38" cy="39" rx="0.26" ry="0.2"/><ellipse class="cls-24" cx="26.23" cy="39" rx="0.26" ry="0.2"/><ellipse class="cls-24" cx="28.08" cy="39" rx="0.26" ry="0.2"/><ellipse class="cls-24" cx="16.05" cy="40.23" rx="0.26" ry="0.2"/><ellipse class="cls-24" cx="17.9" cy="40.23" rx="0.26" ry="0.2"/><ellipse class="cls-24" cx="19.75" cy="40.23" rx="0.26" ry="0.2"/><ellipse class="cls-24" cx="21.6" cy="40.23" rx="0.26" ry="0.2"/><ellipse class="cls-24" cx="23.45" cy="40.23" rx="0.26" ry="0.2"/><ellipse class="cls-24" cx="25.31" cy="40.23" rx="0.26" ry="0.2"/><ellipse class="cls-24" cx="27.16" cy="40.23" rx="0.26" ry="0.2"/><ellipse class="cls-24" cx="29.01" cy="40.23" rx="0.26" ry="0.2"/><ellipse class="cls-24" cx="16.97" cy="41.25" rx="0.26" ry="0.2"/><ellipse class="cls-24" cx="18.82" cy="41.25" rx="0.26" ry="0.2"/><ellipse class="cls-24" cx="20.68" cy="41.25" rx="0.26" ry="0.2"/><ellipse class="cls-24" cx="22.53" cy="41.25" rx="0.26" ry="0.2"/><ellipse class="cls-24" cx="24.38" cy="41.25" rx="0.26" ry="0.2"/><ellipse class="cls-24" cx="26.23" cy="41.25" rx="0.26" ry="0.2"/><ellipse class="cls-24" cx="28.08" cy="41.25" rx="0.26" ry="0.2"/></g><path class="cls-17" d="M26,29.33l-1.43-.4s.66,8.4.6,11.44L28,40.25S28,32.24,26,29.33Z"/><path class="cls-17" d="M19.55,28.21c-2.31,1.92-2.84,11.38-2.84,11.38l3.37.53A88.18,88.18,0,0,1,21.47,28.6Z"/><path class="cls-13" d="M24.26,24.68a1.56,1.56,0,0,1-1.88-.33c-.09-.13-.31,0-.22.13a1.81,1.81,0,0,0,2.22.42C24.54,24.83,24.41,24.61,24.26,24.68Z"/><path class="cls-25" d="M20.48,25.87a8,8,0,0,0,5.64.57S28,27.52,28.05,29.1c0,0-5.73,1.21-10.53-1.55C17.52,27.55,18.85,25.52,20.48,25.87Z"/><path class="cls-26" d="M28,28.65l0-.13a13.8,13.8,0,0,1-2.22.32.06.06,0,0,0-.06.06,6.94,6.94,0,0,0-.63-.67,23,23,0,0,0,2.47-.56l-.09-.11a20.85,20.85,0,0,1-2.44.55l0,0c-.14-.12-.29-.25-.44-.36a12,12,0,0,1,2.19-.94l-.13-.1a12.18,12.18,0,0,0-2.18.95c-.16-.12-.33-.23-.5-.34a10.75,10.75,0,0,0-1.66-.85,8.36,8.36,0,0,1-1.73-.63l-.16,0a5.25,5.25,0,0,0,1.33.59,11.24,11.24,0,0,1,1.85.84,8,8,0,0,1,.79.5.07.07,0,0,0,.08.06,6.89,6.89,0,0,1,1.49,1.5H26L25.73,29h0A14,14,0,0,0,28,28.65Z"/><path class="cls-18" d="M16.81,38.24c-.07.82-.1,1.34-.1,1.34l3.37.53c0-.41,0-.84.07-1.3C19,38.61,17.91,38.48,16.81,38.24Z"/><path class="cls-17" d="M15.83,35.82a2.45,2.45,0,0,0-.11-3.62A5.74,5.74,0,0,0,15.83,35.82Z"/><path class="cls-18" d="M25.17,39.38c0,.37,0,.71,0,1L28,40.25s0-.36,0-.95C27,39.36,26.1,39.4,25.17,39.38Z"/><polygon class="cls-6" points="42.32 39.74 42.99 41.24 45.65 40.18 45.38 38.51 42.32 39.74"/><path class="cls-27" d="M41.52,39.76l-2.33-4.38a.59.59,0,0,0-.37-.29h0l-9.69-2.62a.6.6,0,0,0-.31,0l-9.74,2.62h0a.59.59,0,0,0-.37.29l-2.33,4.38a.59.59,0,0,0,.27.81l1.86.88a.28.28,0,0,1,.16.26v5.63a.88.88,0,0,0,.5.79l9.54,4.61a.59.59,0,0,0,.51,0h0l9.55-4.61a.88.88,0,0,0,.49-.79V41.51l2-.93a.59.59,0,0,0,.27-.81Z"/><path class="cls-28" d="M19.86,47V42.54a.28.28,0,0,1,.41-.26l6,2.85a.59.59,0,0,0,.79-.29l.76-1.68a.28.28,0,0,1,.54.12v7.53a.28.28,0,0,1-.41.26l-8-3.84A.28.28,0,0,1,19.86,47Z"/><path class="cls-28" d="M38.09,47.15,30,51.07a.28.28,0,0,1-.41-.26V43.39a.28.28,0,0,1,.54-.12l.71,1.57a.59.59,0,0,0,.79.29l6.07-2.87a.28.28,0,0,1,.41.26v4.63Z"/><path class="cls-29" d="M29,33.67l6.82,1.84a.28.28,0,0,1,0,.54L29,38.59a.28.28,0,0,1-.2,0L22,36.06a.28.28,0,0,1,0-.54l6.86-1.84A.28.28,0,0,1,29,33.67Z"/><path class="cls-29" d="M17.86,39.51l1.54-2.9a.28.28,0,0,1,.35-.13l8.12,3a.28.28,0,0,1,.16.38l-1.66,3.67a.28.28,0,0,1-.38.14L18,39.9A.28.28,0,0,1,17.86,39.51Z"/><path class="cls-29" d="M31.53,43.54l-1.66-3.67a.28.28,0,0,1,.16-.38l8.12-3a.28.28,0,0,1,.35.13L40,39.51a.28.28,0,0,1-.13.39l-8,3.78A.28.28,0,0,1,31.53,43.54Z"/></g></g></svg>