<svg id="Calque_1" data-name="Calque 1" xmlns="http://www.w3.org/2000/svg" viewBox="0 0 68.03 68.03"><defs><style>.cls-1{fill:#78de85;}.cls-2{fill:#41363c;}.cls-3{fill:#f5b131;}.cls-4{fill:#f5c388;}.cls-5{fill:#e4e4e4;}.cls-6{fill:#3b313b;}</style></defs><title>service4</title><rect class="cls-1" x="4.97" y="4.85" width="58.34" height="58.34" rx="19.86" ry="19.86"/><path class="cls-2" d="M42.15,41.33l-2.6-4.9a.66.66,0,0,0-.41-.33h0L28.41,33.21a1.15,1.15,0,0,0-.6,0L17,36.1h0a.66.66,0,0,0-.41.33L14,41.33a.66.66,0,0,0,.3.91l2,.94a.48.48,0,0,1,.28.44v6.09a1.15,1.15,0,0,0,.65,1l10.58,5.11a.66.66,0,0,0,.29.07.65.65,0,0,0,.28-.07h0l10.86-5.24a.66.66,0,0,0,.38-.6V43.29l2.21-1a.66.66,0,0,0,.3-.91Z"/><path class="cls-3" d="M17.92,49.29V44.7a.48.48,0,0,1,.69-.44l6.5,3.07a.65.65,0,0,0,.28.06.65.65,0,0,0,.23,0A.66.66,0,0,0,26,47l.53-1.18a.48.48,0,0,1,.92.2v7.4a.48.48,0,0,1-.69.43l-8.57-4.13A.48.48,0,0,1,17.92,49.29Z"/><path class="cls-3" d="M38.31,49.6l-8.84,4.27a.48.48,0,0,1-.69-.43V46.15a.48.48,0,0,1,.92-.2L30.18,47a.66.66,0,0,0,.6.39.65.65,0,0,0,.28-.06l6.56-3.1a.48.48,0,0,1,.69.44V49.6Z"/><path class="cls-4" d="M28.24,34.53l7.09,1.91a.48.48,0,0,1,0,.92l-6.65,2.46a1.83,1.83,0,0,1-1.27,0l-6.64-2.46a.48.48,0,0,1,0-.92L28,34.53A.48.48,0,0,1,28.24,34.53Z"/><path class="cls-4" d="M15.76,40.89l1.57-3a.48.48,0,0,1,.59-.23L26.71,41a.48.48,0,0,1,.27.65l-1.71,3.79a.48.48,0,0,1-.65.24L16,41.56A.48.48,0,0,1,15.76,40.89Z"/><path class="cls-4" d="M30.91,45.41l-1.71-3.79a.48.48,0,0,1,.27-.65l8.79-3.26a.48.48,0,0,1,.59.23l1.57,3a.48.48,0,0,1-.22.66l-8.64,4.09A.48.48,0,0,1,30.91,45.41Z"/><path class="cls-2" d="M34.56,56a1.83,1.83,0,0,1-1.91-2V25a.2.2,0,0,0-.2-.2H27.82a.2.2,0,0,1-.2-.2V19.24h0a2.08,2.08,0,0,1,.5-1.53,3.36,3.36,0,0,1,2.65-.92h21a2.63,2.63,0,0,1,2.51,2.64V55.82a.2.2,0,0,1-.2.2H34.56ZM32.65,17.3"/><path class="cls-5" d="M33.36,17.3a.2.2,0,0,0-.2.2V54a1.34,1.34,0,0,0,1.41,1.53h19a.2.2,0,0,0,.2-.2V19.43c0-2-2.14-2.14-2.22-2.14Z"/><path class="cls-5" d="M30.67,17.3a2.78,2.78,0,0,0-2.22.75,1.52,1.52,0,0,0-.35,1.16l0,4.93a.2.2,0,0,0,.2.2h4.13a.2.2,0,0,0,.2-.2V17.5a.2.2,0,0,0-.2-.2Z"/><path class="cls-6" d="M46.73,22.32h-7a.25.25,0,1,1,0-.5h7a.25.25,0,0,1,0,.5Z"/><path class="cls-6" d="M49.25,25.34H41.7a.25.25,0,0,1,0-.5h7.54a.25.25,0,1,1,0,.5Z"/><path class="cls-6" d="M49.25,28.36H41.7a.25.25,0,0,1,0-.5h7.54a.25.25,0,1,1,0,.5Z"/><path class="cls-6" d="M49.25,31.38H41.7a.25.25,0,0,1,0-.5h7.54a.25.25,0,1,1,0,.5Z"/><path class="cls-6" d="M49.25,34.9H41.7a.25.25,0,0,1,0-.5h7.54a.25.25,0,1,1,0,.5Z"/><path class="cls-6" d="M49.25,37.91H41.7a.25.25,0,0,1,0-.5h7.54a.25.25,0,1,1,0,.5Z"/><path class="cls-6" d="M49.25,40.93H41.7a.25.25,0,0,1,0-.5h7.54a.25.25,0,1,1,0,.5Z"/><path class="cls-6" d="M49.25,43.45H41.7a.25.25,0,0,1,0-.5h7.54a.25.25,0,1,1,0,.5Z"/><path class="cls-6" d="M39.19,34.9h-3a.25.25,0,0,1,0-.5h3a.25.25,0,1,1,0,.5Z"/><path class="cls-6" d="M39.19,31.38h-3a.25.25,0,0,1,0-.5h3a.25.25,0,1,1,0,.5Z"/><path class="cls-6" d="M39.19,28.36h-3a.25.25,0,0,1,0-.5h3a.25.25,0,1,1,0,.5Z"/><path class="cls-6" d="M39.19,37.91h-3a.25.25,0,0,1,0-.5h3a.25.25,0,1,1,0,.5Z"/><path class="cls-6" d="M39.19,40.93h-3a.25.25,0,0,1,0-.5h3a.25.25,0,1,1,0,.5Z"/><path class="cls-6" d="M39.19,43.45h-3a.25.25,0,0,1,0-.5h3a.25.25,0,0,1,0,.5Z"/><path class="cls-6" d="M39.19,25.34h-3a.25.25,0,0,1,0-.5h3a.25.25,0,1,1,0,.5Z"/><path class="cls-6" d="M49.25,50H36.17a.25.25,0,0,1,0-.5H49.25a.25.25,0,1,1,0,.5Z"/></svg>