<svg id="Calque_1" data-name="Calque 1" xmlns="http://www.w3.org/2000/svg" viewBox="0 0 68.03 68.03"><defs><style>.cls-1{fill:#78de85;}.cls-2{fill:#41363c;}.cls-3{fill:#f5b131;}.cls-4{fill:#f5c388;}</style></defs><title>service3</title><rect class="cls-1" x="5.45" y="7.04" width="57.95" height="57.95" rx="19.86" ry="19.86"/><path class="cls-2" d="M51.35,32.17l-3.13-5.9a.8.8,0,0,0-.49-.39h0L34.67,22.34a.8.8,0,0,0-.41,0L21.14,25.87h0a.8.8,0,0,0-.49.39l-3.13,5.9a.8.8,0,0,0,.36,1.09l2.51,1.18a.38.38,0,0,1,.22.35v7.58a1.18,1.18,0,0,0,.67,1.06l12.85,6.2a.79.79,0,0,0,.69,0h0l12.85-6.2a1.18,1.18,0,0,0,.67-1.06V34.52L51,33.26a.8.8,0,0,0,.36-1.09Z"/><path class="cls-3" d="M22.19,41.87v-6a.38.38,0,0,1,.55-.35l8.11,3.83A.8.8,0,0,0,31.91,39l1-2.26a.38.38,0,0,1,.73.16V47a.38.38,0,0,1-.55.34L22.41,42.22A.38.38,0,0,1,22.19,41.87Z"/><path class="cls-3" d="M46.73,42.11,35.81,47.38a.38.38,0,0,1-.55-.34V37a.38.38,0,0,1,.73-.16l1,2.11a.8.8,0,0,0,1.07.39l8.18-3.86a.38.38,0,0,1,.55.35v6.24Z"/><path class="cls-4" d="M34.56,24l9.18,2.48a.38.38,0,0,1,0,.73l-9.21,3.42a.38.38,0,0,1-.27,0l-9.21-3.41a.38.38,0,0,1,0-.73L34.36,24A.38.38,0,0,1,34.56,24Z"/><path class="cls-4" d="M19.5,31.82l2.07-3.9a.38.38,0,0,1,.47-.18L33,31.8a.38.38,0,0,1,.22.52L31,37.25a.38.38,0,0,1-.51.19L19.67,32.35A.38.38,0,0,1,19.5,31.82Z"/><path class="cls-4" d="M37.9,37.25l-2.23-4.94a.38.38,0,0,1,.22-.52l10.94-4.05a.38.38,0,0,1,.47.18l2.07,3.9a.38.38,0,0,1-.17.52L38.42,37.44A.38.38,0,0,1,37.9,37.25Z"/></svg>