<svg id="Calque_1" data-name="Calque 1" xmlns="http://www.w3.org/2000/svg" viewBox="0 0 68.03 68.03"><defs><style>.cls-1{fill:#78de85;}.cls-2{fill:#048ac4;}.cls-10,.cls-11,.cls-12,.cls-13,.cls-14,.cls-15,.cls-16,.cls-2,.cls-3,.cls-4,.cls-5,.cls-6,.cls-7,.cls-8,.cls-9{fill-rule:evenodd;}.cls-3{fill:#151717;}.cls-4{fill:#042847;}.cls-5{fill:#eebf7d;}.cls-6{fill:#05345e;}.cls-7{fill:#ffd9a5;}.cls-9{fill:#ddc173;}.cls-10{fill:#caae66;}.cls-11{fill:#bfa763;}.cls-12{fill:#ead992;}.cls-13{fill:#e5ecf4;}.cls-14{fill:#888689;}.cls-15{fill:#f6e8ad;}.cls-16{fill:#099dde;}</style></defs><title>service1</title><rect class="cls-1" x="6.23" y="5.55" width="58.69" height="58.69" rx="19.86" ry="19.86" transform="translate(-0.06 0.06) rotate(-0.09)"/><path class="cls-2" d="M30.43,20.08c-2.49,1.25-3.85,2.58-3,3s3.48-.28,6-1.52,3.85-2.58,3-3S32.92,18.83,30.43,20.08Z"/><path class="cls-3" d="M27.8,45.67a13.35,13.35,0,0,0-.44,1.56c-.08.42-.11.9-.17,1.38s.19.81,0,1.11-.36.31-.78.17a2.65,2.65,0,0,1-1.15-1.11A5.09,5.09,0,0,1,24.84,46l-.21.07L24.39,45l.65-.57a3,3,0,0,1,1.53-.51l.59.8Z"/><path class="cls-4" d="M32,39.08l-5.51,4.63c-.26,0-.31.66-.1,1.48s.68,1.72,1,1.81a.18.18,0,0,0,.19-.05c2.27-1.56,4.32-3.27,6.32-4.8Z"/><path class="cls-3" d="M35.5,52.75a15.28,15.28,0,0,0,1.07,1.31c.32.33.71.66,1.1,1s.83.41,1,.71,0,.44-.36.62a3.31,3.31,0,0,1-1.72,0,6.91,6.91,0,0,1-2.75-1.56l-.08.18-1.08-.53-.06-.8c.05-.68.19-.73.56-1.33l1.09.14Z"/><path class="cls-5" d="M45,23.71l-.08.54s.14.42.15.44.89.16.89.16l.23-.33C46.78,23.65,46,23.77,45,23.71Z"/><path class="cls-4" d="M33.21,32.06c-3.05,2.54-1.72,4.39-2.28,7.72l3.67,1.68A33,33,0,0,0,36,31.61Z"/><path class="cls-6" d="M28.23,34.56C28,38.21,31.16,41,32.89,44.11c0,2.59,0,5.3-.06,8.1-.13.2.37.64,1.21,1.06a3.86,3.86,0,0,0,2.24.56.14.14,0,0,0,.08-.16c.26-3.63.34-7.18.29-10.3,0-1.76-2.42-6.39-4.1-9.35Z"/><path class="cls-5" d="M31,18a6.59,6.59,0,0,1,0,2.19l1.68.6,1-.17c0-.56.08-1.11.15-1.66Z"/><path class="cls-2" d="M33.8,19.19c.87-.55,2.38-1,2.8-.44,1.61,2.23-.36,9.33-.37,10.43,0,.7,0,1.6-.06,2.5a.38.38,0,0,1,0,.13c.14.47-1,1.43-2.77,2.33-2.11,1.06-4.38,1.63-5.06,1.29a.31.31,0,0,1-.19-.36h0a53,53,0,0,0,.06-5.4c-.15-1.55-1.2-7.22.06-8.19A19.74,19.74,0,0,1,31,19.95a3.21,3.21,0,0,0,2,.71C33.41,20.37,33.58,19.65,33.8,19.19Z"/><path class="cls-7" d="M35.06,16.6a3.46,3.46,0,0,1-.45,2,3,3,0,0,1-.52.93,1.64,1.64,0,0,1-.79.12A8.89,8.89,0,0,1,31.63,19c-.73-.32-.68-.5-.84-1.24l-.38-1.06.22-2.12a7.68,7.68,0,0,1,3.43-.45C34.76,14.33,35.1,15,35.06,16.6Z"/><path class="cls-8" d="M31,13.69c-2.11.41-1,3.14-.14,4.37.08-.62-.32-1.29,0-1.45s.73-.07,1,.76c.3-.81-.17-.6.22-1.61,1,.56,3.06.18,3.48-.65-.34-.17-.61-1.09-1.41-1.49A3.3,3.3,0,0,0,31,13.69Z"/><polygon class="cls-9" points="38.84 26.48 38.68 27.3 38.87 32.41 45.92 28.88 45.89 22.95 38.84 26.48"/><polygon class="cls-10" points="38.84 26.48 32.16 23.14 32.19 29.07 38.87 32.41 38.84 26.48"/><polygon class="cls-11" points="45.89 22.95 39.21 19.62 32.16 23.14 38.84 26.48 45.89 22.95"/><polygon class="cls-12" points="38.68 25.88 38.85 27.04 46.25 23.34 46.24 22.29 38.68 25.88"/><polygon class="cls-13" points="41.93 25.72 41.94 26.8 39.54 28 39.53 26.92 41.93 25.72"/><path class="cls-14" d="M40,26.84v.8l-.26.13V27l.26-.13Zm1.8-.09-.25.13v-.8l.25-.13v.8Zm-.45.23-.25.13v-.8l.25-.13V27Zm-.47.24-.25.13v-.8l.25-.13v.8Zm-.69.34v-.8l.25-.13v.8Z"/><polygon class="cls-9" points="38.84 25.98 31.82 22.48 31.83 23.53 38.85 27.04 38.84 25.98"/><polygon class="cls-15" points="46.24 22.29 39.22 18.78 31.82 22.48 38.84 25.98 46.24 22.29"/><path class="cls-7" d="M37,29.17a2.14,2.14,0,0,0,.8-.32,1.54,1.54,0,0,1,.92-.12,6.52,6.52,0,0,1,.92.12c-.07.46-.63.34-.89.29s-.29,0-.38.13a1.88,1.88,0,0,0,.74.11c.59,0,.64-.19,1-.4a5.22,5.22,0,0,1,.11.86c0,.27,0,.33-.17.54A3.91,3.91,0,0,1,39,31.2l-2.06-.36Z"/><path class="cls-16" d="M29.38,30.32l7.46.82A2.36,2.36,0,0,0,37.42,29l-7.59-1a1.27,1.27,0,0,0-1.66,1.28C28.22,29.69,28.44,30.07,29.38,30.32Z"/><path class="cls-16" d="M27.08,23c-.32,1.8.73,3.91,1.09,6.3.3,1.24,2.76,1,2.53-.62l0-2.86c0-1.12-.42-4.56-2.41-4.2A1.56,1.56,0,0,0,27.08,23Z"/><path class="cls-7" d="M46.43,24.32c.35.18.4.26.18.51a1.88,1.88,0,0,1-.55.4c-.27.15-.26.09-.62.06l-.34-.05c.11-.39.13-.35.74-.4Z"/><path class="cls-7" d="M46.65,24.76a1.3,1.3,0,0,1,.11.35,1.11,1.11,0,0,1-.22.39.81.81,0,0,1-.39.19l-.24.06a3.65,3.65,0,0,1-.74,0c.07-.54.18-.42.84-.53Z"/><path class="cls-7" d="M46.55,25.3a3.58,3.58,0,0,1,.18.37.29.29,0,0,1-.08.21.68.68,0,0,1-.32.17l-.2.06a3.09,3.09,0,0,1-.63,0c0-.46.14-.36.68-.46Z"/><path class="cls-7" d="M46.55,24c.05.07,0,.18-.09.31a1.63,1.63,0,0,1-.3.4,1.87,1.87,0,0,1-1,.13c-.14-.34.12-.4.6-.5.08-.16.19-.43.42-.45A.34.34,0,0,1,46.55,24Z"/></svg>