<svg id="Calque_1" data-name="Calque 1" xmlns="http://www.w3.org/2000/svg" viewBox="0 0 80.67 15.83"><defs><style>.cls-1{fill:#dc0c15;}.cls-2{fill:none;stroke:#dc0c15;stroke-miterlimit:10;}</style></defs><title>3e</title><path class="cls-1" d="M10.43,1.73l1.15,2.33a.93.93,0,0,0,.7.51l2.57.37a.93.93,0,0,1,.52,1.59L13.51,8.35a.93.93,0,0,0-.27.83l.44,2.56a.93.93,0,0,1-1.35,1L10,11.51a.93.93,0,0,0-.87,0l-2.3,1.21a.93.93,0,0,1-1.35-1l.44-2.56a.93.93,0,0,0-.27-.83L3.81,6.54a.93.93,0,0,1,.52-1.59L6.9,4.57a.93.93,0,0,0,.7-.51L8.75,1.73A.93.93,0,0,1,10.43,1.73Z"/><path class="cls-1" d="M26.15,1.73,27.3,4.06a.93.93,0,0,0,.7.51l2.57.37a.93.93,0,0,1,.52,1.59L29.23,8.35a.93.93,0,0,0-.27.83l.44,2.56a.93.93,0,0,1-1.35,1l-2.3-1.21a.93.93,0,0,0-.87,0l-2.3,1.21a.93.93,0,0,1-1.35-1l.44-2.56a.93.93,0,0,0-.27-.83L19.54,6.54a.93.93,0,0,1,.52-1.59l2.57-.37a.93.93,0,0,0,.7-.51l1.15-2.33A.93.93,0,0,1,26.15,1.73Z"/><path class="cls-1" d="M41.88,1.73,43,4.06a.93.93,0,0,0,.7.51l2.57.37a.93.93,0,0,1,.52,1.59L45,8.35a.93.93,0,0,0-.27.83l.44,2.56a.93.93,0,0,1-1.35,1l-2.3-1.21a.93.93,0,0,0-.87,0l-2.3,1.21a.93.93,0,0,1-1.35-1l.44-2.56a.93.93,0,0,0-.27-.83L35.26,6.54a.93.93,0,0,1,.52-1.59l2.57-.37a.93.93,0,0,0,.7-.51L40.2,1.73A.93.93,0,0,1,41.88,1.73Z"/><path class="cls-2" d="M57.6,1.73l1.15,2.33a.93.93,0,0,0,.7.51L62,4.94a.93.93,0,0,1,.52,1.59L60.68,8.35a.93.93,0,0,0-.27.83l.44,2.56a.93.93,0,0,1-1.35,1l-2.3-1.21a.93.93,0,0,0-.87,0L54,12.72a.93.93,0,0,1-1.35-1l.44-2.56a.93.93,0,0,0-.27-.83L51,6.54a.93.93,0,0,1,.52-1.59l2.57-.37a.93.93,0,0,0,.7-.51l1.15-2.33A.93.93,0,0,1,57.6,1.73Z"/><path class="cls-2" d="M73.33,1.73l1.15,2.33a.93.93,0,0,0,.7.51l2.57.37a.93.93,0,0,1,.52,1.59L76.41,8.35a.93.93,0,0,0-.27.83l.44,2.56a.93.93,0,0,1-1.35,1l-2.3-1.21a.93.93,0,0,0-.87,0l-2.3,1.21a.93.93,0,0,1-1.35-1l.44-2.56a.93.93,0,0,0-.27-.83L66.71,6.54a.93.93,0,0,1,.52-1.59l2.57-.37a.93.93,0,0,0,.7-.51l1.15-2.33A.93.93,0,0,1,73.33,1.73Z"/></svg>