<svg id="Calque_1" data-name="Calque 1" xmlns="http://www.w3.org/2000/svg" viewBox="0 0 80.67 15.83"><defs><style>.cls-1{fill:#dc0c15;}.cls-2{fill:none;stroke:#dc0c15;stroke-miterlimit:10;}</style></defs><title>4e</title><path class="cls-1" d="M10.25,3l1.14,2.3a.92.92,0,0,0,.69.5l2.54.37a.92.92,0,0,1,.51,1.57L13.3,9.57a.92.92,0,0,0-.27.82l.43,2.53a.92.92,0,0,1-1.34,1L9.86,12.7a.92.92,0,0,0-.86,0l-2.27,1.2a.92.92,0,0,1-1.34-1l.43-2.53a.92.92,0,0,0-.27-.82L3.71,7.78A.92.92,0,0,1,4.22,6.2l2.54-.37a.92.92,0,0,0,.69-.5L8.6,3A.92.92,0,0,1,10.25,3Z"/><path class="cls-1" d="M25.8,3l1.14,2.3a.92.92,0,0,0,.69.5l2.54.37a.92.92,0,0,1,.51,1.57L28.85,9.57a.92.92,0,0,0-.27.82L29,12.92a.92.92,0,0,1-1.34,1L25.4,12.7a.92.92,0,0,0-.86,0l-2.27,1.2a.92.92,0,0,1-1.34-1l.43-2.53a.92.92,0,0,0-.27-.82L19.26,7.78a.92.92,0,0,1,.51-1.57l2.54-.37a.92.92,0,0,0,.69-.5L24.15,3A.92.92,0,0,1,25.8,3Z"/><path class="cls-1" d="M41.35,3l1.14,2.3a.92.92,0,0,0,.69.5l2.54.37a.92.92,0,0,1,.51,1.57L44.39,9.57a.92.92,0,0,0-.27.82l.43,2.53a.92.92,0,0,1-1.34,1l-2.27-1.2a.92.92,0,0,0-.86,0l-2.27,1.2a.92.92,0,0,1-1.34-1l.43-2.53a.92.92,0,0,0-.27-.82L34.81,7.78a.92.92,0,0,1,.51-1.57l2.54-.37a.92.92,0,0,0,.69-.5L39.69,3A.92.92,0,0,1,41.35,3Z"/><path class="cls-1" d="M56.89,3,58,5.33a.92.92,0,0,0,.69.5l2.54.37a.92.92,0,0,1,.51,1.57L59.94,9.57a.92.92,0,0,0-.27.82l.43,2.53a.92.92,0,0,1-1.34,1L56.5,12.7a.92.92,0,0,0-.86,0l-2.27,1.2a.92.92,0,0,1-1.34-1l.43-2.53a.92.92,0,0,0-.27-.82L50.35,7.78a.92.92,0,0,1,.51-1.57l2.54-.37a.92.92,0,0,0,.69-.5L55.24,3A.92.92,0,0,1,56.89,3Z"/><path class="cls-2" d="M72.44,3l1.14,2.3a.92.92,0,0,0,.69.5l2.54.37a.92.92,0,0,1,.51,1.57L75.49,9.57a.92.92,0,0,0-.27.82l.43,2.53a.92.92,0,0,1-1.34,1L72,12.7a.92.92,0,0,0-.86,0l-2.27,1.2a.92.92,0,0,1-1.34-1L68,10.39a.92.92,0,0,0-.27-.82L65.9,7.78a.92.92,0,0,1,.51-1.57L69,5.83a.92.92,0,0,0,.69-.5L70.79,3A.92.92,0,0,1,72.44,3Z"/></svg>