<svg id="Calque_1" data-name="Calque 1" xmlns="http://www.w3.org/2000/svg" viewBox="0 0 80.67 15.83"><defs><style>.cls-1{fill:#dc0c15;}</style></defs><title>5e</title><path class="cls-1" d="M10.34,1.82l1.15,2.33a.93.93,0,0,0,.7.51L14.77,5a.93.93,0,0,1,.52,1.59L13.42,8.45a.93.93,0,0,0-.27.83l.44,2.56a.93.93,0,0,1-1.36,1l-2.3-1.21a.93.93,0,0,0-.87,0l-2.3,1.21a.93.93,0,0,1-1.36-1l.44-2.56a.93.93,0,0,0-.27-.83L3.72,6.64A.93.93,0,0,1,4.23,5l2.57-.37a.93.93,0,0,0,.7-.51L8.66,1.82A.93.93,0,0,1,10.34,1.82Z"/><path class="cls-1" d="M26.08,1.82l1.15,2.33a.93.93,0,0,0,.7.51L30.51,5A.93.93,0,0,1,31,6.64L29.17,8.45a.93.93,0,0,0-.27.83l.44,2.56a.93.93,0,0,1-1.36,1l-2.3-1.21a.93.93,0,0,0-.87,0l-2.3,1.21a.93.93,0,0,1-1.36-1l.44-2.56a.93.93,0,0,0-.27-.83L19.46,6.64A.93.93,0,0,1,20,5l2.57-.37a.93.93,0,0,0,.7-.51l1.15-2.33A.93.93,0,0,1,26.08,1.82Z"/><path class="cls-1" d="M41.83,1.82,43,4.16a.93.93,0,0,0,.7.51L46.26,5a.93.93,0,0,1,.52,1.59L44.91,8.45a.93.93,0,0,0-.27.83l.44,2.56a.93.93,0,0,1-1.36,1l-2.3-1.21a.93.93,0,0,0-.87,0l-2.3,1.21a.93.93,0,0,1-1.36-1l.44-2.56a.93.93,0,0,0-.27-.83L35.21,6.64A.93.93,0,0,1,35.72,5l2.57-.37a.93.93,0,0,0,.7-.51l1.15-2.33A.93.93,0,0,1,41.83,1.82Z"/><path class="cls-1" d="M57.57,1.82l1.15,2.33a.93.93,0,0,0,.7.51L62,5a.93.93,0,0,1,.52,1.59L60.66,8.45a.93.93,0,0,0-.27.83l.44,2.56a.93.93,0,0,1-1.36,1l-2.3-1.21a.93.93,0,0,0-.87,0L54,12.83a.93.93,0,0,1-1.36-1l.44-2.56a.93.93,0,0,0-.27-.83L51,6.64A.93.93,0,0,1,51.47,5L54,4.67a.93.93,0,0,0,.7-.51L55.9,1.82A.93.93,0,0,1,57.57,1.82Z"/><path class="cls-1" d="M73.32,1.82l1.15,2.33a.93.93,0,0,0,.7.51L77.75,5a.93.93,0,0,1,.52,1.59L76.4,8.45a.93.93,0,0,0-.27.83l.44,2.56a.93.93,0,0,1-1.36,1l-2.3-1.21a.93.93,0,0,0-.87,0l-2.3,1.21a.93.93,0,0,1-1.36-1l.44-2.56a.93.93,0,0,0-.27-.83L66.7,6.64A.93.93,0,0,1,67.21,5l2.57-.37a.93.93,0,0,0,.7-.51l1.15-2.33A.93.93,0,0,1,73.32,1.82Z"/></svg>