<svg id="Calque_1" data-name="Calque 1" xmlns="http://www.w3.org/2000/svg" viewBox="0 0 127.93 26.59"><defs><style>.cls-1{fill:#fcf73d;}</style></defs><title>5et</title><path class="cls-1" d="M12.63,3l1.94,3.93a1.57,1.57,0,0,0,1.18.86l4.33.63A1.57,1.57,0,0,1,21,11.11l-3.14,3.06a1.57,1.57,0,0,0-.45,1.39l.74,4.32a1.57,1.57,0,0,1-2.28,1.66L12,19.5a1.57,1.57,0,0,0-1.46,0l-3.88,2a1.57,1.57,0,0,1-2.28-1.66l.74-4.32a1.57,1.57,0,0,0-.45-1.39L1.48,11.11a1.57,1.57,0,0,1,.87-2.68l4.33-.63a1.57,1.57,0,0,0,1.18-.86L9.81,3A1.57,1.57,0,0,1,12.63,3Z"/><path class="cls-1" d="M39.14,3l1.94,3.93a1.57,1.57,0,0,0,1.18.86l4.34.63a1.57,1.57,0,0,1,.87,2.68l-3.14,3.06a1.57,1.57,0,0,0-.45,1.39l.74,4.32a1.57,1.57,0,0,1-2.28,1.66l-3.88-2a1.57,1.57,0,0,0-1.46,0l-3.88,2a1.57,1.57,0,0,1-2.28-1.66l.74-4.32a1.57,1.57,0,0,0-.45-1.39L28,11.11a1.57,1.57,0,0,1,.87-2.68l4.33-.63a1.57,1.57,0,0,0,1.18-.86L36.32,3A1.57,1.57,0,0,1,39.14,3Z"/><path class="cls-1" d="M65.65,3l1.94,3.93a1.57,1.57,0,0,0,1.18.86l4.34.63A1.57,1.57,0,0,1,74,11.11l-3.14,3.06a1.57,1.57,0,0,0-.45,1.39l.74,4.32a1.57,1.57,0,0,1-2.28,1.66L65,19.5a1.57,1.57,0,0,0-1.46,0l-3.88,2a1.57,1.57,0,0,1-2.28-1.66l.74-4.32a1.57,1.57,0,0,0-.45-1.39L54.5,11.11a1.57,1.57,0,0,1,.87-2.68l4.33-.63a1.57,1.57,0,0,0,1.18-.86L62.83,3A1.57,1.57,0,0,1,65.65,3Z"/><path class="cls-1" d="M92.16,3,94.1,6.93a1.57,1.57,0,0,0,1.18.86l4.34.63a1.57,1.57,0,0,1,.87,2.68l-3.14,3.06a1.57,1.57,0,0,0-.45,1.39l.74,4.32a1.57,1.57,0,0,1-2.28,1.66l-3.88-2a1.57,1.57,0,0,0-1.46,0l-3.88,2a1.57,1.57,0,0,1-2.28-1.66l.74-4.32a1.57,1.57,0,0,0-.45-1.39L81,11.11a1.57,1.57,0,0,1,.87-2.68l4.34-.63a1.57,1.57,0,0,0,1.18-.86L89.34,3A1.57,1.57,0,0,1,92.16,3Z"/><path class="cls-1" d="M118.67,3l1.94,3.93a1.57,1.57,0,0,0,1.18.86l4.34.63a1.57,1.57,0,0,1,.87,2.68l-3.14,3.06a1.57,1.57,0,0,0-.45,1.39l.74,4.32a1.57,1.57,0,0,1-2.28,1.66l-3.88-2a1.57,1.57,0,0,0-1.46,0l-3.88,2a1.57,1.57,0,0,1-2.28-1.66l.74-4.32a1.57,1.57,0,0,0-.45-1.39l-3.14-3.06a1.57,1.57,0,0,1,.87-2.68l4.34-.63a1.57,1.57,0,0,0,1.18-.86L115.85,3A1.57,1.57,0,0,1,118.67,3Z"/></svg>